<?xml version="1.0" encoding="utf-8"?>
<!-- Generator: Adobe Illustrator 25.3.0, SVG Export Plug-In . SVG Version: 6.00 Build 0)  -->
<svg version="1.1" id="Layer_1" xmlns="http://www.w3.org/2000/svg" xmlns:xlink="http://www.w3.org/1999/xlink" x="0px" y="0px"
	 viewBox="0 0 1920 1080" style="enable-background:new 0 0 1920 1080;" xml:space="preserve">
<style type="text/css">
	.st0{fill:none;stroke:#F2E18D;stroke-width:6.1906;stroke-linecap:round;stroke-linejoin:round;stroke-miterlimit:10;}
</style>
<path class="st0" d="M1065.5,516.9l-15.9-1.7c-37.1-3.8-79.2,38.3-75.5,75.5l1.7,15.9c4.6,25.5,27.3,50,52.4,56.5
	c24.6,8.2,57-0.1,74.7-19c19-17.7,27.2-50.1,19-74.7C1115.6,544.2,1091.1,521.5,1065.5,516.9z"/>
<polygon class="st0" points="1009.6,584.8 1034.4,608.9 1082,548.9 1090.3,555.5 1035.4,624.7 1002.2,592.4 "/>
<path class="st0" d="M846.4,627.6c6.7,0.7,14.2-6.9,13.5-13.5v-46.7c0.7-6.7-6.9-14.2-13.5-13.5h-46.7c-6.7-0.7-14.2,6.9-13.5,13.5
	V614c-0.7,6.7,6.9,14.2,13.5,13.5H846.4z"/>
<polygon class="st0" points="1049.7,515.2 1049.7,416.8 1065.5,416.8 1065.5,516.9 "/>
<path class="st0" d="M1073,416.8c14.5,1.5,30.9-14.9,29.4-29.4v-46.7c1.5-14.5-14.9-30.9-29.4-29.4h-46.7
	c-14.5-1.5-30.9,14.9-29.4,29.4v7.5v15.9v23.4c-1.5,14.5,14.9,30.9,29.4,29.4h23.4h15.9L1073,416.8L1073,416.8z"/>
<polygon class="st0" points="975.9,606.5 875.8,606.5 875.8,590.7 974.2,590.7 "/>
<path class="st0" d="M786.2,387.4c-0.7,6.7,6.9,14.2,13.5,13.5h46.7c6.7,0.7,14.2-6.9,13.5-13.5v-46.7c0.7-6.7-6.9-14.2-13.5-13.5
	h-46.7c-6.7-0.7-14.2,6.9-13.5,13.5V387.4z"/>
<path class="st0" d="M1026.3,327.2c-6.7-0.7-14.2,6.9-13.5,13.5v46.7c-0.7,6.7,6.9,14.2,13.5,13.5h46.7c6.7,0.7,14.2-6.9,13.5-13.5
	v-46.7c0.7-6.7-6.9-14.2-13.5-13.5L1026.3,327.2L1026.3,327.2z"/>
<path class="st0" d="M875.8,340.7c1.5-14.5-14.9-30.9-29.4-29.4h-46.7c-14.5-1.5-30.9,14.9-29.4,29.4v46.7
	c-1.5,14.5,14.9,30.9,29.4,29.4h7.5h15.9h23.4c14.5,1.5,30.9-14.9,29.4-29.4v-23.4v-15.9L875.8,340.7L875.8,340.7z"/>
<path class="st0" d="M799.7,537.9c-14.5-1.5-30.9,14.9-29.4,29.4V614c-1.5,14.5,14.9,30.9,29.4,29.4h46.7
	c14.5,1.5,30.9-14.9,29.4-29.4v-7.5v-15.9v-23.4c1.5-14.5-14.9-30.9-29.4-29.4h-23.4h-15.9H799.7z"/>
<rect x="807.2" y="416.8" class="st0" width="15.9" height="121.1"/>
<rect x="875.8" y="348.2" class="st0" width="121.1" height="15.9"/>
</svg>
