<?xml version="1.0" encoding="utf-8"?>
<!-- Generator: Adobe Illustrator 25.3.0, SVG Export Plug-In . SVG Version: 6.00 Build 0)  -->
<svg version="1.1" id="Layer_1" xmlns="http://www.w3.org/2000/svg" xmlns:xlink="http://www.w3.org/1999/xlink" x="0px" y="0px"
	 viewBox="0 0 1366 768" style="enable-background:new 0 0 1366 768;" xml:space="preserve">
<style type="text/css">
	.st0{fill:none;stroke:#F2E18D;stroke-width:5;stroke-linecap:round;stroke-linejoin:round;stroke-miterlimit:10;}
</style>
<path class="st0" d="M814.3,399.39l-12.81-1.36c-30-3.04-64,30.96-60.96,60.96l1.36,12.81c3.71,20.63,22.06,40.4,42.35,45.66
	c19.9,6.6,46.03-0.05,60.35-15.36c15.31-14.32,21.97-40.45,15.36-60.35C854.71,421.45,834.93,403.11,814.3,399.39z"/>
<polygon class="st0" points="769.1,454.26 789.16,473.76 827.6,425.29 834.29,430.59 789.98,486.47 763.15,460.38 "/>
<path class="st0" d="M637.34,488.79c5.39,0.55,11.49-5.56,10.94-10.94v-37.72c0.55-5.39-5.56-11.49-10.94-10.94h-37.72
	c-5.39-0.55-11.49,5.56-10.94,10.94v37.72c-0.55,5.39,5.56,11.49,10.94,10.94H637.34z"/>
<polygon class="st0" points="801.49,398.03 801.49,318.59 814.3,318.59 814.3,399.39 "/>
<path class="st0" d="M820.35,318.59c11.69,1.18,24.94-12.07,23.76-23.76v-37.72c1.19-11.69-12.07-24.94-23.76-23.76h-37.72
	c-11.69-1.19-24.94,12.07-23.76,23.76v6.05v12.81v18.86c-1.19,11.69,12.07,24.94,23.76,23.76h18.86h12.81H820.35z"/>
<polygon class="st0" points="741.89,471.8 661.09,471.8 661.09,458.99 740.53,458.99 "/>
<path class="st0" d="M588.67,294.84c-0.55,5.39,5.56,11.49,10.94,10.94h37.72c5.39,0.55,11.49-5.56,10.94-10.94v-37.72
	c0.55-5.39-5.56-11.49-10.94-10.94h-37.72c-5.39-0.55-11.49,5.56-10.94,10.94V294.84z"/>
<path class="st0" d="M782.63,246.17c-5.39-0.55-11.49,5.56-10.94,10.94v37.72c-0.55,5.39,5.56,11.49,10.94,10.94h37.72
	c5.39,0.55,11.49-5.56,10.94-10.94v-37.72c0.55-5.39-5.56-11.49-10.94-10.94H782.63z"/>
<path class="st0" d="M661.09,257.12c1.19-11.69-12.07-24.94-23.76-23.76h-37.72c-11.69-1.19-24.94,12.07-23.76,23.76v37.72
	c-1.19,11.69,12.07,24.94,23.76,23.76h6.05h12.81h18.86c11.69,1.18,24.94-12.07,23.76-23.76v-18.86v-12.81V257.12z"/>
<path class="st0" d="M599.62,416.37c-11.69-1.19-24.94,12.07-23.76,23.76v37.72c-1.19,11.69,12.07,24.94,23.76,23.76h37.72
	c11.69,1.18,24.94-12.07,23.76-23.76v-6.05v-12.81v-18.86c1.19-11.69-12.07-24.94-23.76-23.76h-18.86h-12.81H599.62z"/>
<rect x="605.66" y="318.59" class="st0" width="12.81" height="97.78"/>
<rect x="661.09" y="263.16" class="st0" width="97.78" height="12.81"/>
</svg>
