<svg id="Layer_1" data-name="Layer 1" xmlns="http://www.w3.org/2000/svg" xmlns:xlink="http://www.w3.org/1999/xlink" viewBox="0 0 500 500"><defs><style>.cls-1{fill:none;}.cls-11,.cls-12,.cls-2,.cls-30,.cls-56{opacity:0.3;}.cls-11,.cls-12,.cls-3,.cls-30,.cls-56{isolation:isolate;}.cls-4,.cls-56{fill:#11091c;}.cls-5{fill:#1f0159;}.cls-6{fill:#592b9e;}.cls-7{fill:#693ab0;}.cls-8{fill:#fff;}.cls-11,.cls-9{fill:#ac44ee;}.cls-10{fill:#50298a;}.cls-12{fill:#110a1c;}.cls-13{fill:#e5e3e8;}.cls-14{fill:#d4ced8;}.cls-15{fill:#e0dde1;}.cls-16{fill:#f1f1f1;}.cls-17{fill:url(#linear-gradient);}.cls-18{fill:#3d2f43;}.cls-19{fill:#10191b;}.cls-20{fill:#242a31;}.cls-21{fill:#ffb700;}.cls-22{fill:#ffde38;}.cls-23{fill:#ffa200;}.cls-24{fill:#f90;}.cls-25{clip-path:url(#clip-path);}.cls-26{clip-path:url(#clip-path-2);}.cls-27{clip-path:url(#clip-path-3);}.cls-28{clip-path:url(#clip-path-4);}.cls-29{fill:#140b23;}.cls-30{fill:#0e0819;}.cls-31{fill:#ffc400;}.cls-32{clip-path:url(#clip-path-5);}.cls-33{clip-path:url(#clip-path-6);}.cls-34{clip-path:url(#clip-path-7);}.cls-35{clip-path:url(#clip-path-8);}.cls-36{clip-path:url(#clip-path-9);}.cls-37{clip-path:url(#clip-path-10);}.cls-38{clip-path:url(#clip-path-11);}.cls-39{clip-path:url(#clip-path-12);}.cls-40{clip-path:url(#clip-path-13);}.cls-41{clip-path:url(#clip-path-14);}.cls-42{clip-path:url(#clip-path-15);}.cls-43{clip-path:url(#clip-path-16);}.cls-44{clip-path:url(#clip-path-17);}.cls-45{clip-path:url(#clip-path-18);}.cls-46{clip-path:url(#clip-path-19);}.cls-47{clip-path:url(#clip-path-20);}.cls-48{clip-path:url(#clip-path-21);}.cls-49{clip-path:url(#clip-path-22);}.cls-50{clip-path:url(#clip-path-23);}.cls-51{clip-path:url(#clip-path-24);}.cls-52{clip-path:url(#clip-path-25);}.cls-53{clip-path:url(#clip-path-26);}.cls-54{clip-path:url(#clip-path-27);}.cls-55{clip-path:url(#clip-path-28);}.cls-57{clip-path:url(#clip-path-29);}.cls-58{clip-path:url(#clip-path-30);}.cls-59{clip-path:url(#clip-path-31);}.cls-60{clip-path:url(#clip-path-32);}.cls-61{clip-path:url(#clip-path-33);}.cls-62{clip-path:url(#clip-path-34);}.cls-63{clip-path:url(#clip-path-35);}.cls-64{clip-path:url(#clip-path-36);}.cls-65{clip-path:url(#clip-path-37);}.cls-66{clip-path:url(#clip-path-38);}.cls-67{clip-path:url(#clip-path-39);}.cls-68{clip-path:url(#clip-path-40);}</style><linearGradient id="linear-gradient" x1="166.52" y1="254.87" x2="380.57" y2="141.62" gradientTransform="matrix(1, 0, 0, -1, 0, 502)" gradientUnits="userSpaceOnUse"><stop offset="0.08" stop-color="#ac44ee"/><stop offset="0.08" stop-color="#ac44ee"/><stop offset="0.26" stop-color="#8937cb"/><stop offset="0.44" stop-color="#6e2caf"/><stop offset="0.62" stop-color="#5b259c"/><stop offset="0.81" stop-color="#502090"/><stop offset="1" stop-color="#4c1f8c"/></linearGradient><clipPath id="clip-path"><path class="cls-1" d="M269,295.4l2.6,1.5c.1.1.3.2.4.3a1.81,1.81,0,0,1,.4,1.4,4.9,4.9,0,0,1-.9,2.8,10.85,10.85,0,0,1-3.5,2.8,15.23,15.23,0,0,1-4.3,1.8,17.23,17.23,0,0,1-3.5.5l-2.6-1.5a16.33,16.33,0,0,0,3.5-.5,14.13,14.13,0,0,0,4.3-1.8,10.85,10.85,0,0,0,3.5-2.8,4.9,4.9,0,0,0,.9-2.8,2,2,0,0,0-.4-1.4C269.3,295.6,269.1,295.5,269,295.4Z"/></clipPath><clipPath id="clip-path-2"><path class="cls-1" d="M266,289.5l-2.6-1.5c.1.1.3.1.5.2a3.75,3.75,0,0,0,1.5,0q.9-.15,2.1-.3a21.36,21.36,0,0,1,3.4-.3,7.78,7.78,0,0,1,2.8.5c.1.1.2.1.4.2l2.6,1.5c-.1-.1-.2-.1-.4-.2a7.78,7.78,0,0,0-2.8-.5,20.41,20.41,0,0,0-3.4.3,21.11,21.11,0,0,1-2.1.3,3.75,3.75,0,0,1-1.5,0C266.3,289.6,266.2,289.5,266,289.5Z"/></clipPath><clipPath id="clip-path-3"><path class="cls-1" d="M271.3,275.9l-2.6-1.5a24.52,24.52,0,0,1,3.8-1.5,21.58,21.58,0,0,1,2.5-.5l2.6,1.5a9.91,9.91,0,0,0-2.5.5A24.52,24.52,0,0,0,271.3,275.9Z"/></clipPath><clipPath id="clip-path-4"><path class="cls-1" d="M260.8,296.7l-2.6-1.5a3,3,0,0,1-1.2-1.3,6.6,6.6,0,0,1-.7-3.2,12.42,12.42,0,0,1,.4-3.3,23,23,0,0,1,1.2-3.4,21,21,0,0,1,2.2-3.3,23.62,23.62,0,0,1,3.2-3.1l2.6,1.5a23.62,23.62,0,0,0-3.2,3.1,21,21,0,0,0-2.2,3.3,11.55,11.55,0,0,0-1.2,3.4,12.42,12.42,0,0,0-.4,3.3,5.63,5.63,0,0,0,.7,3.2A3.8,3.8,0,0,0,260.8,296.7Z"/></clipPath><clipPath id="clip-path-5"><path class="cls-1" d="M412.3,232.5v-2a.76.76,0,0,0-.1-.4,1.44,1.44,0,0,0-.7-.6,3.29,3.29,0,0,0-2-.4,7.93,7.93,0,0,0-2.8,1A18.48,18.48,0,0,0,404,232a13.75,13.75,0,0,0-1.7,1.9v2A13.75,13.75,0,0,1,404,234a11.66,11.66,0,0,1,2.7-1.9,7.32,7.32,0,0,1,2.8-1,3.14,3.14,0,0,1,2,.4,2.17,2.17,0,0,1,.7.6A.76.76,0,0,1,412.3,232.5Z"/></clipPath><clipPath id="clip-path-6"><path class="cls-1" d="M415.2,237.1v2a1.27,1.27,0,0,1,.1-.6,3.75,3.75,0,0,1,.7-1.2,13.28,13.28,0,0,1,1.2-1.6,8.85,8.85,0,0,0,1.2-1.7,4.72,4.72,0,0,0,.7-1.7v-2a3.63,3.63,0,0,1-.7,1.7c-.4.6-.8,1.2-1.2,1.7a13.28,13.28,0,0,0-1.2,1.6,8.76,8.76,0,0,0-.7,1.2A1.27,1.27,0,0,0,415.2,237.1Z"/></clipPath><clipPath id="clip-path-7"><path class="cls-1" d="M426.8,238.9v2a12.6,12.6,0,0,0,3.1-2.7,17.61,17.61,0,0,0,1.3-1.8v-2a17.61,17.61,0,0,1-1.3,1.8A14.84,14.84,0,0,1,426.8,238.9Z"/></clipPath><clipPath id="clip-path-8"><path class="cls-1" d="M408.4,237.7v2a3.32,3.32,0,0,0,.5,1.6,5,5,0,0,0,2,1.7,11.21,11.21,0,0,0,2.2,1,11.73,11.73,0,0,0,2.7.5,17.74,17.74,0,0,0,3.2-.2,17.53,17.53,0,0,0,3.5-1.1v-2a17.53,17.53,0,0,1-3.5,1.1,11.73,11.73,0,0,1-3.2.2,7.63,7.63,0,0,1-2.7-.5,11.21,11.21,0,0,1-2.2-1,5.88,5.88,0,0,1-2-1.7A3,3,0,0,1,408.4,237.7Z"/></clipPath><clipPath id="clip-path-9"><path class="cls-1" d="M416.8,223v-2a.76.76,0,0,0-.1-.4,1.44,1.44,0,0,0-.7-.6,3.29,3.29,0,0,0-2-.4,7.93,7.93,0,0,0-2.8,1,18.48,18.48,0,0,0-2.7,1.9,13.75,13.75,0,0,0-1.7,1.9v2a13.75,13.75,0,0,1,1.7-1.9,11.66,11.66,0,0,1,2.7-1.9,7.32,7.32,0,0,1,2.8-1,3.14,3.14,0,0,1,2,.4,2.17,2.17,0,0,1,.7.6C416.7,222.8,416.8,222.9,416.8,223Z"/></clipPath><clipPath id="clip-path-10"><path class="cls-1" d="M419.6,227.6v2a1.27,1.27,0,0,1,.1-.6,3.75,3.75,0,0,1,.7-1.2,13.28,13.28,0,0,1,1.2-1.6,8.85,8.85,0,0,0,1.2-1.7,4.72,4.72,0,0,0,.7-1.7v-2a3.63,3.63,0,0,1-.7,1.7c-.4.6-.8,1.2-1.2,1.7a13.28,13.28,0,0,0-1.2,1.6,8.76,8.76,0,0,0-.7,1.2A1.27,1.27,0,0,0,419.6,227.6Z"/></clipPath><clipPath id="clip-path-11"><path class="cls-1" d="M431.2,229.4v2a12.6,12.6,0,0,0,3.1-2.7,17.61,17.61,0,0,0,1.3-1.8v-2a17.61,17.61,0,0,1-1.3,1.8A12.6,12.6,0,0,1,431.2,229.4Z"/></clipPath><clipPath id="clip-path-12"><path class="cls-1" d="M412.8,228.2v2a3.32,3.32,0,0,0,.5,1.6,5,5,0,0,0,2,1.7,11.21,11.21,0,0,0,2.2,1,11.73,11.73,0,0,0,2.7.5,12,12,0,0,0,3.2-.2,17.53,17.53,0,0,0,3.5-1.1v-2a17.53,17.53,0,0,1-3.5,1.1,11.73,11.73,0,0,1-3.2.2,7.63,7.63,0,0,1-2.7-.5,11.21,11.21,0,0,1-2.2-1,5.88,5.88,0,0,1-2-1.7A3,3,0,0,1,412.8,228.2Z"/></clipPath><clipPath id="clip-path-13"><path class="cls-1" d="M406.5,212.8v-2a.76.76,0,0,0-.1-.4,1.44,1.44,0,0,0-.7-.6,3.29,3.29,0,0,0-2-.4,7.93,7.93,0,0,0-2.8,1,18.48,18.48,0,0,0-2.7,1.9,13.75,13.75,0,0,0-1.7,1.9v2a13.75,13.75,0,0,1,1.7-1.9,11.66,11.66,0,0,1,2.7-1.9,7.32,7.32,0,0,1,2.8-1,3.14,3.14,0,0,1,2,.4,2.17,2.17,0,0,1,.7.6A.6.6,0,0,1,406.5,212.8Z"/></clipPath><clipPath id="clip-path-14"><path class="cls-1" d="M409.3,217.3v2a1.27,1.27,0,0,1,.1-.6,3.75,3.75,0,0,1,.7-1.2,13.28,13.28,0,0,1,1.2-1.6,8.85,8.85,0,0,0,1.2-1.7,4.72,4.72,0,0,0,.7-1.7v-2a3.63,3.63,0,0,1-.7,1.7c-.4.6-.8,1.2-1.2,1.7a13.28,13.28,0,0,0-1.2,1.6,8.76,8.76,0,0,0-.7,1.2A3.54,3.54,0,0,1,409.3,217.3Z"/></clipPath><clipPath id="clip-path-15"><path class="cls-1" d="M421,219.1v2a12.6,12.6,0,0,0,3.1-2.7,17.61,17.61,0,0,0,1.3-1.8v-2a17.61,17.61,0,0,1-1.3,1.8A12.42,12.42,0,0,1,421,219.1Z"/></clipPath><clipPath id="clip-path-16"><path class="cls-1" d="M402.6,218v2a3.32,3.32,0,0,0,.5,1.6,5,5,0,0,0,2,1.7,11.21,11.21,0,0,0,2.2,1,11.73,11.73,0,0,0,2.7.5,17.74,17.74,0,0,0,3.2-.2,17.53,17.53,0,0,0,3.5-1.1v-2a17.53,17.53,0,0,1-3.5,1.1,11.73,11.73,0,0,1-3.2.2,10.81,10.81,0,0,1-2.7-.5,11.21,11.21,0,0,1-2.2-1,5.88,5.88,0,0,1-2-1.7A2.52,2.52,0,0,1,402.6,218Z"/></clipPath><clipPath id="clip-path-17"><path class="cls-1" d="M407.9,202.9v-2a.76.76,0,0,0-.1-.4,1.44,1.44,0,0,0-.7-.6,3.29,3.29,0,0,0-2-.4,7.93,7.93,0,0,0-2.8,1,18.48,18.48,0,0,0-2.7,1.9,13.75,13.75,0,0,0-1.7,1.9v2a13.75,13.75,0,0,1,1.7-1.9,11.66,11.66,0,0,1,2.7-1.9,7.32,7.32,0,0,1,2.8-1,3.14,3.14,0,0,1,2,.4,2.17,2.17,0,0,1,.7.6C407.8,202.6,407.9,202.8,407.9,202.9Z"/></clipPath><clipPath id="clip-path-18"><path class="cls-1" d="M410.7,207.4v2a1.27,1.27,0,0,1,.1-.6,3.75,3.75,0,0,1,.7-1.2,13.28,13.28,0,0,1,1.2-1.6,8.85,8.85,0,0,0,1.2-1.7,4.72,4.72,0,0,0,.7-1.7v-2a3.63,3.63,0,0,1-.7,1.7c-.4.6-.8,1.2-1.2,1.7a13.28,13.28,0,0,0-1.2,1.6,8.76,8.76,0,0,0-.7,1.2A1.49,1.49,0,0,0,410.7,207.4Z"/></clipPath><clipPath id="clip-path-19"><path class="cls-1" d="M422.3,209.2v2a12.6,12.6,0,0,0,3.1-2.7,17.61,17.61,0,0,0,1.3-1.8v-2a17.61,17.61,0,0,1-1.3,1.8A12.6,12.6,0,0,1,422.3,209.2Z"/></clipPath><clipPath id="clip-path-20"><path class="cls-1" d="M404,208.1v2a3.32,3.32,0,0,0,.5,1.6,5,5,0,0,0,2,1.7,11.21,11.21,0,0,0,2.2,1,11.73,11.73,0,0,0,2.7.5,12,12,0,0,0,3.2-.2,17.53,17.53,0,0,0,3.5-1.1v-2a17.53,17.53,0,0,1-3.5,1.1,11.73,11.73,0,0,1-3.2.2,7.63,7.63,0,0,1-2.7-.5,11.21,11.21,0,0,1-2.2-1,5.88,5.88,0,0,1-2-1.7A2.52,2.52,0,0,1,404,208.1Z"/></clipPath><clipPath id="clip-path-21"><path class="cls-1" d="M406.4,194.1v-2a.76.76,0,0,0-.1-.4,1.44,1.44,0,0,0-.7-.6,3.29,3.29,0,0,0-2-.4,7.93,7.93,0,0,0-2.8,1,18.48,18.48,0,0,0-2.7,1.9,13.75,13.75,0,0,0-1.7,1.9v2a13.75,13.75,0,0,1,1.7-1.9,11.66,11.66,0,0,1,2.7-1.9,7.32,7.32,0,0,1,2.8-1,3.14,3.14,0,0,1,2,.4,2.17,2.17,0,0,1,.7.6C406.3,193.9,406.4,194,406.4,194.1Z"/></clipPath><clipPath id="clip-path-22"><path class="cls-1" d="M409.2,198.7v2a1.27,1.27,0,0,1,.1-.6,3.75,3.75,0,0,1,.7-1.2,13.28,13.28,0,0,1,1.2-1.6,8.85,8.85,0,0,0,1.2-1.7,4.72,4.72,0,0,0,.7-1.7v-2a3.63,3.63,0,0,1-.7,1.7c-.4.6-.8,1.2-1.2,1.7a13.28,13.28,0,0,0-1.2,1.6,8.76,8.76,0,0,0-.7,1.2A1.27,1.27,0,0,0,409.2,198.7Z"/></clipPath><clipPath id="clip-path-23"><path class="cls-1" d="M420.8,200.5v2a12.6,12.6,0,0,0,3.1-2.7,17.61,17.61,0,0,0,1.3-1.8v-2a17.61,17.61,0,0,1-1.3,1.8A12.6,12.6,0,0,1,420.8,200.5Z"/></clipPath><clipPath id="clip-path-24"><path class="cls-1" d="M402.5,199.3v2a3.32,3.32,0,0,0,.5,1.6,5,5,0,0,0,2,1.7,11.21,11.21,0,0,0,2.2,1,11.73,11.73,0,0,0,2.7.5,12,12,0,0,0,3.2-.2,17.53,17.53,0,0,0,3.5-1.1v-2a17.53,17.53,0,0,1-3.5,1.1,11.73,11.73,0,0,1-3.2.2,10.81,10.81,0,0,1-2.7-.5,11.21,11.21,0,0,1-2.2-1,5.88,5.88,0,0,1-2-1.7A2.35,2.35,0,0,1,402.5,199.3Z"/></clipPath><clipPath id="clip-path-25"><path class="cls-1" d="M407.7,184.2v-2a.76.76,0,0,0-.1-.4,1.44,1.44,0,0,0-.7-.6,3.29,3.29,0,0,0-2-.4,7.93,7.93,0,0,0-2.8,1,18.48,18.48,0,0,0-2.7,1.9,13.75,13.75,0,0,0-1.7,1.9v2a13.75,13.75,0,0,1,1.7-1.9,11.66,11.66,0,0,1,2.7-1.9,7.32,7.32,0,0,1,2.8-1,3.14,3.14,0,0,1,2,.4,2.17,2.17,0,0,1,.7.6A.76.76,0,0,1,407.7,184.2Z"/></clipPath><clipPath id="clip-path-26"><path class="cls-1" d="M410.6,188.8v2a1.27,1.27,0,0,1,.1-.6,3.75,3.75,0,0,1,.7-1.2,13.28,13.28,0,0,1,1.2-1.6,8.85,8.85,0,0,0,1.2-1.7,4.72,4.72,0,0,0,.7-1.7v-2a3.63,3.63,0,0,1-.7,1.7c-.4.6-.8,1.2-1.2,1.7a13.28,13.28,0,0,0-1.2,1.6,8.76,8.76,0,0,0-.7,1.2A1.27,1.27,0,0,0,410.6,188.8Z"/></clipPath><clipPath id="clip-path-27"><path class="cls-1" d="M422.2,190.6v2a12.6,12.6,0,0,0,3.1-2.7,17.61,17.61,0,0,0,1.3-1.8v-2a17.61,17.61,0,0,1-1.3,1.8A12.6,12.6,0,0,1,422.2,190.6Z"/></clipPath><clipPath id="clip-path-28"><path class="cls-1" d="M403.8,189.4v2a3.32,3.32,0,0,0,.5,1.6,5,5,0,0,0,2,1.7,11.21,11.21,0,0,0,2.2,1,11.73,11.73,0,0,0,2.7.5,17.74,17.74,0,0,0,3.2-.2,17.53,17.53,0,0,0,3.5-1.1v-2a17.53,17.53,0,0,1-3.5,1.1,11.73,11.73,0,0,1-3.2.2,7.63,7.63,0,0,1-2.7-.5,11.21,11.21,0,0,1-2.2-1,5.88,5.88,0,0,1-2-1.7A3,3,0,0,1,403.8,189.4Z"/></clipPath><clipPath id="clip-path-29"><path class="cls-1" d="M371.8,247.1v-2.2a.6.6,0,0,1,.1-.4,2.31,2.31,0,0,1,.7-.7,3.79,3.79,0,0,1,2.2-.4,6.58,6.58,0,0,1,2.9,1.1,15.45,15.45,0,0,1,2.8,2,10.42,10.42,0,0,1,1.8,2v2.2a10.42,10.42,0,0,0-1.8-2,15.45,15.45,0,0,0-2.8-2,8.84,8.84,0,0,0-2.9-1.1,3.79,3.79,0,0,0-2.2.4,1.2,1.2,0,0,0-.7.7C371.8,246.8,371.8,246.9,371.8,247.1Z"/></clipPath><clipPath id="clip-path-30"><path class="cls-1" d="M368.8,251.9v2.2a1.27,1.27,0,0,0-.1-.6,5.62,5.62,0,0,0-.7-1.3c-.4-.5-.8-1-1.3-1.7a20.28,20.28,0,0,1-1.3-1.8,7.1,7.1,0,0,1-.8-1.8v-2.2a4.76,4.76,0,0,0,.8,1.8,20.28,20.28,0,0,0,1.3,1.8c.5.6.9,1.2,1.3,1.7a3.35,3.35,0,0,1,.7,1.3C368.7,251.5,368.8,251.7,368.8,251.9Z"/></clipPath><clipPath id="clip-path-31"><path class="cls-1" d="M356.4,253.8V256a17.32,17.32,0,0,1-3.3-2.8,21.23,21.23,0,0,1-1.4-1.9v-2.2a14.44,14.44,0,0,0,4.7,4.7Z"/></clipPath><clipPath id="clip-path-32"><path class="cls-1" d="M375.9,252.6v2.2a3.69,3.69,0,0,1-.5,1.7,5.5,5.5,0,0,1-2.1,1.8,13.32,13.32,0,0,1-2.4,1,13.52,13.52,0,0,1-2.9.5,13.22,13.22,0,0,1-3.4-.2,19.2,19.2,0,0,1-3.7-1.1v-2.2a21.52,21.52,0,0,0,3.7,1.1,13.22,13.22,0,0,0,3.4.2,12.51,12.51,0,0,0,2.9-.5,13.32,13.32,0,0,0,2.4-1,6.51,6.51,0,0,0,2.1-1.8A4.06,4.06,0,0,0,375.9,252.6Z"/></clipPath><clipPath id="clip-path-33"><path class="cls-1" d="M367.1,237v-2.2a.6.6,0,0,1,.1-.4,2.31,2.31,0,0,1,.7-.7,3.79,3.79,0,0,1,2.2-.4,6.58,6.58,0,0,1,2.9,1.1,15.45,15.45,0,0,1,2.8,2,10.42,10.42,0,0,1,1.8,2v2.2a10.42,10.42,0,0,0-1.8-2,15.45,15.45,0,0,0-2.8-2,8.84,8.84,0,0,0-2.9-1.1,3.79,3.79,0,0,0-2.2.4,1.2,1.2,0,0,0-.7.7A.6.6,0,0,0,367.1,237Z"/></clipPath><clipPath id="clip-path-34"><path class="cls-1" d="M364.1,241.8V244a1.27,1.27,0,0,0-.1-.6,5.62,5.62,0,0,0-.7-1.3c-.4-.5-.8-1-1.3-1.7a20.28,20.28,0,0,1-1.3-1.8,7.1,7.1,0,0,1-.8-1.8v-2.2a4.76,4.76,0,0,0,.8,1.8,20.28,20.28,0,0,0,1.3,1.8c.5.6.9,1.2,1.3,1.7a3.35,3.35,0,0,1,.7,1.3C364,241.4,364.1,241.6,364.1,241.8Z"/></clipPath><clipPath id="clip-path-35"><path class="cls-1" d="M351.7,243.7v2.2a17.32,17.32,0,0,1-3.3-2.8,21.23,21.23,0,0,1-1.4-1.9V239a21.23,21.23,0,0,0,1.4,1.9A16.89,16.89,0,0,0,351.7,243.7Z"/></clipPath><clipPath id="clip-path-36"><path class="cls-1" d="M371.2,242.5v2.2a3.69,3.69,0,0,1-.5,1.7,5.5,5.5,0,0,1-2.1,1.8,13.32,13.32,0,0,1-2.4,1,13.52,13.52,0,0,1-2.9.5,13.22,13.22,0,0,1-3.4-.2,19.2,19.2,0,0,1-3.7-1.1v-2.2a21.52,21.52,0,0,0,3.7,1.1,13.22,13.22,0,0,0,3.4.2,12.51,12.51,0,0,0,2.9-.5,13.32,13.32,0,0,0,2.4-1,6.51,6.51,0,0,0,2.1-1.8A3.37,3.37,0,0,0,371.2,242.5Z"/></clipPath><clipPath id="clip-path-37"><path class="cls-1" d="M377.9,226.1v-2.2a.6.6,0,0,1,.1-.4,2.31,2.31,0,0,1,.7-.7,3.79,3.79,0,0,1,2.2-.4,6.58,6.58,0,0,1,2.9,1.1,15.45,15.45,0,0,1,2.8,2,10.42,10.42,0,0,1,1.8,2v2.2a10.42,10.42,0,0,0-1.8-2,15.45,15.45,0,0,0-2.8-2,8.84,8.84,0,0,0-2.9-1.1,3.79,3.79,0,0,0-2.2.4,1.2,1.2,0,0,0-.7.7A.76.76,0,0,0,377.9,226.1Z"/></clipPath><clipPath id="clip-path-38"><path class="cls-1" d="M374.9,231v2.2a1.27,1.27,0,0,0-.1-.6,5.62,5.62,0,0,0-.7-1.3c-.4-.5-.8-1-1.3-1.7a20.28,20.28,0,0,1-1.3-1.8,7.1,7.1,0,0,1-.8-1.8v-2.2a4.76,4.76,0,0,0,.8,1.8,20.28,20.28,0,0,0,1.3,1.8c.5.6.9,1.2,1.3,1.7a3.35,3.35,0,0,1,.7,1.3A1.27,1.27,0,0,1,374.9,231Z"/></clipPath><clipPath id="clip-path-39"><path class="cls-1" d="M362.6,232.9v2.2a17.32,17.32,0,0,1-3.3-2.8,21.23,21.23,0,0,1-1.4-1.9v-2.2a14.44,14.44,0,0,0,4.7,4.7Z"/></clipPath><clipPath id="clip-path-40"><path class="cls-1" d="M382.1,231.7v2.2a3.69,3.69,0,0,1-.5,1.7,5.5,5.5,0,0,1-2.1,1.8,13.32,13.32,0,0,1-2.4,1,13.52,13.52,0,0,1-2.9.5,13.22,13.22,0,0,1-3.4-.2,19.2,19.2,0,0,1-3.7-1.1v-2.2a21.52,21.52,0,0,0,3.7,1.1,13.22,13.22,0,0,0,3.4.2,12.51,12.51,0,0,0,2.9-.5,13.32,13.32,0,0,0,2.4-1,6.51,6.51,0,0,0,2.1-1.8A4.06,4.06,0,0,0,382.1,231.7Z"/></clipPath></defs><rect class="cls-1" width="500" height="500"/><g class="cls-2"><g class="cls-3"><polygon class="cls-4" points="313.2 219 382.8 178.4 361.8 166.2 316.9 142.3 298.6 131.8 278.9 120.4 256.2 107.3 221.3 127.6 190.9 145.3 181.8 150.5 194.2 157.7 237.6 182.7 300.4 219 313.2 219"/></g></g><polygon class="cls-5" points="249.7 103.6 175.3 144.3 175.3 146.8 300.3 219 300.3 131.8 249.7 103.6"/><polygon class="cls-6" points="300.3 131.8 300.3 219 374.7 175.8 374.7 173.3 300.3 131.8"/><g class="cls-3"><polygon class="cls-7" points="374.7 173.3 300.3 216.5 231.1 176.5 187.7 151.5 175.3 144.3 184.3 139.1 214.8 121.4 249.7 101.1 272.4 114.1 292.1 125.5 310.3 136.1 353.8 161.1 374.7 173.3"/></g><path class="cls-8" d="M212.2,130.5a3.88,3.88,0,0,1,3.9,0l1.7,1c1.4.8,1,1.6,0,2.2l-4,2.3a3.52,3.52,0,0,1-3.7,0l-1.7-1c-1.2-.7-1.3-1.5,0-2.2Zm-2.1,3.8,1,.6a1.36,1.36,0,0,0,1.5,0l3.5-2c.5-.3.5-.6,0-.8l-1.1-.6a1.34,1.34,0,0,0-1.5,0l-3.5,2C209.4,133.8,209.7,134.1,210.1,134.3Z"/><path class="cls-8" d="M218.8,134.3a3.88,3.88,0,0,1,3.9,0l1.7,1c1.4.8,1,1.6,0,2.2l-4,2.3a3.52,3.52,0,0,1-3.7,0l-1.7-1c-1.2-.7-1.3-1.5,0-2.2Zm-2.1,3.8,1,.6a1.36,1.36,0,0,0,1.5,0l3.5-2c.5-.3.5-.6,0-.8l-1.1-.6a1.34,1.34,0,0,0-1.5,0l-3.5,2C216,137.6,216.3,137.9,216.7,138.1Z"/><path class="cls-8" d="M225.4,138.1a3.88,3.88,0,0,1,3.9,0l1.7,1c1.4.8,1,1.6,0,2.2l-4,2.3a3.52,3.52,0,0,1-3.7,0l-1.7-1c-1.2-.7-1.3-1.5,0-2.2Zm-2.2,3.8,1,.6a1.36,1.36,0,0,0,1.5,0l3.5-2c.5-.3.5-.6,0-.8l-1.1-.6a1.34,1.34,0,0,0-1.5,0l-3.5,2C222.6,141.4,222.9,141.7,223.2,141.9Z"/><path class="cls-8" d="M232,141.9a3.88,3.88,0,0,1,3.9,0l1.7,1c1.4.8,1,1.6,0,2.2l-4,2.3a3.52,3.52,0,0,1-3.7,0l-1.7-1c-1.2-.7-1.3-1.5,0-2.2Zm-2.2,3.8,1,.6a1.36,1.36,0,0,0,1.5,0l3.5-2c.5-.3.5-.6,0-.8l-1.1-.6a1.34,1.34,0,0,0-1.5,0l-3.5,2C229.1,145.2,229.5,145.5,229.8,145.7Z"/><path class="cls-8" d="M241.2,147.2a3.88,3.88,0,0,1,3.9,0l1.7,1c1.4.8,1,1.6,0,2.2l-4,2.3a3.52,3.52,0,0,1-3.7,0l-1.7-1c-1.2-.7-1.3-1.5,0-2.2ZM239,151l1,.6a1.36,1.36,0,0,0,1.5,0l3.5-2c.5-.3.5-.6,0-.8l-1.1-.6a1.34,1.34,0,0,0-1.5,0l-3.5,2C238.3,150.5,238.6,150.8,239,151Z"/><path class="cls-8" d="M247.7,151a3.88,3.88,0,0,1,3.9,0l1.7,1c1.4.8,1,1.6,0,2.2l-4,2.3a3.52,3.52,0,0,1-3.7,0l-1.7-1c-1.2-.7-1.3-1.5,0-2.2Zm-2.1,3.8,1,.6a1.36,1.36,0,0,0,1.5,0l3.5-2c.5-.3.5-.6,0-.8l-1.1-.6a1.34,1.34,0,0,0-1.5,0l-3.5,2C244.9,154.3,245.2,154.6,245.6,154.8Z"/><path class="cls-8" d="M254.3,154.8a3.88,3.88,0,0,1,3.9,0l1.7,1c1.4.8,1,1.6,0,2.2l-4,2.3a3.52,3.52,0,0,1-3.7,0l-1.7-1c-1.2-.7-1.3-1.5,0-2.2Zm-2.1,3.8,1,.6a1.36,1.36,0,0,0,1.5,0l3.5-2c.5-.3.5-.6,0-.8l-1.1-.6a1.34,1.34,0,0,0-1.5,0l-3.5,2C251.5,158.1,251.8,158.4,252.2,158.6Z"/><path class="cls-8" d="M260.9,158.6a3.88,3.88,0,0,1,3.9,0l1.7,1c1.4.8,1,1.6,0,2.2l-4,2.3a3.52,3.52,0,0,1-3.7,0l-1.7-1c-1.2-.7-1.3-1.5,0-2.2Zm-2.2,3.8,1,.6a1.36,1.36,0,0,0,1.5,0l3.5-2c.5-.3.5-.6,0-.8l-1.1-.6a1.34,1.34,0,0,0-1.5,0l-3.5,2C258.1,161.9,258.4,162.2,258.7,162.4Z"/><path class="cls-8" d="M270.1,163.9a3.88,3.88,0,0,1,3.9,0l1.7,1c1.4.8,1,1.6,0,2.2l-4,2.3a3.52,3.52,0,0,1-3.7,0l-1.7-1c-1.2-.7-1.3-1.5,0-2.2Zm-2.2,3.8,1,.6a1.36,1.36,0,0,0,1.5,0l3.5-2c.5-.3.5-.6,0-.8l-1.1-.6a1.34,1.34,0,0,0-1.5,0l-3.5,2C267.2,167.2,267.6,167.5,267.9,167.7Z"/><path class="cls-8" d="M276.7,167.7a3.88,3.88,0,0,1,3.9,0l1.7,1c1.4.8,1,1.6,0,2.2l-4,2.3a3.52,3.52,0,0,1-3.7,0l-1.7-1c-1.2-.7-1.3-1.5,0-2.2Zm-2.2,3.8,1,.6a1.36,1.36,0,0,0,1.5,0l3.5-2c.5-.3.5-.6,0-.8l-1.1-.6a1.34,1.34,0,0,0-1.5,0l-3.5,2C273.8,171,274.1,171.3,274.5,171.5Z"/><path class="cls-8" d="M283.2,171.5a3.88,3.88,0,0,1,3.9,0l1.7,1c1.4.8,1,1.6,0,2.2l-4,2.3a3.52,3.52,0,0,1-3.7,0l-1.7-1c-1.2-.7-1.3-1.5,0-2.2Zm-2.1,3.8,1,.6a1.36,1.36,0,0,0,1.5,0l3.5-2c.5-.3.5-.6,0-.8l-1.1-.6a1.34,1.34,0,0,0-1.5,0l-3.5,2C280.4,174.8,280.7,175.1,281.1,175.3Z"/><path class="cls-8" d="M289.8,175.3a3.88,3.88,0,0,1,3.9,0l1.7,1c1.4.8,1,1.6,0,2.2l-4,2.3a3.52,3.52,0,0,1-3.7,0l-1.7-1c-1.2-.7-1.3-1.5,0-2.2Zm-2.1,3.8,1,.6a1.36,1.36,0,0,0,1.5,0l3.5-2c.5-.3.5-.6,0-.8l-1.1-.6a1.34,1.34,0,0,0-1.5,0l-3.5,2C287,178.6,287.3,178.9,287.7,179.1Z"/><path class="cls-8" d="M299,180.6a3.88,3.88,0,0,1,3.9,0l1.7,1c1.4.8,1,1.6,0,2.2l-4,2.3a3.52,3.52,0,0,1-3.7,0l-1.7-1c-1.2-.7-1.3-1.5,0-2.2Zm-2.2,3.8,1,.6a1.36,1.36,0,0,0,1.5,0l3.5-2c.5-.3.5-.6,0-.8l-1.1-.6a1.34,1.34,0,0,0-1.5,0l-3.5,2C296.2,183.9,296.5,184.2,296.8,184.4Z"/><path class="cls-8" d="M305.6,184.4a3.88,3.88,0,0,1,3.9,0l1.7,1c1.4.8,1,1.6,0,2.2l-4,2.3a3.52,3.52,0,0,1-3.7,0l-1.7-1c-1.2-.7-1.3-1.5,0-2.2Zm-2.2,3.8,1,.6a1.36,1.36,0,0,0,1.5,0l3.5-2c.5-.3.5-.6,0-.8l-1.1-.6a1.34,1.34,0,0,0-1.5,0l-3.5,2C302.7,187.7,303.1,188,303.4,188.2Z"/><path class="cls-8" d="M312.2,188.2a3.88,3.88,0,0,1,3.9,0l1.7,1c1.4.8,1,1.6,0,2.2l-4,2.3a3.52,3.52,0,0,1-3.7,0l-1.7-1c-1.2-.7-1.3-1.5,0-2.2ZM310,192l1,.6a1.36,1.36,0,0,0,1.5,0l3.5-2c.5-.3.5-.6,0-.8l-1.1-.6a1.34,1.34,0,0,0-1.5,0l-3.5,2C309.3,191.5,309.6,191.8,310,192Z"/><path class="cls-8" d="M318.7,192a3.88,3.88,0,0,1,3.9,0l1.7,1c1.4.8,1,1.6,0,2.2l-4,2.3a3.52,3.52,0,0,1-3.7,0l-1.7-1c-1.2-.7-1.3-1.5,0-2.2Zm-2.1,3.8,1,.6a1.36,1.36,0,0,0,1.5,0l3.5-2c.5-.3.5-.6,0-.8l-1.1-.6a1.34,1.34,0,0,0-1.5,0l-3.5,2C315.9,195.3,316.2,195.6,316.6,195.8Z"/><path class="cls-9" d="M225.9,122.6l5.4-3.1a7.85,7.85,0,0,1,7.3,0l6,3.5c2,1.2,2,3.1,0,4.2l-5.4,3.1a7.85,7.85,0,0,1-7.3,0l-6-3.5C223.9,125.7,223.9,123.8,225.9,122.6Z"/><path class="cls-8" d="M231.5,123.8a3,3,0,0,0,1.6-.2c.4-.2.6-.6.4-.9a.78.78,0,0,0-.4-.4,2.35,2.35,0,0,0-2.3,0c-.6.4-.6,1,0,1.3A1.17,1.17,0,0,0,231.5,123.8Z"/><path class="cls-8" d="M243,123.1h-1.1c0,1.4-1,2.9-2.8,4a14.06,14.06,0,0,1-6.9,1.6v.7a16.2,16.2,0,0,0,7.7-1.8C241.9,126.3,243,124.7,243,123.1Z"/><path class="cls-8" d="M239.6,123.1h-1.1a3.2,3.2,0,0,1-1.8,2.6,9,9,0,0,1-4.4,1.1v.7a9.8,9.8,0,0,0,5.2-1.3A3.86,3.86,0,0,0,239.6,123.1Z"/><path class="cls-8" d="M236.2,123.1h-1.1a1.71,1.71,0,0,1-.8,1.2,4.55,4.55,0,0,1-2,.5v.7a5.3,5.3,0,0,0,2.8-.7A2.23,2.23,0,0,0,236.2,123.1Z"/><path class="cls-8" d="M261.4,140.4l-2,1.1a8.05,8.05,0,0,1-7.4,0l-8.8-5.1c-2-1.2-2-3.1,0-4.3l5.4-3.1a8.05,8.05,0,0,1,7.4,0l8.8,5.1c2,1.2,2,3.1,0,4.3l-2,1.1Z"/><polygon class="cls-10" points="259.8 131.3 256.9 131.5 252.9 133.8 246.7 130.2 247.7 129.7 252.9 132.7 256.3 130.8 258.7 130.6 259.8 131.3"/><polygon class="cls-10" points="247.1 138.7 245.9 138 246.2 136.6 249.6 134.7 244.3 131.6 245.3 131.1 251.5 134.7 247.5 137 247.1 138.7"/><polygon class="cls-10" points="261.4 140.4 260.5 140.9 255.2 137.9 251.8 139.8 249.5 140 248.3 139.4 251.2 139.1 255.2 136.8 261.4 140.4"/><polygon class="cls-10" points="263.8 139 262.9 139.6 256.6 136 260.6 133.7 261.1 132 262.2 132.7 261.9 134 258.5 136 263.8 139"/><polygon class="cls-8" points="241.4 113.6 275.8 133.5 284.6 128.4 250.3 108.5 241.4 113.6"/><path class="cls-8" d="M295.2,200.5a14.63,14.63,0,0,1-13.5,0c-3.7-2.1-3.7-5.6.1-7.8a14.63,14.63,0,0,1,13.5,0C299,194.9,299,198.4,295.2,200.5Z"/><path class="cls-7" d="M305.2,206.3a14.63,14.63,0,0,1-13.5,0c-3.7-2.1-3.7-5.6.1-7.8a14.63,14.63,0,0,1,13.5,0C309,200.7,309,204.2,305.2,206.3Z"/><path class="cls-8" d="M328.1,151.4a6.25,6.25,0,0,1,1.7,1.3l-.9.5s-.9-.6-1.6-1.1-1.3-.5-3.1.5c-1.3.8-1.7,1.2-.8,1.8s1.8,1,1.8,1l-.9.5a8.41,8.41,0,0,1-2.2-1c-1.4-.8-.8-1.8,1-2.8C325.1,150.9,326.6,150.5,328.1,151.4Z"/><path class="cls-8" d="M329,153.8l.9.5-.4.4a3.66,3.66,0,0,1,1.8.4,1.38,1.38,0,0,1,.4.3l-1.1.6a5.92,5.92,0,0,0-.6-.4,2,2,0,0,0-1.5-.3l-2.7,1.5-1.1-.6Z"/><path class="cls-8" d="M333.9,156.6c1.2.7,1.6,1.1.2,1.9a2,2,0,0,1-2.2-.1l-1.3-.8c-.8.4-.5.6.1,1a8,8,0,0,0,1.6.8l-.7.4a10.44,10.44,0,0,1-2.4-1.1c-1.1-.6-.8-1.2.8-2C331.8,155.7,332.6,155.8,333.9,156.6Zm-1.4,1.2a.85.85,0,0,0,.7,0c.5-.3.6-.4,0-.7s-.8-.4-1.7.1Z"/><path class="cls-8" d="M337.6,158.7a2.93,2.93,0,0,1,1,.9l2.2-1.3,1.1.6-6.2,3.6-.9-.5.2-.4a3.69,3.69,0,0,1-1.7-.5c-1-.6-.5-1.3.8-2S336.5,158,337.6,158.7Zm-3.1,2.1a2.84,2.84,0,0,0,1.2.4l2.1-1.2a6.53,6.53,0,0,0-.8-.7c-.3-.2-.7-.2-1.8.4C334.3,160.3,334.2,160.6,334.5,160.8Z"/><path class="cls-8" d="M340.6,160.5l1.1.6-4.2,2.4-1.1-.6Zm1.3-.8a.3.3,0,0,1,.4,0l.8.5c.1.1.1.2,0,.2l-.7.4c-.1.1-.2.1-.4,0l-.8-.5c-.1-.1-.1-.1,0-.2Z"/><path class="cls-8" d="M341.9,161.5l.9.3,1.4-.6.9.5-1.2.7.9.5-.8.5-.9-.5-1.7,1c-.6.4-.6.5-.5.7,0,0,.3.4.4.4l-.7.4-1-.6c-.6-.4-.6-.8.5-1.5l1.9-1.1-.7-.4Z"/><path class="cls-8" d="M350.9,164.6a6.25,6.25,0,0,1,1.7,1.3l-.9.5s-.9-.6-1.6-1.1-1.3-.5-3.1.5c-1.3.8-1.7,1.2-.8,1.8s1.8,1,1.8,1l-.9.5a8.41,8.41,0,0,1-2.2-1c-1.4-.8-.8-1.8,1-2.8C347.9,164.1,349.4,163.7,350.9,164.6Z"/><path class="cls-8" d="M349,168.5a2.29,2.29,0,0,1,2.4,0l1.2.7s.3-.1.3-.2c.4-.3.3-.4,0-.6s-1.5-.8-1.8-1l.7-.4a10.2,10.2,0,0,1,2.2.9c.9.5,1.2,1,.2,1.7l-2.9,1.7-.9-.5.2-.4a5.87,5.87,0,0,1-1.8-.4c-.8-.5-.6-1-.1-1.3Zm.8,1.2a4,4,0,0,0,1.3.4l.8-.4-1.1-.5a.61.61,0,0,0-.8.1l-.2.1C349.5,169.5,349.6,169.6,349.8,169.7Z"/><path class="cls-8" d="M355.9,169.3l.9.5-.4.4a3.66,3.66,0,0,1,1.8.4,1.38,1.38,0,0,1,.4.3l-1.1.6a5.92,5.92,0,0,0-.6-.4,2,2,0,0,0-1.5-.3l-2.7,1.5-1.1-.6Z"/><path class="cls-8" d="M360.4,171.9a2.93,2.93,0,0,1,1,.9l2.2-1.3,1.1.6-6.2,3.6-.9-.5.2-.4a3.69,3.69,0,0,1-1.7-.5c-1-.6-.5-1.3.8-2S359.2,171.2,360.4,171.9Zm-3.1,2.1a2.84,2.84,0,0,0,1.2.4l2.1-1.2a6.53,6.53,0,0,0-.8-.7c-.3-.2-.7-.2-1.8.4C357.1,173.5,357,173.8,357.3,174Z"/><polygon class="cls-11" points="292.1 125.5 184.3 139.1 214.8 121.4 272.4 114.1 292.1 125.5"/><polygon class="cls-11" points="353.8 161.1 231.1 176.5 187.7 151.5 310.3 136.1 353.8 161.1"/><path class="cls-12" d="M347.5,391.7l85.7-49.5a2.72,2.72,0,0,0,0-4.7l-91.3-52.7L319.4,395.4h14.4A27.6,27.6,0,0,0,347.5,391.7Z"/><g id="smart_watch" data-name="smart watch"><g class="cls-3"><polygon class="cls-13" points="406.5 337 406.5 348.1 330.8 392 330.8 381 406.5 337"/><path class="cls-13" d="M412.4,328.7v11.1c0,3-2,6-5.9,8.3V337C410.4,334.7,412.4,331.7,412.4,328.7Z"/><polygon class="cls-14" points="302 381 302 392 137.6 297.2 137.7 286.1 302 381"/><path class="cls-14" d="M131.6,288.8V277.7c0,3,2,6.1,6,8.4v11.1C133.6,294.8,131.6,291.8,131.6,288.8Z"/><path class="cls-15" d="M330.8,381v11.1c-7.9,4.6-20.8,4.6-28.8,0V381C310,385.6,322.9,385.6,330.8,381Z"/><path class="cls-13" d="M406.4,320.3c8,4.6,8,12.1.1,16.7l-75.7,44c-7.9,4.6-20.8,4.6-28.8,0L137.7,286.1c-8-4.6-8-12.1-.1-16.7l75.7-44c7.9-4.6,20.8-4.6,28.8,0Z"/></g><path class="cls-16" d="M406.4,320.3,392,312,287.3,372.5,302,381c8,4.6,20.9,4.6,28.8,0l75.7-44C414.4,332.4,414.4,324.9,406.4,320.3Z"/><path class="cls-16" d="M242,225.4c-8-4.6-20.9-4.6-28.8,0l-75.7,44c-7.9,4.6-7.9,12.1.1,16.7l5,2.9,104.7-60.5Z"/><polygon class="cls-17" points="391.9 312 287.2 372.4 175.7 308 161.3 299.7 154 295.5 142.7 289 169.2 273.7 189.7 261.9 247.4 228.5 258.8 235.1 391.9 312"/><polygon class="cls-5" points="258.8 235.1 154 295.5 142.7 289 169.2 273.7 189.7 261.9 247.4 228.5 258.8 235.1"/><path class="cls-16" d="M177.8,276.2l-1.4.2c-.1-.1-.2-.1-.3-.2s-.3-.1-.4-.2l.4-.8a.22.22,0,0,0-.2-.2l-1.8-.3c-.2,0-.4,0-.4.1l-.4.8c-.3,0-.6.1-.9.1l-1-.6a.45.45,0,0,0-.5,0l-1.3.8a.19.19,0,0,0,0,.3l1,.6c-.1.2-.2.3-.2.5l-1.4.2c-.2,0-.3.1-.2.2l.5,1c0,.1.2.2.4.1l1.4-.2a.52.52,0,0,0,.4.2c.1.1.2.1.3.2l-.4.8a.22.22,0,0,0,.2.2l1.8.3c.2,0,.4,0,.4-.1l.3-.8c.3,0,.7-.1,1-.1l.9.5a.45.45,0,0,0,.5,0l1.3-.8a.19.19,0,0,0,0-.3l-.9-.5.3-.6,1.3-.2c.2,0,.3-.1.2-.2l-.5-1C178.2,276.3,178,276.2,177.8,276.2Zm-2.9,2.1a2.35,2.35,0,0,1-2.3,0c-.6-.4-.6-1,0-1.3a2.35,2.35,0,0,1,2.3,0C175.5,277.4,175.5,277.9,174.9,278.3Z"/><path class="cls-16" d="M202.1,256.5c-2.6,1.5-3.5,3.6-2.6,5.6l1-.2c-.8-1.7,0-3.6,2.3-5a13.07,13.07,0,0,1,8.6-1.3l.3-.6A15.48,15.48,0,0,0,202.1,256.5Z"/><path class="cls-16" d="M204.3,257.8c-1.8,1-2.4,2.5-1.8,3.8l1-.2c-.5-1.1,0-2.3,1.5-3.2a8.71,8.71,0,0,1,5.6-.9l.3-.6A10.47,10.47,0,0,0,204.3,257.8Z"/><path class="cls-16" d="M206.6,259.1c-1,.6-1.3,1.3-.9,2l1-.2a1.21,1.21,0,0,1,.7-1.5,4.29,4.29,0,0,1,2.5-.4l.3-.6A6,6,0,0,0,206.6,259.1Z"/><path class="cls-16" d="M210.3,261.2a2.12,2.12,0,0,1-1.9,0,.78.78,0,0,1-.4-.4.63.63,0,0,1,.4-.8,2,2,0,0,1,1.3-.2,1.42,1.42,0,0,1,.6.2C210.8,260.4,210.8,260.9,210.3,261.2Z"/><path class="cls-16" d="M150.2,288.6a1.87,1.87,0,0,1-.6.7l-.6-.3c.7-.4.5-.8.3-1.1l.5-.3,6.5,3.8-.7.4Z"/><path class="cls-16" d="M152.4,287.8c-1-.6-1.1-1.2-.1-1.8a2.9,2.9,0,0,1,3.1.1l3.4,1.9c1,.6,1.2,1.2.1,1.8a2.9,2.9,0,0,1-3.1-.1Zm4.1,1.6a1.74,1.74,0,0,0,1.7.1c.5-.3.4-.6-.2-1l-3.4-2a1.74,1.74,0,0,0-1.7-.1c-.5.3-.4.6.2,1Z"/><path class="cls-16" d="M157.2,285.6l.9.5-.7.4-.9-.5Zm3.6,2,.9.5-.7.4-.9-.5Z"/><path class="cls-16" d="M160.4,283.2c2,1.1.5,2.8,1.9,3.7l.1.1,2.1-1.2.7.4-2.9,1.6-.6-.3c-2.1-1.2-.3-2.7-2.1-3.8a1.72,1.72,0,0,0-1.8-.2c-.5.3-.4.7.2,1l.6.3-.7.4-.5-.3c-1-.6-1.2-1.2-.2-1.8A3.07,3.07,0,0,1,160.4,283.2Z"/><path class="cls-16" d="M164,281.1l.1.1-.7.4-.2-.1a1.74,1.74,0,0,0-1.7-.1c-.5.3-.4.7.3,1.1l1.5.8c-.3-.4-.2-.7.4-1a2.65,2.65,0,0,1,2.7.2l1,.6c1,.6,1.2,1.2.2,1.8a2.9,2.9,0,0,1-3.1-.1l-3.3-1.9c-1-.6-1.2-1.2-.2-1.8A2.93,2.93,0,0,1,164,281.1Zm.2,2.7,1,.6a1.74,1.74,0,0,0,1.7.1c.5-.3.4-.6-.2-1l-1-.6a1.74,1.74,0,0,0-1.7-.1C163.5,283.1,163.6,283.5,164.2,283.8Z"/><path class="cls-16" d="M231.1,246.6l1.3.8-.7.4-1.3-.8-2.1,1.2-.7-.4-2.5-3.8.8-.5,4.5,2.6.5-.3.7.4Zm-2.8.8,1.4-.8-3.2-1.8Z"/><path class="cls-16" d="M229.8,242.1l-2.2,1.3-.6-.4,2.9-1.7.6.4,4.2,4.4-.7.4Z"/><path class="cls-16" d="M233.4,240.4l2.1,1.2c.6.4.8.8.1,1.1a1.83,1.83,0,0,1-2-.1l-2.1-1.2c-.6-.4-.8-.8-.1-1.1A2.32,2.32,0,0,1,233.4,240.4Zm-1.4.8,2.1,1.2c.4.2.7.3,1,.1s.2-.4-.1-.6l-2.1-1.2a1.1,1.1,0,0,0-1.1-.1C231.5,240.8,231.6,241,232,241.2Zm2.5-2.6,3.9,5.2-.4.3-3.9-5.2ZM239,240l2,1.2c.6.4.8.8.1,1.1a1.83,1.83,0,0,1-2-.1l-2-1.2c-.6-.4-.7-.8-.1-1.1A1.81,1.81,0,0,1,239,240Zm-1.4.8,2.1,1.2a1.1,1.1,0,0,0,1.1.1c.3-.2.2-.4-.1-.6l-2.1-1.2c-.4-.2-.7-.3-1-.1S237.2,240.5,237.6,240.8Z"/><path class="cls-16" d="M247.3,241l-8.8-5.1,5-2.9,8.8,5.1Zm-7.4-5.1,7.5,4.3,3.6-2.1-7.5-4.3Z"/><polygon class="cls-16" points="251.7 238.1 247.3 240.6 243.7 238.5 248 236 251.7 238.1"/><polygon class="cls-16" points="242.5 234 240.3 235.3 238.9 234.5 241.2 233.2 242.5 234"/><polygon class="cls-16" points="221.3 255.3 219 256.6 214.6 254.1 216.9 252.8 221.3 255.3"/><polygon class="cls-16" points="224.6 253.4 222.3 254.7 216.3 251.2 218.5 249.9 224.6 253.4"/><polygon class="cls-16" points="227.9 251.5 225.6 252.8 216.7 247.6 219 246.3 227.9 251.5"/><path class="cls-18" d="M200.5,246.2,181.8,257a4.9,4.9,0,0,1-4.7,0h0c-1.3-.8-1.3-2,0-2.7l18.7-10.8a4.9,4.9,0,0,1,4.7,0h0C201.8,244.3,201.8,245.5,200.5,246.2Z"/><path class="cls-18" d="M209.7,238.2a7.21,7.21,0,0,0-6.7,0c-1.8,1.1-1.8,2.8,0,3.8a7.21,7.21,0,0,0,6.7,0C211.5,241,211.5,239.2,209.7,238.2Z"/><path class="cls-18" d="M173.3,259.2a4,4,0,0,0-3.4,0c-1,.5-1,1.4,0,2a4,4,0,0,0,3.4,0C174.3,260.6,174.3,259.7,173.3,259.2Z"/><ellipse class="cls-18" cx="165.7" cy="263.6" rx="2.4" ry="1.4"/><path class="cls-13" d="M347.2,361.8a4.65,4.65,0,0,1-2.1-.5l-9.8-5.7a1.71,1.71,0,0,1,0-3.2l22.3-12.9a4.46,4.46,0,0,1,4.2,0l9.8,5.7a1.71,1.71,0,0,1,0,3.2h0l-22.3,12.9A3.46,3.46,0,0,1,347.2,361.8Zm12.5-21.4a3.19,3.19,0,0,0-1.4.3L336,353.6c-.3.2-.4.3-.4.4s.1.3.4.4l9.8,5.7a3.65,3.65,0,0,0,2.9,0L371,347.2c.3-.2.4-.3.4-.4s-.1-.3-.4-.4l-9.8-5.7A3.34,3.34,0,0,0,359.7,340.4Z"/><polygon class="cls-13" points="374.3 357.9 369.1 360.9 375.5 364 375.5 357.3 374.3 357.9"/><polygon class="cls-16" points="365.7 362.9 365.7 369.6 375.5 364 369.1 360.9 365.7 362.9"/><polygon class="cls-19" points="374.3 357.9 374.3 363.4 365.7 368.4 365.7 362.9 374.3 357.9"/><polygon class="cls-20" points="211 249.6 190.6 316.7 215.1 330.8 245.8 229.4 211 249.6"/><polygon class="cls-20" points="175.7 308 189.7 261.9 169.2 273.7 161.3 299.7 175.7 308"/></g><polygon class="cls-5" points="305 283.6 232.2 325.7 226.2 322.3 299.1 280.2 305 283.6"/><g class="cls-3"><path class="cls-21" d="M289.9,254.3c-.5-.3-1-.5-1.5-.8a.35.35,0,0,1-.2-.1c-.1-.1-.3-.1-.4-.2s-.2-.1-.4-.1-.4-.1-.6-.2-.3-.1-.5-.1h0c-.1,0-.2-.1-.4-.1a.37.37,0,0,1-.3-.1c-.2,0-.4-.1-.6-.1h-.3c-.2,0-.4-.1-.7-.1a.9.9,0,0,1-.5-.1h-2.7a14.92,14.92,0,0,0-2.1.2h0c-.5.1-.9.1-1.4.2-.2,0-.5.1-.7.1a16.55,16.55,0,0,0-2.1.6c-.2.1-.5.1-.7.2s-.5.2-.7.3l-1.5.6c-.2.1-.5.2-.7.3h0a6.89,6.89,0,0,1-.8.3l-.6.3a.1.1,0,0,0-.1.1l-.6.3c-.5.3-1.1.6-1.7.9s-1.1.7-1.6,1c-.8.5-1.6,1.1-2.4,1.7-.5.4-1.1.8-1.6,1.2-.8.6-1.6,1.3-2.3,1.9a19.2,19.2,0,0,0-1.5,1.4h0a19.2,19.2,0,0,1-1.5,1.4l-1.1,1.1c-.4.4-.7.8-1.1,1.2s-.9,1.1-1.4,1.6-.9,1.1-1.4,1.6a76.88,76.88,0,0,0-12.6,22.5c-.2.7-.5,1.3-.7,2a57.05,57.05,0,0,0-2.8,17v2.8a2,2,0,0,0,.1.7h0a1.27,1.27,0,0,0,.1.6c0,.2.1.4.1.6s.1.4.1.6.1.4.1.6v.1c0,.2.1.4.1.6a11.63,11.63,0,0,0,.4,1.8c.1.2.1.4.2.6s.1.4.2.6v.1c.1.2.1.3.2.5h0c.1.2.1.4.2.5v.1l-1-.6-1-.6-1-.6-1.1-.6h0l-1-.5-.6-.3a32.4,32.4,0,0,1-1.7-10.9c-.1-20.4,14.3-45.3,32.1-55.5,5.5-3.2,10.7-4.6,15.2-4.4h0a16.18,16.18,0,0,1,6.7,1.7c.3.2.6.3.9.5l.9.5h0Z"/><path class="cls-22" d="M299.4,275a58.22,58.22,0,0,1-1.6,12.8l-6.7,3.8-4.5,2.6-8.5,4.9-19,11-3,1.7-12.6,7.3-6.7,3.8v-.1c-.1-.2-.1-.4-.2-.5h0c-.1-.2-.1-.3-.2-.5v-.1c-.1-.2-.1-.4-.2-.6s-.1-.4-.2-.6c-.1-.6-.3-1.2-.4-1.8,0-.2-.1-.4-.1-.6V318c0-.2-.1-.4-.1-.6s-.1-.4-.1-.6-.1-.4-.1-.6a1.27,1.27,0,0,0-.1-.6h0a2,2,0,0,0-.1-.7v-2.8a57.57,57.57,0,0,1,2.8-17,15.87,15.87,0,0,1,.7-2,76.88,76.88,0,0,1,12.6-22.5,10.7,10.7,0,0,1,1.4-1.6c.5-.5.9-1.1,1.4-1.6.7-.8,1.4-1.5,2.2-2.3a19.2,19.2,0,0,1,1.5-1.4h0c.5-.5,1-.9,1.5-1.4.8-.7,1.6-1.3,2.3-1.9.5-.4,1.1-.8,1.6-1.2.8-.6,1.6-1.1,2.4-1.7.5-.3,1.1-.7,1.6-1s1.1-.6,1.7-.9l.6-.3a.1.1,0,0,0,.1-.1l.6-.3a6.89,6.89,0,0,1,.8-.3h0c.2-.1.5-.2.7-.3l1.5-.6c.2-.1.5-.2.7-.3,1-.3,1.9-.6,2.9-.8.2,0,.5-.1.7-.1a6.88,6.88,0,0,1,1.3-.2h0c.7-.1,1.4-.1,2.1-.2h2.7a.9.9,0,0,1,.5.1c.2,0,.4.1.7.1h.3c.2,0,.4.1.6.1a.37.37,0,0,1,.3.1c.1,0,.2.1.4.1h0c.2,0,.3.1.5.1s.4.1.6.2.3.1.4.1a.76.76,0,0,1,.4.2.35.35,0,0,1,.2.1,10.93,10.93,0,0,1,1.5.8h.1C295.8,257.8,299.3,264.9,299.4,275Z"/><path class="cls-23" d="M293.1,278.6a43,43,0,0,1-2.1,13l-4.5,2.6-8.5,4.9-19,11-3,1.7-12.6,7.3a23.83,23.83,0,0,1-2.1-10.6c0-16.5,11.5-36.5,25.9-44.8,5.8-3.4,11.2-4.3,15.5-3C289,262.5,293.1,268.8,293.1,278.6Z"/><path class="cls-21" d="M290,277.3a45.77,45.77,0,0,1-3.5,17l-8.5,4.9-19,11-3,1.7-12.6,7.3a23.83,23.83,0,0,1-2.1-10.6c0-16.5,11.5-36.5,25.9-44.8,5.8-3.4,11.2-4.3,15.5-3C287.2,263.5,290,269.2,290,277.3Z"/></g><path class="cls-22" d="M283.4,250.6a10.55,10.55,0,0,0-2.4-.6,15.33,15.33,0,0,0-4.3-.3,30.51,30.51,0,0,0-13.6,4.4c-8.4,4.9-16.3,13.1-22.4,23.2-5.9,10-9.4,20.9-9.8,30.6a40.15,40.15,0,0,0,.3,7,23.79,23.79,0,0,0,1.4,5.7l-1-.5a27.1,27.1,0,0,1-1.1-5.1,40.87,40.87,0,0,1-.3-7.1c.4-9.9,3.9-20.9,9.9-31s14.1-18.6,22.6-23.5a30.61,30.61,0,0,1,13.9-4.5h0A16.64,16.64,0,0,1,283.4,250.6Z"/><path class="cls-22" d="M289.9,254.3c-.5-.3-1-.5-1.5-.8a.35.35,0,0,1-.2-.1c-.1-.1-.3-.1-.4-.2s-.2-.1-.4-.1-.4-.1-.6-.2-.3-.1-.5-.1h0a3.34,3.34,0,0,0-1.2-.5H285a16,16,0,0,0-3.9-1.1,27.48,27.48,0,0,0-4.1-.2,30.64,30.64,0,0,0-12.7,4.2c-8.1,4.7-15.9,12.7-21.8,22.5-5.8,9.6-9.3,20.2-9.9,29.6a50.65,50.65,0,0,0,.1,6.8,28.24,28.24,0,0,0,1.8,7.6l-1-.6a24.8,24.8,0,0,1-1.5-7,39.46,39.46,0,0,1-.1-6.9c.6-9.6,4.1-20.2,10-30s13.8-18,22-22.7a30.65,30.65,0,0,1,13-4.3,19.1,19.1,0,0,1,4.2.2,16,16,0,0,1,3.9,1.1h0Z"/><path class="cls-22" d="M284.7,252.5c-.2,0-.4-.1-.7-.1a.9.9,0,0,1-.5-.1h-2.7a14.92,14.92,0,0,0-2.1.2h0a6.15,6.15,0,0,0-1.3.1,28.89,28.89,0,0,0-11.7,4.1c-7.9,4.6-15.4,12.3-21.2,21.7-5.7,9.2-9.2,19.4-10,28.6a36.36,36.36,0,0,0,0,6.6,26.44,26.44,0,0,0,2,8.8h0c.1.2.1.4.2.5v.1l-1-.6a27,27,0,0,1-1.9-8.9,49.91,49.91,0,0,1,0-6.7c.8-9.3,4.4-19.6,10.1-29,5.9-9.6,13.5-17.4,21.5-22a30.37,30.37,0,0,1,12-4.2,25.38,25.38,0,0,1,3.9,0A27.88,27.88,0,0,1,284.7,252.5Z"/><g class="cls-3"><g class="cls-3"><path id="SVGID" class="cls-24" d="M269,295.4l2.6,1.5c.1.1.3.2.4.3a1.81,1.81,0,0,1,.4,1.4,4.9,4.9,0,0,1-.9,2.8,10.85,10.85,0,0,1-3.5,2.8,15.23,15.23,0,0,1-4.3,1.8,17.23,17.23,0,0,1-3.5.5l-2.6-1.5a16.33,16.33,0,0,0,3.5-.5,14.13,14.13,0,0,0,4.3-1.8,10.85,10.85,0,0,0,3.5-2.8,4.9,4.9,0,0,0,.9-2.8,2,2,0,0,0-.4-1.4C269.3,295.6,269.1,295.5,269,295.4Z"/><g class="cls-25"><g class="cls-3"><path class="cls-24" d="M260,306.5l-2.6-1.5a16.33,16.33,0,0,0,3.5-.5,14.13,14.13,0,0,0,4.3-1.8,10.85,10.85,0,0,0,3.5-2.8,4.9,4.9,0,0,0,.9-2.8,2,2,0,0,0-.4-1.4,1.38,1.38,0,0,0-.4-.3l2.6,1.5c.1.1.3.2.4.3a1.81,1.81,0,0,1,.4,1.4,4.9,4.9,0,0,1-.9,2.8,10.85,10.85,0,0,1-3.5,2.8,15.23,15.23,0,0,1-4.3,1.8,16.33,16.33,0,0,1-3.5.5Z"/></g></g></g><polygon class="cls-24" points="260 306.5 259 310.1 256 311.9 255.6 311.7 257.4 305 260 306.5"/><g class="cls-3"><path id="SVGID-2" data-name="SVGID" class="cls-24" d="M266,289.5l-2.6-1.5c.1.1.3.1.5.2a3.75,3.75,0,0,0,1.5,0q.9-.15,2.1-.3a21.36,21.36,0,0,1,3.4-.3,7.78,7.78,0,0,1,2.8.5c.1.1.2.1.4.2l2.6,1.5c-.1-.1-.2-.1-.4-.2a7.78,7.78,0,0,0-2.8-.5,20.41,20.41,0,0,0-3.4.3,21.11,21.11,0,0,1-2.1.3,3.75,3.75,0,0,1-1.5,0C266.3,289.6,266.2,289.5,266,289.5Z"/><g class="cls-26"><g class="cls-3"><path class="cls-24" d="M266,289.5l-2.6-1.5c.1.1.3.1.5.2a3.75,3.75,0,0,0,1.5,0q.9-.15,2.1-.3a21.36,21.36,0,0,1,3.4-.3,7.78,7.78,0,0,1,2.8.5c.1.1.2.1.4.2l2.6,1.5c-.1-.1-.2-.1-.4-.2a7.78,7.78,0,0,0-2.8-.5,20.41,20.41,0,0,0-3.4.3,21.11,21.11,0,0,1-2.1.3,3.75,3.75,0,0,1-1.5,0c-.2-.1-.3-.2-.5-.2Z"/></g></g></g><g class="cls-3"><path id="SVGID-3" data-name="SVGID" class="cls-24" d="M271.3,275.9l-2.6-1.5a24.52,24.52,0,0,1,3.8-1.5,21.58,21.58,0,0,1,2.5-.5l2.6,1.5a9.91,9.91,0,0,0-2.5.5A24.52,24.52,0,0,0,271.3,275.9Z"/><g class="cls-27"><g class="cls-3"><path class="cls-24" d="M271.3,275.9l-2.6-1.5a24.52,24.52,0,0,1,3.8-1.5,21.58,21.58,0,0,1,2.5-.5l2.6,1.5a9.91,9.91,0,0,0-2.5.5,24.52,24.52,0,0,0-3.8,1.5Z"/></g></g></g><g class="cls-3"><path id="SVGID-4" data-name="SVGID" class="cls-24" d="M260.8,296.7l-2.6-1.5a3,3,0,0,1-1.2-1.3,6.6,6.6,0,0,1-.7-3.2,12.42,12.42,0,0,1,.4-3.3,23,23,0,0,1,1.2-3.4,21,21,0,0,1,2.2-3.3,23.62,23.62,0,0,1,3.2-3.1l2.6,1.5a23.62,23.62,0,0,0-3.2,3.1,21,21,0,0,0-2.2,3.3,11.55,11.55,0,0,0-1.2,3.4,12.42,12.42,0,0,0-.4,3.3,5.63,5.63,0,0,0,.7,3.2A3.8,3.8,0,0,0,260.8,296.7Z"/><g class="cls-28"><g class="cls-3"><path class="cls-24" d="M260.8,296.7l-2.6-1.5a3,3,0,0,1-1.2-1.3,6.6,6.6,0,0,1-.7-3.2,12.42,12.42,0,0,1,.4-3.3,23,23,0,0,1,1.2-3.4,21,21,0,0,1,2.2-3.3,23.62,23.62,0,0,1,3.2-3.1l2.6,1.5a23.62,23.62,0,0,0-3.2,3.1,21,21,0,0,0-2.2,3.3,11.55,11.55,0,0,0-1.2,3.4,12.42,12.42,0,0,0-.4,3.3,5.63,5.63,0,0,0,.7,3.2,3.8,3.8,0,0,0,1.2,1.3Z"/></g></g></g><path class="cls-22" d="M278.8,294.7a11.48,11.48,0,0,1-.4,3.1,7.37,7.37,0,0,1-.4,1.4l-19,11,1-3.6a16.33,16.33,0,0,0,3.5-.5,14.13,14.13,0,0,0,4.3-1.8,10.85,10.85,0,0,0,3.5-2.8,4.9,4.9,0,0,0,.9-2.8,2,2,0,0,0-.4-1.4,2,2,0,0,0-1.1-.6,5.4,5.4,0,0,0-1.8,0c-.7.1-1.6.2-2.5.4l-2.7.3a8.75,8.75,0,0,1-2.4-.3,3.53,3.53,0,0,1-1.7-1.5,6.6,6.6,0,0,1-.7-3.2,12.42,12.42,0,0,1,.4-3.3,23,23,0,0,1,1.2-3.4,21,21,0,0,1,2.2-3.3,23.62,23.62,0,0,1,3.2-3.1v-5.2l5.3-3.1v5a24.52,24.52,0,0,1,3.8-1.5,21.58,21.58,0,0,1,2.5-.5l-1.3,6.6a15.56,15.56,0,0,0-3.2.7,30.87,30.87,0,0,0-3.9,1.7,8.19,8.19,0,0,0-2.9,2.5,4.54,4.54,0,0,0-.9,2.6,2.13,2.13,0,0,0,.3,1.2,1.35,1.35,0,0,0,.9.5,3.75,3.75,0,0,0,1.5,0q.9-.15,2.1-.3a21.36,21.36,0,0,1,3.4-.3,7.78,7.78,0,0,1,2.8.5,3.32,3.32,0,0,1,1.8,1.7A6,6,0,0,1,278.8,294.7Z"/><polygon class="cls-24" points="266 279.1 263.4 277.6 263.4 272.4 266 273.9 266 279.1"/><polygon class="cls-24" points="266 273.9 263.4 272.4 268.7 269.3 271.3 270.8 266 273.9"/></g><path class="cls-9" d="M331.2,313.1c-11-6.4-28.9-6.4-39.9,0s-11,16.7,0,23,28.9,6.4,39.9,0S342.2,319.5,331.2,313.1Z"/><path class="cls-16" d="M318.2,335.7H318l-17.1-1.4a2.51,2.51,0,1,1,.4-5l13.7,1.1-4.3-18.2a2.47,2.47,0,0,1,4.8-1.2l5.1,21.5a2.47,2.47,0,0,1-.5,2.2A2.28,2.28,0,0,1,318.2,335.7Z"/><g class="cls-2"><g class="cls-3"><polygon class="cls-29" points="239.3 192.3 205.6 177.5 171.4 157.6 149.2 170.4 129.9 181.6 112.1 191.9 69.6 216.4 49.1 228.2 114.3 269.6 123.5 269.6 189.6 231.4 232.1 206.9 248.2 197.5 239.3 192.3"/></g></g><polygon class="cls-5" points="166.2 151 242.7 192.8 242.7 195.4 114.2 269.6 114.2 179.9 166.2 151"/><polygon class="cls-7" points="114.2 179.9 114.2 269.6 37.7 225.1 37.7 222.6 114.2 179.9"/><g class="cls-3"><polygon class="cls-10" points="37.7 222.6 114.2 267 185.3 225.9 230 200.2 242.7 192.8 233.4 187.4 202.1 169.2 166.2 148.4 142.9 161.8 122.6 173.5 103.9 184.4 59.3 210.1 37.7 222.6"/></g><path class="cls-8" d="M88.9,244c-1.3-.7-1.2-1.6,0-2.3l1.8-1a3.68,3.68,0,0,1,3.8,0l4,2.3c1.3.7,1.2,1.5,0,2.2l-1.8,1a3.66,3.66,0,0,1-3.9,0Zm6.9,1.3,1-.6c.5-.3.6-.6,0-.9l-3.6-2.1a1.36,1.36,0,0,0-1.5,0l-1.1.6c-.6.4-.3.7,0,.9l3.6,2.1A1.52,1.52,0,0,0,95.8,245.3Z"/><path class="cls-8" d="M95.7,240.1c-1.3-.7-1.2-1.6,0-2.3l1.8-1a3.68,3.68,0,0,1,3.8,0l4,2.3c1.3.7,1.2,1.5,0,2.2l-1.8,1a3.66,3.66,0,0,1-3.9,0Zm6.8,1.3,1-.6c.5-.3.6-.6,0-.9l-3.6-2.1a1.36,1.36,0,0,0-1.5,0l-1.1.6c-.6.4-.3.7,0,.9l3.6,2.1A1.51,1.51,0,0,0,102.5,241.4Z"/><path class="cls-8" d="M102.4,236.3c-1.3-.7-1.2-1.6,0-2.3l1.8-1a3.68,3.68,0,0,1,3.8,0l4,2.3c1.3.7,1.2,1.5,0,2.2l-1.8,1a3.66,3.66,0,0,1-3.9,0Zm6.8,1.2,1-.6c.5-.3.6-.6,0-.9l-3.6-2.1a1.36,1.36,0,0,0-1.5,0l-1.1.6c-.6.4-.3.7,0,.9l3.6,2.1A1.49,1.49,0,0,0,109.2,237.5Z"/><path class="cls-8" d="M109.1,232.4c-1.3-.7-1.2-1.6,0-2.3l1.8-1a3.68,3.68,0,0,1,3.8,0l4,2.3c1.3.7,1.2,1.5,0,2.2l-1.8,1a3.66,3.66,0,0,1-3.9,0Zm6.8,1.3,1-.6c.5-.3.6-.6,0-.9l-3.6-2.1a1.36,1.36,0,0,0-1.5,0l-1.1.6c-.6.4-.3.7,0,.9l3.6,2.1A1.49,1.49,0,0,0,115.9,233.7Z"/><path class="cls-8" d="M118.5,227c-1.3-.7-1.2-1.6,0-2.3l1.8-1a3.68,3.68,0,0,1,3.8,0l4,2.3c1.3.7,1.2,1.5,0,2.2l-1.8,1a3.66,3.66,0,0,1-3.9,0Zm6.8,1.2,1-.6c.5-.3.6-.6,0-.9l-3.6-2.1a1.36,1.36,0,0,0-1.5,0l-1.1.6c-.6.4-.3.7,0,.9l3.6,2.1A1.49,1.49,0,0,0,125.3,228.2Z"/><path class="cls-8" d="M125.3,223.1c-1.3-.7-1.2-1.6,0-2.3l1.8-1a3.68,3.68,0,0,1,3.8,0l4,2.3c1.3.7,1.2,1.5,0,2.2l-1.8,1a3.66,3.66,0,0,1-3.9,0Zm6.8,1.2,1-.6c.5-.3.6-.6,0-.9l-3.6-2.1a1.36,1.36,0,0,0-1.5,0l-1.1.6c-.6.4-.3.7,0,.9l3.6,2.1A1.34,1.34,0,0,0,132.1,224.3Z"/><path class="cls-8" d="M132,219.2c-1.3-.7-1.2-1.6,0-2.3l1.8-1a3.68,3.68,0,0,1,3.8,0l4,2.3c1.3.7,1.2,1.5,0,2.2l-1.8,1a3.66,3.66,0,0,1-3.9,0Zm6.8,1.3,1-.6c.5-.3.6-.6,0-.9l-3.6-2.1a1.36,1.36,0,0,0-1.5,0l-1.1.6c-.6.4-.3.7,0,.9l3.6,2.1A1.51,1.51,0,0,0,138.8,220.5Z"/><path class="cls-8" d="M138.7,215.3c-1.3-.7-1.2-1.6,0-2.3l1.8-1a3.68,3.68,0,0,1,3.8,0l4,2.3c1.3.7,1.2,1.5,0,2.2l-1.8,1a3.66,3.66,0,0,1-3.9,0Zm6.8,1.3,1-.6c.5-.3.6-.6,0-.9L143,213a1.36,1.36,0,0,0-1.5,0l-1.1.6c-.6.4-.3.7,0,.9l3.6,2.1A1.34,1.34,0,0,0,145.5,216.6Z"/><path class="cls-8" d="M148.1,209.9c-1.3-.7-1.2-1.6,0-2.3l1.8-1a3.68,3.68,0,0,1,3.8,0l4,2.3c1.3.7,1.2,1.5,0,2.2l-1.8,1a3.66,3.66,0,0,1-3.9,0Zm6.8,1.3,1-.6c.5-.3.6-.6,0-.9l-3.6-2.1a1.36,1.36,0,0,0-1.5,0l-1.1.6c-.6.4-.3.7,0,.9l3.6,2.1A1.75,1.75,0,0,0,154.9,211.2Z"/><path class="cls-8" d="M154.8,206c-1.3-.7-1.2-1.6,0-2.3l1.8-1a3.68,3.68,0,0,1,3.8,0l4,2.3c1.3.7,1.2,1.5,0,2.2l-1.8,1a3.66,3.66,0,0,1-3.9,0Zm6.9,1.3,1-.6c.5-.3.6-.6,0-.9l-3.6-2.1a1.36,1.36,0,0,0-1.5,0l-1.1.6c-.6.4-.3.7,0,.9l3.6,2.1A1.52,1.52,0,0,0,161.7,207.3Z"/><path class="cls-8" d="M161.6,202.1c-1.3-.7-1.2-1.6,0-2.3l1.8-1a3.68,3.68,0,0,1,3.8,0l4,2.3c1.3.7,1.2,1.5,0,2.2l-1.8,1a3.66,3.66,0,0,1-3.9,0Zm6.8,1.3,1-.6c.5-.3.6-.6,0-.9l-3.6-2.1a1.36,1.36,0,0,0-1.5,0l-1.1.6c-.6.4-.3.7,0,.9l3.6,2.1A1.51,1.51,0,0,0,168.4,203.4Z"/><path class="cls-8" d="M168.3,198.2c-1.3-.7-1.2-1.6,0-2.3l1.8-1a3.68,3.68,0,0,1,3.8,0l4,2.3c1.3.7,1.2,1.5,0,2.2l-1.8,1a3.66,3.66,0,0,1-3.9,0Zm6.8,1.3,1-.6c.5-.3.6-.6,0-.9l-3.6-2.1a1.36,1.36,0,0,0-1.5,0l-1.1.6c-.6.4-.3.7,0,.9l3.6,2.1A1.51,1.51,0,0,0,175.1,199.5Z"/><path class="cls-8" d="M177.7,192.8c-1.3-.7-1.2-1.6,0-2.3l1.8-1a3.68,3.68,0,0,1,3.8,0l4,2.3c1.3.7,1.2,1.5,0,2.2l-1.8,1a3.66,3.66,0,0,1-3.9,0Zm6.8,1.3,1-.6c.5-.3.6-.6,0-.9l-3.6-2.1a1.36,1.36,0,0,0-1.5,0l-1.1.6c-.6.4-.3.7,0,.9l3.6,2.1A1.51,1.51,0,0,0,184.5,194.1Z"/><path class="cls-8" d="M184.4,188.9c-1.3-.7-1.2-1.6,0-2.3l1.8-1a3.68,3.68,0,0,1,3.8,0l4,2.3c1.3.7,1.2,1.5,0,2.2l-1.8,1a3.66,3.66,0,0,1-3.9,0Zm6.8,1.3,1-.6c.5-.3.6-.6,0-.9l-3.6-2.1a1.36,1.36,0,0,0-1.5,0l-1.1.6c-.6.4-.3.7,0,.9l3.6,2.1A1.49,1.49,0,0,0,191.2,190.2Z"/><path class="cls-8" d="M191.1,185c-1.3-.7-1.2-1.6,0-2.3l1.8-1a3.68,3.68,0,0,1,3.8,0l4,2.3c1.3.7,1.2,1.5,0,2.2l-1.8,1a3.66,3.66,0,0,1-3.9,0Zm6.9,1.3,1-.6c.5-.3.6-.6,0-.9l-3.6-2.1a1.36,1.36,0,0,0-1.5,0l-1.1.6c-.6.4-.3.7,0,.9l3.6,2.1A1.52,1.52,0,0,0,198,186.3Z"/><path class="cls-8" d="M197.9,181.1c-1.3-.7-1.2-1.6,0-2.3l1.8-1a3.68,3.68,0,0,1,3.8,0l4,2.3c1.3.7,1.2,1.5,0,2.2l-1.8,1a3.66,3.66,0,0,1-3.9,0Zm6.8,1.3,1-.6c.5-.3.6-.6,0-.9l-3.6-2.1a1.36,1.36,0,0,0-1.5,0l-1.1.6c-.6.4-.3.7,0,.9l3.6,2.1A1.51,1.51,0,0,0,204.7,182.4Z"/><path class="cls-9" d="M74.9,235.9l-5.5-3.2c-2.1-1.2-2.1-3.1,0-4.3l6.1-3.5a8.26,8.26,0,0,1,7.5,0l5.5,3.2c2.1,1.2,2.1,3.1,0,4.3l-6.1,3.5A8.26,8.26,0,0,1,74.9,235.9Z"/><path class="cls-8" d="M77.1,232.7a.74.74,0,0,0-.4-.9,2.13,2.13,0,0,0-1.6-.2,1.45,1.45,0,0,0-.7.2.77.77,0,0,0,0,1.4,2.35,2.35,0,0,0,2.3,0C76.9,233,77,232.8,77.1,232.7Z"/><path class="cls-8" d="M75.8,225.9v.7a14.5,14.5,0,0,1,7,1.7c1.9,1.1,2.9,2.6,2.9,4h1.2c0-1.6-1.1-3.3-3.2-4.5A16.77,16.77,0,0,0,75.8,225.9Z"/><path class="cls-8" d="M75.8,227.9v.7a9.36,9.36,0,0,1,4.5,1.1,3.13,3.13,0,0,1,1.9,2.6h1.2c0-1.1-.7-2.2-2.2-3.1A10.54,10.54,0,0,0,75.8,227.9Z"/><path class="cls-8" d="M75.8,229.9v.7a5,5,0,0,1,2.1.5,1.47,1.47,0,0,1,.9,1.2H80a2.13,2.13,0,0,0-1.2-1.7A5.79,5.79,0,0,0,75.8,229.9Z"/><path class="cls-8" d="M106.5,215l2,1.2c2.1,1.2,2.1,3.2,0,4.3l-9,5.2a8.26,8.26,0,0,1-7.5,0l-5.5-3.2c-2.1-1.2-2.1-3.2,0-4.3l9-5.2a8.26,8.26,0,0,1,7.5,0l2,1.2Z"/><polygon class="cls-10" points="90.3 215.9 90.8 217.6 94.9 220 88.5 223.7 87.5 223.1 92.9 220 89.5 218 89.1 216.6 90.3 215.9"/><polygon class="cls-10" points="103.4 223.5 102.2 224.2 99.8 224 96.3 222 90.9 225.1 90 224.5 96.3 220.9 100.4 223.2 103.4 223.5"/><polygon class="cls-10" points="106.5 215 107.4 215.5 102 218.7 105.5 220.7 105.8 222 104.6 222.7 104.2 221 100.1 218.7 106.5 215"/><polygon class="cls-10" points="104 213.6 105 214.1 98.6 217.8 94.5 215.4 91.6 215.2 92.8 214.5 95.2 214.7 98.6 216.7 104 213.6"/><polygon class="cls-8" points="59.1 226.8 94.2 206.5 85.2 201.3 50 221.6 59.1 226.8"/><path class="cls-8" d="M213,195c3.8,2.2,3.9,5.8.1,8a15.25,15.25,0,0,1-13.8,0c-3.8-2.2-3.9-5.8-.1-8A15.25,15.25,0,0,1,213,195Z"/><path class="cls-7" d="M223.2,189.1c3.8,2.2,3.9,5.8.1,8a15.25,15.25,0,0,1-13.8,0c-3.8-2.2-3.9-5.8-.1-8A15.25,15.25,0,0,1,223.2,189.1Z"/><path class="cls-8" d="M125.9,175.6a7.66,7.66,0,0,1,2.3-1l.9.5a19.64,19.64,0,0,0-1.9,1c-.8.5-.9.8.8,1.8,1.3.8,2.2,1,3.1.5s1.7-1.1,1.7-1.1l.9.5a10.58,10.58,0,0,1-1.8,1.3c-1.5.8-3.1.5-5-.6S124.3,176.6,125.9,175.6Z"/><path class="cls-8" d="M130.2,175.1l.9-.5.7.2a1.11,1.11,0,0,1,.6-1,1.69,1.69,0,0,1,.5-.2l1.1.6a3.33,3.33,0,0,1-.6.3c-.5.3-.7.5-.6.9l2.7,1.6-1.1.6Z"/><path class="cls-8" d="M135.2,172.2c1.2-.7,1.9-1,3.4-.1.8.4.7.9-.1,1.3l-1.4.8a1.5,1.5,0,0,0,1.7,0,9.74,9.74,0,0,0,1.5-1l.8.4a7.84,7.84,0,0,1-2,1.4c-1.1.6-2,.4-3.6-.5C133.6,173.5,133.8,173,135.2,172.2Zm2.2.9a.21.21,0,0,0,0-.4c-.5-.3-.7-.3-1.3,0s-.8.5.2,1Z"/><path class="cls-8" d="M138.9,170a5.94,5.94,0,0,1,1.6-.6l-2.3-1.3,1.1-.6,6.4,3.7-.9.5-.6-.1a1.43,1.43,0,0,1-.8,1c-1,.6-2.2.3-3.6-.5S137.7,170.7,138.9,170Zm3.7,1.9a1.54,1.54,0,0,0,.7-.7l-2.1-1.2a6.12,6.12,0,0,0-1.2.5c-.4.2-.4.4.7,1.1C141.8,172,142.3,172.1,142.6,171.9Z"/><path class="cls-8" d="M140.7,167.5c-.1-.1-.1-.2,0-.2l.8-.5a.3.3,0,0,1,.4,0l.7.4c.1.1.1.1,0,.2l-.8.5a.3.3,0,0,1-.4,0Zm1.4.8,1.1-.6,4.3,2.5-1.1.6Z"/><path class="cls-8" d="M143.9,167.5l.5-.5-1-.8.9-.5,1.2.7,1-.6.9.5-1,.6,1.7,1c.6.4.9.4,1.2.3l.7-.2.7.4-1,.6c-.6.4-1.4.4-2.6-.3l-1.9-1.1-.7.4Z"/><path class="cls-8" d="M149.3,162.2a7.66,7.66,0,0,1,2.3-1l.9.5a19.64,19.64,0,0,0-1.9,1c-.8.5-.9.8.8,1.8,1.3.8,2.2,1,3.1.5s1.7-1.1,1.7-1.1l.9.5a10.58,10.58,0,0,1-1.8,1.3c-1.5.8-3.1.5-5-.6S147.7,163.1,149.3,162.2Z"/><path class="cls-8" d="M156.3,163.3c-.6-.4-.8-.9.1-1.4l1.3-.7-.3-.2a.9.9,0,0,0-1.1,0c-.4.2-1.4.9-1.7,1.1l-.7-.4a5,5,0,0,1,1.7-1.3,2.75,2.75,0,0,1,2.9-.1l3,1.7-.9.5-.7-.1a1.47,1.47,0,0,1-.8,1.1,2.29,2.29,0,0,1-2.4,0Zm2.1-.5a1.32,1.32,0,0,0,.6-.8l-.8-.5-1,.6c-.3.2-.1.3.1.5l.2.1C158,163,158.2,162.9,158.4,162.8Z"/><path class="cls-8" d="M157.7,159.2l.9-.5.7.2a1.11,1.11,0,0,1,.6-1,1.69,1.69,0,0,1,.5-.2l1.1.6a3.33,3.33,0,0,1-.6.3c-.5.3-.7.5-.6.9l2.7,1.6-1.1.6Z"/><path class="cls-8" d="M162.2,156.6a5.94,5.94,0,0,1,1.6-.6l-2.3-1.3,1.1-.6,6.4,3.7-.9.5-.6-.1a1.43,1.43,0,0,1-.8,1c-1,.6-2.2.3-3.6-.5S161,157.3,162.2,156.6Zm3.7,1.8a1.54,1.54,0,0,0,.7-.7l-2.1-1.2a6.12,6.12,0,0,0-1.2.5c-.4.2-.4.4.7,1.1C165.1,158.6,165.6,158.6,165.9,158.4Z"/><polygon class="cls-11" points="122.6 173.5 233.4 187.4 202.1 169.2 142.9 161.8 122.6 173.5"/><polygon class="cls-11" points="59.3 210.1 185.3 225.9 230 200.2 103.9 184.4 59.3 210.1"/><path class="cls-30" d="M387.1,232.3c-12.4,7.2-12.4,18.8,0,26s32.6,7.2,45,0,12.4-18.8,0-26S399.5,225.1,387.1,232.3Z"/><path class="cls-21" d="M383.6,241.9v.2h0a2.77,2.77,0,0,0,.1.9h0a8.9,8.9,0,0,0,1.2,3.8,19.16,19.16,0,0,0,7.7,7.5c11.8,6.8,30.9,6.8,42.6,0a18.82,18.82,0,0,0,7.4-7.1h0a12,12,0,0,0,1.3-3.9,4.1,4.1,0,0,0,.1-1.1V234c0,4.4-2.9,8.9-8.8,12.3-11.7,6.8-30.8,6.8-42.6,0-5.9-3.4-8.9-7.9-8.9-12.4v6.3Z"/><g class="cls-3"><path class="cls-22" d="M435,221.8c11.8,6.8,11.9,17.9.1,24.7s-30.8,6.8-42.6,0-11.9-17.9-.1-24.7S423.2,214.9,435,221.8Z"/><path class="cls-24" d="M388.6,235.5c.5,3.3,3,6.5,7.4,9,9.9,5.7,26,5.7,35.8,0,4.3-2.5,6.7-5.7,7.2-8.9.7-4.2-1.8-8.6-7.4-11.8-9.9-5.7-26-5.7-35.8,0C390.3,226.9,387.9,231.3,388.6,235.5Z"/><path class="cls-31" d="M388.6,235.5c.5,3.3,3,6.5,7.4,9,9.9,5.7,26,5.7,35.8,0,4.3-2.5,6.7-5.7,7.2-8.9-.5-3.3-3-6.5-7.4-9-9.9-5.7-26-5.7-35.8,0C391.5,229,389.1,232.2,388.6,235.5Z"/></g><g class="cls-3"><polygon class="cls-24" points="397.8 226.8 397.8 228.8 401.2 230.8 401.2 228.8 397.8 226.8"/><polygon class="cls-24" points="397.4 232.2 397.4 234.3 402.4 236 402.3 233.9 397.4 232.2"/><g class="cls-3"><path id="SVGID-5" data-name="SVGID" class="cls-24" d="M412.3,232.5v-2a.76.76,0,0,0-.1-.4,1.44,1.44,0,0,0-.7-.6,3.29,3.29,0,0,0-2-.4,7.93,7.93,0,0,0-2.8,1A18.48,18.48,0,0,0,404,232a13.75,13.75,0,0,0-1.7,1.9v2A13.75,13.75,0,0,1,404,234a11.66,11.66,0,0,1,2.7-1.9,7.32,7.32,0,0,1,2.8-1,3.14,3.14,0,0,1,2,.4,2.17,2.17,0,0,1,.7.6A.76.76,0,0,1,412.3,232.5Z"/><g class="cls-32"><g class="cls-3"><path class="cls-24" d="M402.3,233.9v2A13.75,13.75,0,0,1,404,234a11.66,11.66,0,0,1,2.7-1.9,7.32,7.32,0,0,1,2.8-1,3.14,3.14,0,0,1,2,.4,2.17,2.17,0,0,1,.7.6c.1.1.1.2.1.4v-2a.76.76,0,0,0-.1-.4,1.44,1.44,0,0,0-.7-.6,3.29,3.29,0,0,0-2-.4,7.93,7.93,0,0,0-2.8,1A18.48,18.48,0,0,0,404,232c-.7.7-1.2,1.3-1.7,1.9Z"/></g></g></g><g class="cls-3"><path id="SVGID-6" data-name="SVGID" class="cls-24" d="M415.2,237.1v2a1.27,1.27,0,0,1,.1-.6,3.75,3.75,0,0,1,.7-1.2,13.28,13.28,0,0,1,1.2-1.6,8.85,8.85,0,0,0,1.2-1.7,4.72,4.72,0,0,0,.7-1.7v-2a3.63,3.63,0,0,1-.7,1.7c-.4.6-.8,1.2-1.2,1.7a13.28,13.28,0,0,0-1.2,1.6,8.76,8.76,0,0,0-.7,1.2A1.27,1.27,0,0,0,415.2,237.1Z"/><g class="cls-33"><g class="cls-3"><path class="cls-24" d="M415.2,237.1v2a1.27,1.27,0,0,1,.1-.6,3.75,3.75,0,0,1,.7-1.2,13.28,13.28,0,0,1,1.2-1.6,8.85,8.85,0,0,0,1.2-1.7,4.72,4.72,0,0,0,.7-1.7v-2a3.63,3.63,0,0,1-.7,1.7c-.4.6-.8,1.2-1.2,1.7a13.28,13.28,0,0,0-1.2,1.6,8.76,8.76,0,0,0-.7,1.2,1.27,1.27,0,0,0-.1.6Z"/></g></g></g><g class="cls-3"><path id="SVGID-7" data-name="SVGID" class="cls-24" d="M426.8,238.9v2a12.6,12.6,0,0,0,3.1-2.7,17.61,17.61,0,0,0,1.3-1.8v-2a17.61,17.61,0,0,1-1.3,1.8A14.84,14.84,0,0,1,426.8,238.9Z"/><g class="cls-34"><g class="cls-3"><path class="cls-24" d="M426.8,238.9v2a12.6,12.6,0,0,0,3.1-2.7,17.61,17.61,0,0,0,1.3-1.8v-2a17.61,17.61,0,0,1-1.3,1.8,14.84,14.84,0,0,1-3.1,2.7Z"/></g></g></g><g class="cls-3"><path id="SVGID-8" data-name="SVGID" class="cls-24" d="M408.4,237.7v2a3.32,3.32,0,0,0,.5,1.6,5,5,0,0,0,2,1.7,11.21,11.21,0,0,0,2.2,1,11.73,11.73,0,0,0,2.7.5,17.74,17.74,0,0,0,3.2-.2,17.53,17.53,0,0,0,3.5-1.1v-2a17.53,17.53,0,0,1-3.5,1.1,11.73,11.73,0,0,1-3.2.2,7.63,7.63,0,0,1-2.7-.5,11.21,11.21,0,0,1-2.2-1,5.88,5.88,0,0,1-2-1.7A3,3,0,0,1,408.4,237.7Z"/><g class="cls-35"><g class="cls-3"><path class="cls-24" d="M408.4,237.7v2a3.32,3.32,0,0,0,.5,1.6,5,5,0,0,0,2,1.7,11.21,11.21,0,0,0,2.2,1,11.73,11.73,0,0,0,2.7.5,17.74,17.74,0,0,0,3.2-.2,17.53,17.53,0,0,0,3.5-1.1v-2a17.53,17.53,0,0,1-3.5,1.1,11.73,11.73,0,0,1-3.2.2,7.63,7.63,0,0,1-2.7-.5,11.21,11.21,0,0,1-2.2-1,5.88,5.88,0,0,1-2-1.7,3,3,0,0,1-.5-1.6Z"/></g></g></g><polygon class="cls-24" points="422.6 241.2 422.6 243.2 426.5 245.5 426.5 243.5 422.6 241.2"/><path class="cls-22" d="M397.8,226.8l3.4,2a18,18,0,0,0-2.4,2,13.5,13.5,0,0,0-1.3,1.5l4.9,1.7a13.75,13.75,0,0,1,1.7-1.9,11.66,11.66,0,0,1,2.7-1.9,7.32,7.32,0,0,1,2.8-1,3.14,3.14,0,0,1,2,.4,2.17,2.17,0,0,1,.7.6,1.1,1.1,0,0,1,0,.8,3.74,3.74,0,0,1-.6,1c-.3.4-.6.8-1,1.3a21.65,21.65,0,0,0-1.5,2.2,6,6,0,0,0-.7,2,2.62,2.62,0,0,0,.5,1.9,5,5,0,0,0,2,1.7,11.21,11.21,0,0,0,2.2,1,11.73,11.73,0,0,0,2.7.5,17.74,17.74,0,0,0,3.2-.2,17.53,17.53,0,0,0,3.5-1.1l4,2.3,4.1-2.4-3.9-2.2a12.6,12.6,0,0,0,3.1-2.7,17.61,17.61,0,0,0,1.3-1.8l-5.1-1.4a14.58,14.58,0,0,1-1.7,2.2,13.76,13.76,0,0,1-2.9,2.2,8.26,8.26,0,0,1-3.3,1.3,3.29,3.29,0,0,1-2.2-.5,1.55,1.55,0,0,1-.8-.8,1.21,1.21,0,0,1,.1-1,3.75,3.75,0,0,1,.7-1.2,13.28,13.28,0,0,1,1.2-1.6,8.85,8.85,0,0,0,1.2-1.7,4.72,4.72,0,0,0,.7-1.7,2.49,2.49,0,0,0-.3-1.7,4.62,4.62,0,0,0-1.9-1.7,8.66,8.66,0,0,0-2.4-1,12.61,12.61,0,0,0-2.8-.5,11,11,0,0,0-3.1.2,13.85,13.85,0,0,0-3.3,1l-3.5-2Z"/><polygon class="cls-24" points="426.5 243.5 426.5 245.5 430.7 243.2 430.7 241.1 426.5 243.5"/></g><path class="cls-22" d="M383.6,241.9v.2h0c1.4,3.2,4.2,6.1,8.3,8.5,6.1,3.5,14,5.3,22,5.3s15.9-1.8,21.9-5.3c4-2.3,6.8-5.2,8.1-8.3v-1.8c-1,3.6-3.9,6.9-8.4,9.6-11.9,6.9-31.3,6.9-43.3,0-4.7-2.7-7.6-6.1-8.6-9.8Zm60.3-2.1v-1.7c-1,3.6-3.9,6.9-8.4,9.6-11.9,6.9-31.3,6.9-43.3,0-4.7-2.7-7.6-6.1-8.6-9.8v1.8c1.4,3.2,4.2,6.1,8.3,8.5,6.1,3.5,14,5.3,22,5.3s15.9-1.8,21.9-5.3C439.8,245.8,442.6,243,443.9,239.8Zm-60.2,3.3a8.9,8.9,0,0,0,1.2,3.8,22.1,22.1,0,0,0,7.1,6.3c6.1,3.5,14,5.3,22,5.3s15.9-1.8,21.9-5.3a21.61,21.61,0,0,0,6.7-5.8h0a12,12,0,0,0,1.3-3.9c-1.1,3.5-3.9,6.7-8.3,9.2-11.9,6.9-31.3,6.9-43.3,0C387.6,250,384.7,246.7,383.7,243.1Z"/><path class="cls-21" d="M388.1,232.4v.2h0a2.77,2.77,0,0,0,.1.9h0a8.9,8.9,0,0,0,1.2,3.8,19.16,19.16,0,0,0,7.7,7.5c11.8,6.8,30.9,6.8,42.6,0a18.82,18.82,0,0,0,7.4-7.1h0a12,12,0,0,0,1.3-3.9,4.1,4.1,0,0,0,.1-1.1v-8.2c0,4.4-2.9,8.9-8.8,12.3-11.7,6.8-30.8,6.8-42.6,0-5.9-3.4-8.9-7.9-8.9-12.4v6.3Z"/><g class="cls-3"><path class="cls-22" d="M439.5,212.3c11.8,6.8,11.9,17.9.1,24.7s-30.8,6.8-42.6,0-11.9-17.9-.1-24.7S427.7,205.4,439.5,212.3Z"/><path class="cls-24" d="M393,226c.5,3.3,3,6.5,7.4,9,9.9,5.7,26,5.7,35.8,0,4.3-2.5,6.7-5.7,7.2-8.9.7-4.2-1.8-8.6-7.4-11.8-9.9-5.7-26-5.7-35.8,0C394.7,217.5,392.3,221.8,393,226Z"/><path class="cls-31" d="M393,226c.5,3.3,3,6.5,7.4,9,9.9,5.7,26,5.7,35.8,0,4.3-2.5,6.7-5.7,7.2-8.9-.5-3.3-3-6.5-7.4-9-9.9-5.7-26-5.7-35.8,0C396,219.5,393.6,222.7,393,226Z"/></g><g class="cls-3"><polygon class="cls-24" points="402.2 217.3 402.2 219.3 405.6 221.3 405.6 219.3 402.2 217.3"/><polygon class="cls-24" points="401.9 222.7 401.9 224.8 406.8 226.5 406.8 224.4 401.9 222.7"/><g class="cls-3"><path id="SVGID-9" data-name="SVGID" class="cls-24" d="M416.8,223v-2a.76.76,0,0,0-.1-.4,1.44,1.44,0,0,0-.7-.6,3.29,3.29,0,0,0-2-.4,7.93,7.93,0,0,0-2.8,1,18.48,18.48,0,0,0-2.7,1.9,13.75,13.75,0,0,0-1.7,1.9v2a13.75,13.75,0,0,1,1.7-1.9,11.66,11.66,0,0,1,2.7-1.9,7.32,7.32,0,0,1,2.8-1,3.14,3.14,0,0,1,2,.4,2.17,2.17,0,0,1,.7.6C416.7,222.8,416.8,222.9,416.8,223Z"/><g class="cls-36"><g class="cls-3"><path class="cls-24" d="M406.8,224.4v2a13.75,13.75,0,0,1,1.7-1.9,11.66,11.66,0,0,1,2.7-1.9,7.32,7.32,0,0,1,2.8-1,3.14,3.14,0,0,1,2,.4,2.17,2.17,0,0,1,.7.6c.1.1.1.2.1.4v-2a.76.76,0,0,0-.1-.4,1.44,1.44,0,0,0-.7-.6,3.29,3.29,0,0,0-2-.4,7.93,7.93,0,0,0-2.8,1,18.48,18.48,0,0,0-2.7,1.9,13.75,13.75,0,0,0-1.7,1.9Z"/></g></g></g><g class="cls-3"><path id="SVGID-10" data-name="SVGID" class="cls-24" d="M419.6,227.6v2a1.27,1.27,0,0,1,.1-.6,3.75,3.75,0,0,1,.7-1.2,13.28,13.28,0,0,1,1.2-1.6,8.85,8.85,0,0,0,1.2-1.7,4.72,4.72,0,0,0,.7-1.7v-2a3.63,3.63,0,0,1-.7,1.7c-.4.6-.8,1.2-1.2,1.7a13.28,13.28,0,0,0-1.2,1.6,8.76,8.76,0,0,0-.7,1.2A1.27,1.27,0,0,0,419.6,227.6Z"/><g class="cls-37"><g class="cls-3"><path class="cls-24" d="M419.6,227.6v2a1.27,1.27,0,0,1,.1-.6,3.75,3.75,0,0,1,.7-1.2,13.28,13.28,0,0,1,1.2-1.6,8.85,8.85,0,0,0,1.2-1.7,4.72,4.72,0,0,0,.7-1.7v-2a3.63,3.63,0,0,1-.7,1.7c-.4.6-.8,1.2-1.2,1.7a13.28,13.28,0,0,0-1.2,1.6,8.76,8.76,0,0,0-.7,1.2,1.27,1.27,0,0,0-.1.6Z"/></g></g></g><g class="cls-3"><path id="SVGID-11" data-name="SVGID" class="cls-24" d="M431.2,229.4v2a12.6,12.6,0,0,0,3.1-2.7,17.61,17.61,0,0,0,1.3-1.8v-2a17.61,17.61,0,0,1-1.3,1.8A12.6,12.6,0,0,1,431.2,229.4Z"/><g class="cls-38"><g class="cls-3"><path class="cls-24" d="M431.2,229.4v2a12.6,12.6,0,0,0,3.1-2.7,17.61,17.61,0,0,0,1.3-1.8v-2a17.61,17.61,0,0,1-1.3,1.8,12.6,12.6,0,0,1-3.1,2.7Z"/></g></g></g><g class="cls-3"><path id="SVGID-12" data-name="SVGID" class="cls-24" d="M412.8,228.2v2a3.32,3.32,0,0,0,.5,1.6,5,5,0,0,0,2,1.7,11.21,11.21,0,0,0,2.2,1,11.73,11.73,0,0,0,2.7.5,12,12,0,0,0,3.2-.2,17.53,17.53,0,0,0,3.5-1.1v-2a17.53,17.53,0,0,1-3.5,1.1,11.73,11.73,0,0,1-3.2.2,7.63,7.63,0,0,1-2.7-.5,11.21,11.21,0,0,1-2.2-1,5.88,5.88,0,0,1-2-1.7A3,3,0,0,1,412.8,228.2Z"/><g class="cls-39"><g class="cls-3"><path class="cls-24" d="M412.8,228.2v2a3.32,3.32,0,0,0,.5,1.6,5,5,0,0,0,2,1.7,11.21,11.21,0,0,0,2.2,1,11.73,11.73,0,0,0,2.7.5,12,12,0,0,0,3.2-.2,17.53,17.53,0,0,0,3.5-1.1v-2a17.53,17.53,0,0,1-3.5,1.1,11.73,11.73,0,0,1-3.2.2,7.63,7.63,0,0,1-2.7-.5,11.21,11.21,0,0,1-2.2-1,5.88,5.88,0,0,1-2-1.7,3,3,0,0,1-.5-1.6Z"/></g></g></g><polygon class="cls-24" points="427 231.7 427 233.7 431 236 431 234 427 231.7"/><path class="cls-22" d="M402.2,217.3l3.4,2a18,18,0,0,0-2.4,2,13.5,13.5,0,0,0-1.3,1.5l4.9,1.7a13.75,13.75,0,0,1,1.7-1.9,11.66,11.66,0,0,1,2.7-1.9,7.32,7.32,0,0,1,2.8-1,3.14,3.14,0,0,1,2,.4,2.17,2.17,0,0,1,.7.6,1.1,1.1,0,0,1,0,.8,3.74,3.74,0,0,1-.6,1c-.3.4-.6.8-1,1.3a21.65,21.65,0,0,0-1.5,2.2,6,6,0,0,0-.7,2,2.62,2.62,0,0,0,.5,1.9,5,5,0,0,0,2,1.7,11.21,11.21,0,0,0,2.2,1,11.73,11.73,0,0,0,2.7.5,17.74,17.74,0,0,0,3.2-.2,17.53,17.53,0,0,0,3.5-1.1l4,2.3,4.1-2.4-3.9-2.2a12.6,12.6,0,0,0,3.1-2.7,17.61,17.61,0,0,0,1.3-1.8l-5.1-1.4a14.58,14.58,0,0,1-1.7,2.2,13.76,13.76,0,0,1-2.9,2.2,8.26,8.26,0,0,1-3.3,1.3,3.29,3.29,0,0,1-2.2-.5,1.55,1.55,0,0,1-.8-.8,1.21,1.21,0,0,1,.1-1,3.75,3.75,0,0,1,.7-1.2,13.28,13.28,0,0,1,1.2-1.6,8.85,8.85,0,0,0,1.2-1.7,4.72,4.72,0,0,0,.7-1.7,2.49,2.49,0,0,0-.3-1.7,4.62,4.62,0,0,0-1.9-1.7,8.66,8.66,0,0,0-2.4-1,12.61,12.61,0,0,0-2.8-.5,11,11,0,0,0-3.1.2,13.85,13.85,0,0,0-3.3,1l-3.5-2Z"/><polygon class="cls-24" points="431 234 431 236 435.1 233.7 435.1 231.6 431 234"/></g><path class="cls-22" d="M388.1,232.4v.2h0c1.4,3.2,4.2,6.1,8.3,8.5,6.1,3.5,14,5.3,22,5.3s15.9-1.8,21.9-5.3c4-2.3,6.8-5.2,8.1-8.3V231c-1,3.6-3.9,6.9-8.4,9.6-11.9,6.9-31.3,6.9-43.3,0-4.7-2.7-7.6-6.1-8.6-9.8Zm60.3-2.1v-1.7c-1,3.6-3.9,6.9-8.4,9.6-11.9,6.9-31.3,6.9-43.3,0-4.7-2.7-7.6-6.1-8.6-9.8v1.8c1.4,3.2,4.2,6.1,8.3,8.5,6.1,3.5,14,5.3,22,5.3s15.9-1.8,21.9-5.3C444.2,236.3,447,233.5,448.4,230.3Zm-60.3,3.3a8.9,8.9,0,0,0,1.2,3.8,22.1,22.1,0,0,0,7.1,6.3c6.1,3.5,14,5.3,22,5.3s15.9-1.8,21.9-5.3a21.61,21.61,0,0,0,6.7-5.8h0a12,12,0,0,0,1.3-3.9c-1.1,3.5-3.9,6.7-8.3,9.2-11.9,6.9-31.3,6.9-43.3,0C392.1,240.5,389.1,237.2,388.1,233.6Z"/><path class="cls-21" d="M377.8,222.2v.2h0a2.77,2.77,0,0,0,.1.9h0a8.9,8.9,0,0,0,1.2,3.8,19.16,19.16,0,0,0,7.7,7.5c11.8,6.8,30.9,6.8,42.6,0a18.82,18.82,0,0,0,7.4-7.1h0a12,12,0,0,0,1.3-3.9,4.1,4.1,0,0,0,.1-1.1v-8.2c0,4.4-2.9,8.9-8.8,12.3-11.7,6.8-30.8,6.8-42.6,0-5.9-3.4-8.9-7.9-8.9-12.4v6.3Z"/><g class="cls-3"><path class="cls-22" d="M429.2,202c11.8,6.8,11.9,17.9.1,24.7s-30.8,6.8-42.6,0-11.9-17.9-.1-24.7S417.4,195.2,429.2,202Z"/><path class="cls-24" d="M382.8,215.7c.5,3.3,3,6.5,7.4,9,9.9,5.7,26,5.7,35.8,0,4.3-2.5,6.7-5.7,7.2-8.9.7-4.2-1.8-8.6-7.4-11.8-9.9-5.7-26-5.7-35.8,0C384.5,207.2,382.1,211.5,382.8,215.7Z"/><path class="cls-31" d="M382.8,215.7c.5,3.3,3,6.5,7.4,9,9.9,5.7,26,5.7,35.8,0,4.3-2.5,6.7-5.7,7.2-8.9-.5-3.3-3-6.5-7.4-9-9.9-5.7-26-5.7-35.8,0C385.7,209.3,383.3,212.4,382.8,215.7Z"/></g><g class="cls-3"><polygon class="cls-24" points="392 207.1 392 209.1 395.4 211.1 395.3 209 392 207.1"/><polygon class="cls-24" points="391.6 212.5 391.6 214.5 396.5 216.2 396.5 214.2 391.6 212.5"/><g class="cls-3"><path id="SVGID-13" data-name="SVGID" class="cls-24" d="M406.5,212.8v-2a.76.76,0,0,0-.1-.4,1.44,1.44,0,0,0-.7-.6,3.29,3.29,0,0,0-2-.4,7.93,7.93,0,0,0-2.8,1,18.48,18.48,0,0,0-2.7,1.9,13.75,13.75,0,0,0-1.7,1.9v2a13.75,13.75,0,0,1,1.7-1.9,11.66,11.66,0,0,1,2.7-1.9,7.32,7.32,0,0,1,2.8-1,3.14,3.14,0,0,1,2,.4,2.17,2.17,0,0,1,.7.6A.6.6,0,0,1,406.5,212.8Z"/><g class="cls-40"><g class="cls-3"><path class="cls-24" d="M396.5,214.2v2a13.75,13.75,0,0,1,1.7-1.9,11.66,11.66,0,0,1,2.7-1.9,7.32,7.32,0,0,1,2.8-1,3.14,3.14,0,0,1,2,.4,2.17,2.17,0,0,1,.7.6c.1.1.1.2.1.4v-2a.76.76,0,0,0-.1-.4,1.44,1.44,0,0,0-.7-.6,3.29,3.29,0,0,0-2-.4,7.93,7.93,0,0,0-2.8,1,18.48,18.48,0,0,0-2.7,1.9,9.7,9.7,0,0,0-1.7,1.9Z"/></g></g></g><g class="cls-3"><path id="SVGID-14" data-name="SVGID" class="cls-24" d="M409.3,217.3v2a1.27,1.27,0,0,1,.1-.6,3.75,3.75,0,0,1,.7-1.2,13.28,13.28,0,0,1,1.2-1.6,8.85,8.85,0,0,0,1.2-1.7,4.72,4.72,0,0,0,.7-1.7v-2a3.63,3.63,0,0,1-.7,1.7c-.4.6-.8,1.2-1.2,1.7a13.28,13.28,0,0,0-1.2,1.6,8.76,8.76,0,0,0-.7,1.2A3.54,3.54,0,0,1,409.3,217.3Z"/><g class="cls-41"><g class="cls-3"><path class="cls-24" d="M409.3,217.3v2a1.27,1.27,0,0,1,.1-.6,3.75,3.75,0,0,1,.7-1.2,13.28,13.28,0,0,1,1.2-1.6,8.85,8.85,0,0,0,1.2-1.7,4.72,4.72,0,0,0,.7-1.7v-2a3.63,3.63,0,0,1-.7,1.7c-.4.6-.8,1.2-1.2,1.7a13.28,13.28,0,0,0-1.2,1.6,8.76,8.76,0,0,0-.7,1.2,3.54,3.54,0,0,1-.1.6Z"/></g></g></g><g class="cls-3"><path id="SVGID-15" data-name="SVGID" class="cls-24" d="M421,219.1v2a12.6,12.6,0,0,0,3.1-2.7,17.61,17.61,0,0,0,1.3-1.8v-2a17.61,17.61,0,0,1-1.3,1.8A12.42,12.42,0,0,1,421,219.1Z"/><g class="cls-42"><g class="cls-3"><path class="cls-24" d="M421,219.1v2a12.6,12.6,0,0,0,3.1-2.7,17.61,17.61,0,0,0,1.3-1.8v-2a17.61,17.61,0,0,1-1.3,1.8,12.42,12.42,0,0,1-3.1,2.7Z"/></g></g></g><g class="cls-3"><path id="SVGID-16" data-name="SVGID" class="cls-24" d="M402.6,218v2a3.32,3.32,0,0,0,.5,1.6,5,5,0,0,0,2,1.7,11.21,11.21,0,0,0,2.2,1,11.73,11.73,0,0,0,2.7.5,17.74,17.74,0,0,0,3.2-.2,17.53,17.53,0,0,0,3.5-1.1v-2a17.53,17.53,0,0,1-3.5,1.1,11.73,11.73,0,0,1-3.2.2,10.81,10.81,0,0,1-2.7-.5,11.21,11.21,0,0,1-2.2-1,5.88,5.88,0,0,1-2-1.7A2.52,2.52,0,0,1,402.6,218Z"/><g class="cls-43"><g class="cls-3"><path class="cls-24" d="M402.6,218v2a3.32,3.32,0,0,0,.5,1.6,5,5,0,0,0,2,1.7,11.21,11.21,0,0,0,2.2,1,11.73,11.73,0,0,0,2.7.5,17.74,17.74,0,0,0,3.2-.2,17.53,17.53,0,0,0,3.5-1.1v-2a17.53,17.53,0,0,1-3.5,1.1,11.73,11.73,0,0,1-3.2.2,10.81,10.81,0,0,1-2.7-.5,11.21,11.21,0,0,1-2.2-1,5.88,5.88,0,0,1-2-1.7,2.52,2.52,0,0,1-.5-1.6Z"/></g></g></g><polygon class="cls-24" points="416.7 221.5 416.8 223.5 420.7 225.8 420.7 223.8 416.7 221.5"/><path class="cls-22" d="M392,207.1l3.4,2a18,18,0,0,0-2.4,2,13.5,13.5,0,0,0-1.3,1.5l4.9,1.7a13.75,13.75,0,0,1,1.7-1.9,11.66,11.66,0,0,1,2.7-1.9,7.32,7.32,0,0,1,2.8-1,3.14,3.14,0,0,1,2,.4,2.17,2.17,0,0,1,.7.6,1.1,1.1,0,0,1,0,.8,3.74,3.74,0,0,1-.6,1c-.3.4-.6.8-1,1.3a21.65,21.65,0,0,0-1.5,2.2,6,6,0,0,0-.7,2,2.62,2.62,0,0,0,.5,1.9,5,5,0,0,0,2,1.7,11.21,11.21,0,0,0,2.2,1,11.73,11.73,0,0,0,2.7.5,12,12,0,0,0,3.2-.2,17.53,17.53,0,0,0,3.5-1.1l4,2.3,4.1-2.4-3.9-2.2a12.6,12.6,0,0,0,3.1-2.7,17.61,17.61,0,0,0,1.3-1.8l-5.1-1.4a14.58,14.58,0,0,1-1.7,2.2,13.76,13.76,0,0,1-2.9,2.2,8.26,8.26,0,0,1-3.3,1.3,3.29,3.29,0,0,1-2.2-.5,1.55,1.55,0,0,1-.8-.8,1.21,1.21,0,0,1,.1-1,3.75,3.75,0,0,1,.7-1.2,13.28,13.28,0,0,1,1.2-1.6,8.85,8.85,0,0,0,1.2-1.7,4.72,4.72,0,0,0,.7-1.7,2.49,2.49,0,0,0-.3-1.7,4.62,4.62,0,0,0-1.9-1.7,8.66,8.66,0,0,0-2.4-1,12.61,12.61,0,0,0-2.8-.5,11,11,0,0,0-3.1.2,13.85,13.85,0,0,0-3.3,1l-3.5-2Z"/><polygon class="cls-24" points="420.7 223.8 420.7 225.8 424.8 223.4 424.8 221.4 420.7 223.8"/></g><path class="cls-22" d="M377.8,222.2v.2h0c1.4,3.2,4.2,6.1,8.3,8.5,6.1,3.5,14,5.3,22,5.3s15.9-1.8,21.9-5.3c4-2.3,6.8-5.2,8.1-8.3v-1.8c-1,3.6-3.9,6.9-8.4,9.6-11.9,6.9-31.3,6.9-43.3,0-4.7-2.7-7.6-6.1-8.6-9.8Zm60.3-2.1v-1.7c-1,3.6-3.9,6.9-8.4,9.6-11.9,6.9-31.3,6.9-43.3,0-4.7-2.7-7.6-6.1-8.6-9.8V220c1.4,3.2,4.2,6.1,8.3,8.5,6.1,3.5,14,5.3,22,5.3S424,232,430,228.5C434,226.1,436.8,223.2,438.1,220.1Zm-60.2,3.2a8.9,8.9,0,0,0,1.2,3.8,22.1,22.1,0,0,0,7.1,6.3c6.1,3.5,14,5.3,22,5.3s15.9-1.8,21.9-5.3a21.61,21.61,0,0,0,6.7-5.8h0a12,12,0,0,0,1.3-3.9c-1.1,3.5-3.9,6.7-8.3,9.2-11.9,6.9-31.3,6.9-43.3,0C381.8,230.3,378.9,226.9,377.9,223.3Z"/><path class="cls-21" d="M379.2,212.3v.2h0a2.77,2.77,0,0,0,.1.9h0a8.9,8.9,0,0,0,1.2,3.8,19.16,19.16,0,0,0,7.7,7.5c11.8,6.8,30.9,6.8,42.6,0a18.82,18.82,0,0,0,7.4-7.1h0a12,12,0,0,0,1.3-3.9,4.1,4.1,0,0,0,.1-1.1v-8.2c0,4.4-2.9,8.9-8.8,12.3-11.7,6.8-30.8,6.8-42.6,0-5.9-3.4-8.9-7.9-8.9-12.4v6.3Z"/><g class="cls-3"><path class="cls-22" d="M430.6,192.1c11.8,6.8,11.9,17.9.1,24.7s-30.8,6.8-42.6,0-11.9-17.9-.1-24.7S418.8,185.3,430.6,192.1Z"/><path class="cls-24" d="M384.1,205.8c.5,3.3,3,6.5,7.4,9,9.9,5.7,26,5.7,35.8,0,4.3-2.5,6.7-5.7,7.2-8.9.7-4.2-1.8-8.6-7.4-11.8-9.9-5.7-26-5.7-35.8,0C385.9,197.3,383.5,201.6,384.1,205.8Z"/><path class="cls-31" d="M384.1,205.8c.5,3.3,3,6.5,7.4,9,9.9,5.7,26,5.7,35.8,0,4.3-2.5,6.7-5.7,7.2-8.9-.5-3.3-3-6.5-7.4-9-9.9-5.7-26-5.7-35.8,0C387.1,199.4,384.7,202.5,384.1,205.8Z"/></g><g class="cls-3"><polygon class="cls-24" points="393.3 197.1 393.3 199.2 396.7 201.1 396.7 199.1 393.3 197.1"/><polygon class="cls-24" points="393 202.6 393 204.6 397.9 206.3 397.9 204.3 393 202.6"/><g class="cls-3"><path id="SVGID-17" data-name="SVGID" class="cls-24" d="M407.9,202.9v-2a.76.76,0,0,0-.1-.4,1.44,1.44,0,0,0-.7-.6,3.29,3.29,0,0,0-2-.4,7.93,7.93,0,0,0-2.8,1,18.48,18.48,0,0,0-2.7,1.9,13.75,13.75,0,0,0-1.7,1.9v2a13.75,13.75,0,0,1,1.7-1.9,11.66,11.66,0,0,1,2.7-1.9,7.32,7.32,0,0,1,2.8-1,3.14,3.14,0,0,1,2,.4,2.17,2.17,0,0,1,.7.6C407.8,202.6,407.9,202.8,407.9,202.9Z"/><g class="cls-44"><g class="cls-3"><path class="cls-24" d="M397.9,204.3v2a13.75,13.75,0,0,1,1.7-1.9,11.66,11.66,0,0,1,2.7-1.9,7.32,7.32,0,0,1,2.8-1,3.14,3.14,0,0,1,2,.4,2.17,2.17,0,0,1,.7.6c.1.1.1.2.1.4v-2a.76.76,0,0,0-.1-.4,1.44,1.44,0,0,0-.7-.6,3.29,3.29,0,0,0-2-.4,7.93,7.93,0,0,0-2.8,1,18.48,18.48,0,0,0-2.7,1.9,9.7,9.7,0,0,0-1.7,1.9Z"/></g></g></g><g class="cls-3"><path id="SVGID-18" data-name="SVGID" class="cls-24" d="M410.7,207.4v2a1.27,1.27,0,0,1,.1-.6,3.75,3.75,0,0,1,.7-1.2,13.28,13.28,0,0,1,1.2-1.6,8.85,8.85,0,0,0,1.2-1.7,4.72,4.72,0,0,0,.7-1.7v-2a3.63,3.63,0,0,1-.7,1.7c-.4.6-.8,1.2-1.2,1.7a13.28,13.28,0,0,0-1.2,1.6,8.76,8.76,0,0,0-.7,1.2A1.49,1.49,0,0,0,410.7,207.4Z"/><g class="cls-45"><g class="cls-3"><path class="cls-24" d="M410.7,207.4v2a1.27,1.27,0,0,1,.1-.6,3.75,3.75,0,0,1,.7-1.2,13.28,13.28,0,0,1,1.2-1.6,8.85,8.85,0,0,0,1.2-1.7,4.72,4.72,0,0,0,.7-1.7v-2a3.63,3.63,0,0,1-.7,1.7c-.4.6-.8,1.2-1.2,1.7a13.28,13.28,0,0,0-1.2,1.6,8.76,8.76,0,0,0-.7,1.2,1.49,1.49,0,0,0-.1.6Z"/></g></g></g><g class="cls-3"><path id="SVGID-19" data-name="SVGID" class="cls-24" d="M422.3,209.2v2a12.6,12.6,0,0,0,3.1-2.7,17.61,17.61,0,0,0,1.3-1.8v-2a17.61,17.61,0,0,1-1.3,1.8A12.6,12.6,0,0,1,422.3,209.2Z"/><g class="cls-46"><g class="cls-3"><path class="cls-24" d="M422.3,209.2v2a12.6,12.6,0,0,0,3.1-2.7,17.61,17.61,0,0,0,1.3-1.8v-2a17.61,17.61,0,0,1-1.3,1.8,12.6,12.6,0,0,1-3.1,2.7Z"/></g></g></g><g class="cls-3"><path id="SVGID-20" data-name="SVGID" class="cls-24" d="M404,208.1v2a3.32,3.32,0,0,0,.5,1.6,5,5,0,0,0,2,1.7,11.21,11.21,0,0,0,2.2,1,11.73,11.73,0,0,0,2.7.5,12,12,0,0,0,3.2-.2,17.53,17.53,0,0,0,3.5-1.1v-2a17.53,17.53,0,0,1-3.5,1.1,11.73,11.73,0,0,1-3.2.2,7.63,7.63,0,0,1-2.7-.5,11.21,11.21,0,0,1-2.2-1,5.88,5.88,0,0,1-2-1.7A2.52,2.52,0,0,1,404,208.1Z"/><g class="cls-47"><g class="cls-3"><path class="cls-24" d="M404,208.1v2a3.32,3.32,0,0,0,.5,1.6,5,5,0,0,0,2,1.7,11.21,11.21,0,0,0,2.2,1,11.73,11.73,0,0,0,2.7.5,12,12,0,0,0,3.2-.2,17.53,17.53,0,0,0,3.5-1.1v-2a17.53,17.53,0,0,1-3.5,1.1,11.73,11.73,0,0,1-3.2.2,7.63,7.63,0,0,1-2.7-.5,11.21,11.21,0,0,1-2.2-1,5.88,5.88,0,0,1-2-1.7,2.52,2.52,0,0,1-.5-1.6Z"/></g></g></g><polygon class="cls-24" points="418.1 211.5 418.1 213.6 422.1 215.9 422.1 213.8 418.1 211.5"/><path class="cls-22" d="M393.3,197.1l3.4,2a18,18,0,0,0-2.4,2,13.5,13.5,0,0,0-1.3,1.5l4.9,1.7a13.75,13.75,0,0,1,1.7-1.9,11.66,11.66,0,0,1,2.7-1.9,7.32,7.32,0,0,1,2.8-1,3.14,3.14,0,0,1,2,.4,2.17,2.17,0,0,1,.7.6,1.1,1.1,0,0,1,0,.8,3.74,3.74,0,0,1-.6,1c-.3.4-.6.8-1,1.3a21.65,21.65,0,0,0-1.5,2.2,6,6,0,0,0-.7,2,2.62,2.62,0,0,0,.5,1.9,5,5,0,0,0,2,1.7,11.21,11.21,0,0,0,2.2,1,11.73,11.73,0,0,0,2.7.5,17.74,17.74,0,0,0,3.2-.2,17.53,17.53,0,0,0,3.5-1.1l4,2.3,4.1-2.4-3.9-2.2a12.6,12.6,0,0,0,3.1-2.7,17.61,17.61,0,0,0,1.3-1.8l-5.1-1.4a14.58,14.58,0,0,1-1.7,2.2,13.76,13.76,0,0,1-2.9,2.2,8.26,8.26,0,0,1-3.3,1.3,3.29,3.29,0,0,1-2.2-.5,1.55,1.55,0,0,1-.8-.8,1.21,1.21,0,0,1,.1-1,3.75,3.75,0,0,1,.7-1.2,13.28,13.28,0,0,1,1.2-1.6,8.85,8.85,0,0,0,1.2-1.7,4.72,4.72,0,0,0,.7-1.7,2.49,2.49,0,0,0-.3-1.7,4.62,4.62,0,0,0-1.9-1.7,8.66,8.66,0,0,0-2.4-1,12.61,12.61,0,0,0-2.8-.5,11,11,0,0,0-3.1.2,13.85,13.85,0,0,0-3.3,1l-3.5-2Z"/><polygon class="cls-24" points="422.1 213.8 422.1 215.9 426.2 213.5 426.2 211.5 422.1 213.8"/></g><path class="cls-22" d="M379.2,212.3v.2h0c1.4,3.2,4.2,6.1,8.3,8.5,6.1,3.5,14,5.3,22,5.3s15.9-1.8,21.9-5.3c4-2.3,6.8-5.2,8.1-8.3v-1.8c-1,3.6-3.9,6.9-8.4,9.6-11.9,6.9-31.3,6.9-43.3,0-4.7-2.7-7.6-6.1-8.6-9.8Zm60.3-2.1v-1.7c-1,3.6-3.9,6.9-8.4,9.6-11.9,6.9-31.3,6.9-43.3,0-4.7-2.7-7.6-6.1-8.6-9.8v1.8c1.4,3.2,4.2,6.1,8.3,8.5,6.1,3.5,14,5.3,22,5.3s15.9-1.8,21.9-5.3C435.4,216.2,438.1,213.3,439.5,210.2Zm-60.3,3.2a8.9,8.9,0,0,0,1.2,3.8,22.1,22.1,0,0,0,7.1,6.3c6.1,3.5,14,5.3,22,5.3s15.9-1.8,21.9-5.3a21.61,21.61,0,0,0,6.7-5.8h0a12,12,0,0,0,1.3-3.9c-1.1,3.5-3.9,6.7-8.3,9.2-11.9,6.9-31.3,6.9-43.3,0C383.2,220.4,380.2,217,379.2,213.4Z"/><path class="cls-21" d="M377.7,203.5v.2h0a2.77,2.77,0,0,0,.1.9h0a8.9,8.9,0,0,0,1.2,3.8,19.16,19.16,0,0,0,7.7,7.5c11.8,6.8,30.9,6.8,42.6,0a18.82,18.82,0,0,0,7.4-7.1h0a12,12,0,0,0,1.3-3.9,4.1,4.1,0,0,0,.1-1.1v-8.2c0,4.4-2.9,8.9-8.8,12.3-11.7,6.8-30.8,6.8-42.6,0-5.9-3.4-8.9-7.9-8.9-12.4v6.3Z"/><g class="cls-3"><path class="cls-22" d="M429.1,183.4c11.8,6.8,11.9,17.9.1,24.7s-30.8,6.8-42.6,0-11.9-17.9-.1-24.7S417.3,176.5,429.1,183.4Z"/><path class="cls-24" d="M382.6,197.1c.5,3.3,3,6.5,7.4,9,9.9,5.7,26,5.7,35.8,0,4.3-2.5,6.7-5.7,7.2-8.9.7-4.2-1.8-8.6-7.4-11.8-9.9-5.7-26-5.7-35.8,0C384.4,188.5,382,192.9,382.6,197.1Z"/><path class="cls-31" d="M382.6,197.1c.5,3.3,3,6.5,7.4,9,9.9,5.7,26,5.7,35.8,0,4.3-2.5,6.7-5.7,7.2-8.9-.5-3.3-3-6.5-7.4-9-9.9-5.7-26-5.7-35.8,0C385.6,190.6,383.2,193.8,382.6,197.1Z"/></g><g class="cls-3"><polygon class="cls-24" points="391.8 188.4 391.8 190.4 395.2 192.4 395.2 190.4 391.8 188.4"/><polygon class="cls-24" points="391.5 193.8 391.5 195.9 396.4 197.6 396.4 195.5 391.5 193.8"/><g class="cls-3"><path id="SVGID-21" data-name="SVGID" class="cls-24" d="M406.4,194.1v-2a.76.76,0,0,0-.1-.4,1.44,1.44,0,0,0-.7-.6,3.29,3.29,0,0,0-2-.4,7.93,7.93,0,0,0-2.8,1,18.48,18.48,0,0,0-2.7,1.9,13.75,13.75,0,0,0-1.7,1.9v2a13.75,13.75,0,0,1,1.7-1.9,11.66,11.66,0,0,1,2.7-1.9,7.32,7.32,0,0,1,2.8-1,3.14,3.14,0,0,1,2,.4,2.17,2.17,0,0,1,.7.6C406.3,193.9,406.4,194,406.4,194.1Z"/><g class="cls-48"><g class="cls-3"><path class="cls-24" d="M396.4,195.5v2a13.75,13.75,0,0,1,1.7-1.9,11.66,11.66,0,0,1,2.7-1.9,7.32,7.32,0,0,1,2.8-1,3.14,3.14,0,0,1,2,.4,2.17,2.17,0,0,1,.7.6c.1.1.1.2.1.4v-2a.76.76,0,0,0-.1-.4,1.44,1.44,0,0,0-.7-.6,3.29,3.29,0,0,0-2-.4,7.93,7.93,0,0,0-2.8,1,18.48,18.48,0,0,0-2.7,1.9,13.75,13.75,0,0,0-1.7,1.9Z"/></g></g></g><g class="cls-3"><path id="SVGID-22" data-name="SVGID" class="cls-24" d="M409.2,198.7v2a1.27,1.27,0,0,1,.1-.6,3.75,3.75,0,0,1,.7-1.2,13.28,13.28,0,0,1,1.2-1.6,8.85,8.85,0,0,0,1.2-1.7,4.72,4.72,0,0,0,.7-1.7v-2a3.63,3.63,0,0,1-.7,1.7c-.4.6-.8,1.2-1.2,1.7a13.28,13.28,0,0,0-1.2,1.6,8.76,8.76,0,0,0-.7,1.2A1.27,1.27,0,0,0,409.2,198.7Z"/><g class="cls-49"><g class="cls-3"><path class="cls-24" d="M409.2,198.7v2a1.27,1.27,0,0,1,.1-.6,3.75,3.75,0,0,1,.7-1.2,13.28,13.28,0,0,1,1.2-1.6,8.85,8.85,0,0,0,1.2-1.7,4.72,4.72,0,0,0,.7-1.7v-2a3.63,3.63,0,0,1-.7,1.7c-.4.6-.8,1.2-1.2,1.7a13.28,13.28,0,0,0-1.2,1.6,8.76,8.76,0,0,0-.7,1.2,1.27,1.27,0,0,0-.1.6Z"/></g></g></g><g class="cls-3"><path id="SVGID-23" data-name="SVGID" class="cls-24" d="M420.8,200.5v2a12.6,12.6,0,0,0,3.1-2.7,17.61,17.61,0,0,0,1.3-1.8v-2a17.61,17.61,0,0,1-1.3,1.8A12.6,12.6,0,0,1,420.8,200.5Z"/><g class="cls-50"><g class="cls-3"><path class="cls-24" d="M420.8,200.5v2a12.6,12.6,0,0,0,3.1-2.7,17.61,17.61,0,0,0,1.3-1.8v-2a17.61,17.61,0,0,1-1.3,1.8,12.6,12.6,0,0,1-3.1,2.7Z"/></g></g></g><g class="cls-3"><path id="SVGID-24" data-name="SVGID" class="cls-24" d="M402.5,199.3v2a3.32,3.32,0,0,0,.5,1.6,5,5,0,0,0,2,1.7,11.21,11.21,0,0,0,2.2,1,11.73,11.73,0,0,0,2.7.5,12,12,0,0,0,3.2-.2,17.53,17.53,0,0,0,3.5-1.1v-2a17.53,17.53,0,0,1-3.5,1.1,11.73,11.73,0,0,1-3.2.2,10.81,10.81,0,0,1-2.7-.5,11.21,11.21,0,0,1-2.2-1,5.88,5.88,0,0,1-2-1.7A2.35,2.35,0,0,1,402.5,199.3Z"/><g class="cls-51"><g class="cls-3"><path class="cls-24" d="M402.5,199.3v2a3.32,3.32,0,0,0,.5,1.6,5,5,0,0,0,2,1.7,11.21,11.21,0,0,0,2.2,1,11.73,11.73,0,0,0,2.7.5,12,12,0,0,0,3.2-.2,17.53,17.53,0,0,0,3.5-1.1v-2a17.53,17.53,0,0,1-3.5,1.1,11.73,11.73,0,0,1-3.2.2,10.81,10.81,0,0,1-2.7-.5,11.21,11.21,0,0,1-2.2-1,5.88,5.88,0,0,1-2-1.7,2.35,2.35,0,0,1-.5-1.6Z"/></g></g></g><polygon class="cls-24" points="416.6 202.8 416.6 204.8 420.6 207.1 420.6 205.1 416.6 202.8"/><path class="cls-22" d="M391.8,188.4l3.4,2a18,18,0,0,0-2.4,2,13.5,13.5,0,0,0-1.3,1.5l4.9,1.7a13.75,13.75,0,0,1,1.7-1.9,11.66,11.66,0,0,1,2.7-1.9,7.32,7.32,0,0,1,2.8-1,3.14,3.14,0,0,1,2,.4,2.17,2.17,0,0,1,.7.6,1.1,1.1,0,0,1,0,.8,3.74,3.74,0,0,1-.6,1c-.3.4-.6.8-1,1.3a21.65,21.65,0,0,0-1.5,2.2,6,6,0,0,0-.7,2,2.62,2.62,0,0,0,.5,1.9,5,5,0,0,0,2,1.7,11.21,11.21,0,0,0,2.2,1,11.73,11.73,0,0,0,2.7.5,12,12,0,0,0,3.2-.2,17.53,17.53,0,0,0,3.5-1.1l4,2.3,4.1-2.4-3.9-2.2a12.6,12.6,0,0,0,3.1-2.7,17.61,17.61,0,0,0,1.3-1.8l-5.1-1.4a14.58,14.58,0,0,1-1.7,2.2,13.76,13.76,0,0,1-2.9,2.2,8.26,8.26,0,0,1-3.3,1.3,3.29,3.29,0,0,1-2.2-.5,1.55,1.55,0,0,1-.8-.8,1.21,1.21,0,0,1,.1-1,3.75,3.75,0,0,1,.7-1.2,13.28,13.28,0,0,1,1.2-1.6,8.85,8.85,0,0,0,1.2-1.7,4.72,4.72,0,0,0,.7-1.7,2.49,2.49,0,0,0-.3-1.7,4.62,4.62,0,0,0-1.9-1.7,8.66,8.66,0,0,0-2.4-1,12.61,12.61,0,0,0-2.8-.5,11,11,0,0,0-3.1.2,13.85,13.85,0,0,0-3.3,1l-3.5-2Z"/><polygon class="cls-24" points="420.6 205.1 420.6 207.1 424.7 204.8 424.7 202.7 420.6 205.1"/></g><path class="cls-22" d="M377.7,203.5v.2h0c1.4,3.2,4.2,6.1,8.3,8.5,6.1,3.5,14,5.3,22,5.3s15.9-1.8,21.9-5.3c4-2.3,6.8-5.2,8.1-8.3v-1.8c-1,3.6-3.9,6.9-8.4,9.6-11.9,6.9-31.3,6.9-43.3,0-4.7-2.7-7.6-6.1-8.6-9.8Zm60.3-2.1v-1.7c-1,3.6-3.9,6.9-8.4,9.6-11.9,6.9-31.3,6.9-43.3,0-4.7-2.7-7.6-6.1-8.6-9.8v1.8c1.4,3.2,4.2,6.1,8.3,8.5,6.1,3.5,14,5.3,22,5.3s15.9-1.8,21.9-5.3Q435.9,206.2,438,201.4Zm-60.3,3.3a8.9,8.9,0,0,0,1.2,3.8,22.1,22.1,0,0,0,7.1,6.3c6.1,3.5,14,5.3,22,5.3s15.9-1.8,21.9-5.3a21.61,21.61,0,0,0,6.7-5.8h0a12,12,0,0,0,1.3-3.9c-1.1,3.5-3.9,6.7-8.3,9.2-11.9,6.9-31.3,6.9-43.3,0C381.7,211.6,378.8,208.3,377.7,204.7Z"/><path class="cls-21" d="M379,193.6v.2h0a2.77,2.77,0,0,0,.1.9h0a8.9,8.9,0,0,0,1.2,3.8A19.16,19.16,0,0,0,388,206c11.8,6.8,30.9,6.8,42.6,0a18.82,18.82,0,0,0,7.4-7.1h0a12,12,0,0,0,1.3-3.9,4.1,4.1,0,0,0,.1-1.1v-8.2c0,4.4-2.9,8.9-8.8,12.3-11.7,6.8-30.8,6.8-42.6,0-5.9-3.4-8.9-7.9-8.9-12.4v6.3Z"/><g class="cls-3"><path class="cls-22" d="M430.5,173.5c11.8,6.8,11.9,17.9.1,24.7s-30.8,6.8-42.6,0-11.9-17.9-.1-24.7S418.6,166.6,430.5,173.5Z"/><path class="cls-24" d="M384,187.1c.5,3.3,3,6.5,7.4,9,9.9,5.7,26,5.7,35.8,0,4.3-2.5,6.7-5.7,7.2-8.9.7-4.2-1.8-8.6-7.4-11.8-9.9-5.7-26-5.7-35.8,0C385.7,178.6,383.3,183,384,187.1Z"/><path class="cls-31" d="M384,187.1c.5,3.3,3,6.5,7.4,9,9.9,5.7,26,5.7,35.8,0,4.3-2.5,6.7-5.7,7.2-8.9-.5-3.3-3-6.5-7.4-9-9.9-5.7-26-5.7-35.8,0C386.9,180.7,384.5,183.9,384,187.1Z"/></g><g class="cls-3"><polygon class="cls-24" points="393.2 178.5 393.2 180.5 396.6 182.5 396.6 180.5 393.2 178.5"/><polygon class="cls-24" points="392.8 183.9 392.9 186 397.8 187.6 397.8 185.6 392.8 183.9"/><g class="cls-3"><path id="SVGID-25" data-name="SVGID" class="cls-24" d="M407.7,184.2v-2a.76.76,0,0,0-.1-.4,1.44,1.44,0,0,0-.7-.6,3.29,3.29,0,0,0-2-.4,7.93,7.93,0,0,0-2.8,1,18.48,18.48,0,0,0-2.7,1.9,13.75,13.75,0,0,0-1.7,1.9v2a13.75,13.75,0,0,1,1.7-1.9,11.66,11.66,0,0,1,2.7-1.9,7.32,7.32,0,0,1,2.8-1,3.14,3.14,0,0,1,2,.4,2.17,2.17,0,0,1,.7.6A.76.76,0,0,1,407.7,184.2Z"/><g class="cls-52"><g class="cls-3"><path class="cls-24" d="M397.8,185.6v2a13.75,13.75,0,0,1,1.7-1.9,11.66,11.66,0,0,1,2.7-1.9,7.32,7.32,0,0,1,2.8-1,3.14,3.14,0,0,1,2,.4,2.17,2.17,0,0,1,.7.6c.1.1.1.2.1.4v-2a.76.76,0,0,0-.1-.4,1.44,1.44,0,0,0-.7-.6,3.29,3.29,0,0,0-2-.4,7.93,7.93,0,0,0-2.8,1,18.48,18.48,0,0,0-2.7,1.9,13.75,13.75,0,0,0-1.7,1.9Z"/></g></g></g><g class="cls-3"><path id="SVGID-26" data-name="SVGID" class="cls-24" d="M410.6,188.8v2a1.27,1.27,0,0,1,.1-.6,3.75,3.75,0,0,1,.7-1.2,13.28,13.28,0,0,1,1.2-1.6,8.85,8.85,0,0,0,1.2-1.7,4.72,4.72,0,0,0,.7-1.7v-2a3.63,3.63,0,0,1-.7,1.7c-.4.6-.8,1.2-1.2,1.7a13.28,13.28,0,0,0-1.2,1.6,8.76,8.76,0,0,0-.7,1.2A1.27,1.27,0,0,0,410.6,188.8Z"/><g class="cls-53"><g class="cls-3"><path class="cls-24" d="M410.6,188.8v2a1.27,1.27,0,0,1,.1-.6,3.75,3.75,0,0,1,.7-1.2,13.28,13.28,0,0,1,1.2-1.6,8.85,8.85,0,0,0,1.2-1.7,4.72,4.72,0,0,0,.7-1.7v-2a3.63,3.63,0,0,1-.7,1.7c-.4.6-.8,1.2-1.2,1.7a13.28,13.28,0,0,0-1.2,1.6,8.76,8.76,0,0,0-.7,1.2,1.27,1.27,0,0,0-.1.6Z"/></g></g></g><g class="cls-3"><path id="SVGID-27" data-name="SVGID" class="cls-24" d="M422.2,190.6v2a12.6,12.6,0,0,0,3.1-2.7,17.61,17.61,0,0,0,1.3-1.8v-2a17.61,17.61,0,0,1-1.3,1.8A12.6,12.6,0,0,1,422.2,190.6Z"/><g class="cls-54"><g class="cls-3"><path class="cls-24" d="M422.2,190.6v2a12.6,12.6,0,0,0,3.1-2.7,17.61,17.61,0,0,0,1.3-1.8v-2a17.61,17.61,0,0,1-1.3,1.8,12.6,12.6,0,0,1-3.1,2.7Z"/></g></g></g><g class="cls-3"><path id="SVGID-28" data-name="SVGID" class="cls-24" d="M403.8,189.4v2a3.32,3.32,0,0,0,.5,1.6,5,5,0,0,0,2,1.7,11.21,11.21,0,0,0,2.2,1,11.73,11.73,0,0,0,2.7.5,17.74,17.74,0,0,0,3.2-.2,17.53,17.53,0,0,0,3.5-1.1v-2a17.53,17.53,0,0,1-3.5,1.1,11.73,11.73,0,0,1-3.2.2,7.63,7.63,0,0,1-2.7-.5,11.21,11.21,0,0,1-2.2-1,5.88,5.88,0,0,1-2-1.7A3,3,0,0,1,403.8,189.4Z"/><g class="cls-55"><g class="cls-3"><path class="cls-24" d="M403.8,189.4v2a3.32,3.32,0,0,0,.5,1.6,5,5,0,0,0,2,1.7,11.21,11.21,0,0,0,2.2,1,11.73,11.73,0,0,0,2.7.5,17.74,17.74,0,0,0,3.2-.2,17.53,17.53,0,0,0,3.5-1.1v-2a17.53,17.53,0,0,1-3.5,1.1,11.73,11.73,0,0,1-3.2.2,7.63,7.63,0,0,1-2.7-.5,11.21,11.21,0,0,1-2.2-1,5.88,5.88,0,0,1-2-1.7,3,3,0,0,1-.5-1.6Z"/></g></g></g><polygon class="cls-24" points="418 192.9 418 194.9 422 197.2 421.9 195.2 418 192.9"/><path class="cls-22" d="M393.2,178.5l3.4,2a18,18,0,0,0-2.4,2,13.5,13.5,0,0,0-1.3,1.5l4.9,1.7a13.75,13.75,0,0,1,1.7-1.9,11.66,11.66,0,0,1,2.7-1.9,7.32,7.32,0,0,1,2.8-1,3.14,3.14,0,0,1,2,.4,2.17,2.17,0,0,1,.7.6,1.1,1.1,0,0,1,0,.8,3.74,3.74,0,0,1-.6,1c-.3.4-.6.8-1,1.3a21.65,21.65,0,0,0-1.5,2.2,6,6,0,0,0-.7,2,2.62,2.62,0,0,0,.5,1.9,5,5,0,0,0,2,1.7,11.21,11.21,0,0,0,2.2,1,11.73,11.73,0,0,0,2.7.5,17.74,17.74,0,0,0,3.2-.2A17.53,17.53,0,0,0,418,193l4,2.3,4.1-2.4-3.9-2.2a12.6,12.6,0,0,0,3.1-2.7,17.61,17.61,0,0,0,1.3-1.8l-5.1-1.4a14.58,14.58,0,0,1-1.7,2.2,13.76,13.76,0,0,1-2.9,2.2,8.26,8.26,0,0,1-3.3,1.3,3.29,3.29,0,0,1-2.2-.5,1.55,1.55,0,0,1-.8-.8,1.21,1.21,0,0,1,.1-1,3.75,3.75,0,0,1,.7-1.2,13.28,13.28,0,0,1,1.2-1.6,8.85,8.85,0,0,0,1.2-1.7,4.72,4.72,0,0,0,.7-1.7,2.49,2.49,0,0,0-.3-1.7,4.62,4.62,0,0,0-1.9-1.7,8.66,8.66,0,0,0-2.4-1,12.61,12.61,0,0,0-2.8-.5,11,11,0,0,0-3.1.2,13.85,13.85,0,0,0-3.3,1l-3.5-2Z"/><polygon class="cls-24" points="421.9 195.2 422 197.2 426.1 194.9 426.1 192.8 421.9 195.2"/></g><path class="cls-22" d="M379,193.6v.2h0c1.4,3.2,4.2,6.1,8.3,8.5,6.1,3.5,14,5.3,22,5.3s15.9-1.8,21.9-5.3c4-2.3,6.8-5.2,8.1-8.3v-1.8c-1,3.6-3.9,6.9-8.4,9.6-11.9,6.9-31.3,6.9-43.3,0-4.7-2.7-7.6-6.1-8.6-9.8Zm60.3-2.1v-1.7c-1,3.6-3.9,6.9-8.4,9.6-11.9,6.9-31.3,6.9-43.3,0-4.7-2.7-7.6-6.1-8.6-9.8v1.8c1.4,3.2,4.2,6.1,8.3,8.5,6.1,3.5,14,5.3,22,5.3s15.9-1.8,21.9-5.3C435.2,197.5,438,194.7,439.3,191.5Zm-60.2,3.3a8.9,8.9,0,0,0,1.2,3.8,22.1,22.1,0,0,0,7.1,6.3c6.1,3.5,14,5.3,22,5.3s15.9-1.8,21.9-5.3a21.61,21.61,0,0,0,6.7-5.8h0a12,12,0,0,0,1.3-3.9c-1.1,3.5-3.9,6.7-8.3,9.2-11.9,6.9-31.3,6.9-43.3,0C383.1,201.7,380.1,198.4,379.1,194.8Z"/><path class="cls-56" d="M398.5,246.8c13.2,7.6,13.2,19.9,0,27.5s-34.5,7.6-47.6,0-13.2-19.9,0-27.5S385.4,239.2,398.5,246.8Z"/><path class="cls-21" d="M402.1,257v.2h0a3.75,3.75,0,0,1-.1,1h0a11.55,11.55,0,0,1-1.2,4,20.52,20.52,0,0,1-8.1,7.9c-12.5,7.2-32.7,7.2-45.2,0a20.18,20.18,0,0,1-7.8-7.5h0a12.47,12.47,0,0,1-1.4-4.1,4.1,4.1,0,0,1-.1-1.1v-8.6c0,4.7,3.1,9.4,9.3,13,12.4,7.2,32.6,7.2,45.2,0,6.3-3.6,9.4-8.4,9.4-13.1V257Z"/><g class="cls-3"><path class="cls-22" d="M347.7,235.6c-12.5,7.2-12.6,18.9-.1,26.2s32.6,7.2,45.2,0,12.6-18.9.1-26.2S360.2,228.4,347.7,235.6Z"/><path class="cls-24" d="M396.9,250.2c-.6,3.5-3.2,6.9-7.8,9.6-10.5,6.1-27.5,6.1-37.9,0-4.6-2.6-7.1-6-7.7-9.5-.7-4.5,1.9-9.1,7.8-12.5,10.5-6.1,27.5-6.1,37.9,0C395.1,241.1,397.6,245.7,396.9,250.2Z"/><path class="cls-31" d="M396.9,250.2c-.6,3.5-3.2,6.9-7.8,9.6-10.5,6.1-27.5,6.1-37.9,0-4.6-2.6-7.1-6-7.7-9.5.6-3.5,3.2-6.9,7.8-9.6,10.5-6.1,27.5-6.1,37.9,0C393.8,243.3,396.3,246.7,396.9,250.2Z"/></g><g class="cls-3"><polygon class="cls-24" points="387.1 241 387.1 243.1 383.6 245.2 383.6 243.1 387.1 241"/><polygon class="cls-24" points="387.5 246.7 387.5 248.9 382.3 250.7 382.3 248.5 387.5 246.7"/><g class="cls-3"><path id="SVGID-29" data-name="SVGID" class="cls-24" d="M371.8,247.1v-2.2a.6.6,0,0,1,.1-.4,2.31,2.31,0,0,1,.7-.7,3.79,3.79,0,0,1,2.2-.4,6.58,6.58,0,0,1,2.9,1.1,15.45,15.45,0,0,1,2.8,2,10.42,10.42,0,0,1,1.8,2v2.2a10.42,10.42,0,0,0-1.8-2,15.45,15.45,0,0,0-2.8-2,8.84,8.84,0,0,0-2.9-1.1,3.79,3.79,0,0,0-2.2.4,1.2,1.2,0,0,0-.7.7C371.8,246.8,371.8,246.9,371.8,247.1Z"/><g class="cls-57"><g class="cls-3"><path class="cls-24" d="M382.3,248.5v2.2a10.42,10.42,0,0,0-1.8-2,15.45,15.45,0,0,0-2.8-2,8.84,8.84,0,0,0-2.9-1.1,3.79,3.79,0,0,0-2.2.4,1.2,1.2,0,0,0-.7.7c-.1.1-.1.2-.1.4v-2.2a.6.6,0,0,1,.1-.4,2.31,2.31,0,0,1,.7-.7,3.79,3.79,0,0,1,2.2-.4,6.58,6.58,0,0,1,2.9,1.1,15.45,15.45,0,0,1,2.8,2,10.42,10.42,0,0,1,1.8,2Z"/></g></g></g><g class="cls-3"><path id="SVGID-30" data-name="SVGID" class="cls-24" d="M368.8,251.9v2.2a1.27,1.27,0,0,0-.1-.6,5.62,5.62,0,0,0-.7-1.3c-.4-.5-.8-1-1.3-1.7a20.28,20.28,0,0,1-1.3-1.8,7.1,7.1,0,0,1-.8-1.8v-2.2a4.76,4.76,0,0,0,.8,1.8,20.28,20.28,0,0,0,1.3,1.8c.5.6.9,1.2,1.3,1.7a3.35,3.35,0,0,1,.7,1.3C368.7,251.5,368.8,251.7,368.8,251.9Z"/><g class="cls-58"><g class="cls-3"><path class="cls-24" d="M368.8,251.9v2.2a1.27,1.27,0,0,0-.1-.6,5.62,5.62,0,0,0-.7-1.3c-.4-.5-.8-1-1.3-1.7a20.28,20.28,0,0,1-1.3-1.8,7.1,7.1,0,0,1-.8-1.8v-2.2a4.76,4.76,0,0,0,.8,1.8,20.28,20.28,0,0,0,1.3,1.8c.5.6.9,1.2,1.3,1.7a3.35,3.35,0,0,1,.7,1.3c0,.2.1.4.1.6Z"/></g></g></g><g class="cls-3"><path id="SVGID-31" data-name="SVGID" class="cls-24" d="M356.4,253.8V256a17.32,17.32,0,0,1-3.3-2.8,21.23,21.23,0,0,1-1.4-1.9v-2.2a14.44,14.44,0,0,0,4.7,4.7Z"/><g class="cls-59"><g class="cls-3"><path class="cls-24" d="M356.4,253.8V256a17.32,17.32,0,0,1-3.3-2.8,21.23,21.23,0,0,1-1.4-1.9v-2.2a14.44,14.44,0,0,0,4.7,4.7Z"/></g></g></g><g class="cls-3"><path id="SVGID-32" data-name="SVGID" class="cls-24" d="M375.9,252.6v2.2a3.69,3.69,0,0,1-.5,1.7,5.5,5.5,0,0,1-2.1,1.8,13.32,13.32,0,0,1-2.4,1,13.52,13.52,0,0,1-2.9.5,13.22,13.22,0,0,1-3.4-.2,19.2,19.2,0,0,1-3.7-1.1v-2.2a21.52,21.52,0,0,0,3.7,1.1,13.22,13.22,0,0,0,3.4.2,12.51,12.51,0,0,0,2.9-.5,13.32,13.32,0,0,0,2.4-1,6.51,6.51,0,0,0,2.1-1.8A4.06,4.06,0,0,0,375.9,252.6Z"/><g class="cls-60"><g class="cls-3"><path class="cls-24" d="M375.9,252.6v2.2a3.69,3.69,0,0,1-.5,1.7,5.5,5.5,0,0,1-2.1,1.8,13.32,13.32,0,0,1-2.4,1,13.52,13.52,0,0,1-2.9.5,13.22,13.22,0,0,1-3.4-.2,19.2,19.2,0,0,1-3.7-1.1v-2.2a21.52,21.52,0,0,0,3.7,1.1,13.22,13.22,0,0,0,3.4.2,12.51,12.51,0,0,0,2.9-.5,13.32,13.32,0,0,0,2.4-1,6.51,6.51,0,0,0,2.1-1.8,4.06,4.06,0,0,0,.5-1.7Z"/></g></g></g><polygon class="cls-24" points="360.9 256.2 360.9 258.4 356.7 260.8 356.7 258.7 360.9 256.2"/><path class="cls-22" d="M387.1,241l-3.6,2.1c1.1.8,1.9,1.5,2.6,2.1a15.79,15.79,0,0,1,1.4,1.6l-5.2,1.8a10.42,10.42,0,0,0-1.8-2,15.45,15.45,0,0,0-2.8-2,8.84,8.84,0,0,0-2.9-1.1,3.79,3.79,0,0,0-2.2.4,1.2,1.2,0,0,0-.7.7,1.1,1.1,0,0,0,0,.8,2.66,2.66,0,0,0,.6,1c.3.4.6.8,1.1,1.4a24.39,24.39,0,0,1,1.6,2.3,7.39,7.39,0,0,1,.8,2.2,2.88,2.88,0,0,1-.5,2,5.5,5.5,0,0,1-2.1,1.8,13.32,13.32,0,0,1-2.4,1,13.52,13.52,0,0,1-2.9.5,13.22,13.22,0,0,1-3.4-.2,19.2,19.2,0,0,1-3.7-1.1l-4.2,2.4-4.4-2.5,4.1-2.4a17.32,17.32,0,0,1-3.3-2.8,21.23,21.23,0,0,1-1.4-1.9l5.4-1.4A11.19,11.19,0,0,0,359,250a13.14,13.14,0,0,0,3.1,2.3,8,8,0,0,0,3.5,1.3,3.87,3.87,0,0,0,2.4-.5c.4-.3.7-.5.8-.8a1.21,1.21,0,0,0-.1-1,5.62,5.62,0,0,0-.7-1.3c-.4-.5-.8-1-1.3-1.7a20.28,20.28,0,0,1-1.3-1.8,7.1,7.1,0,0,1-.8-1.8,2.41,2.41,0,0,1,.4-1.8,5.14,5.14,0,0,1,2-1.8,18.89,18.89,0,0,1,2.5-1.1,9.29,9.29,0,0,1,2.9-.5,12.7,12.7,0,0,1,3.3.2,17,17,0,0,1,3.5,1l3.7-2.2Z"/><polygon class="cls-24" points="356.7 258.7 356.7 260.8 352.3 258.3 352.3 256.2 356.7 258.7"/></g><path class="cls-22" d="M402.1,255.3c-1,3.9-4.2,7.5-9.1,10.4-12.7,7.3-33.2,7.3-45.8,0-4.8-2.8-7.9-6.3-8.9-10.1v1.9c1.4,3.3,4.4,6.3,8.6,8.8,6.4,3.7,14.8,5.6,23.2,5.6s16.8-1.9,23.3-5.6c4.4-2.5,7.4-5.6,8.8-9h0V257Zm-55.2,8.3c6.4,3.7,14.8,5.6,23.2,5.6s16.8-1.9,23.3-5.6c4.4-2.5,7.4-5.6,8.8-9v-1.9c-1,3.9-4.2,7.5-9.1,10.3-12.7,7.3-33.2,7.3-45.8,0-4.8-2.8-7.9-6.3-8.9-10.1v1.8C339.7,258.1,342.6,261.1,346.9,263.6Zm46.1,4.8c-12.7,7.3-33.2,7.3-45.8,0-4.7-2.7-7.7-6.1-8.8-9.8a10.54,10.54,0,0,0,1.4,4.1h0a21.89,21.89,0,0,0,7.1,6.2c6.4,3.7,14.8,5.6,23.2,5.6s16.8-1.9,23.3-5.6a22.38,22.38,0,0,0,7.5-6.6,10.21,10.21,0,0,0,1.2-4C401,262,397.9,265.6,393,268.4Z"/><path class="cls-21" d="M397.5,247v.2h0a3.75,3.75,0,0,1-.1,1h0a11.55,11.55,0,0,1-1.2,4,20.52,20.52,0,0,1-8.1,7.9c-12.5,7.2-32.7,7.2-45.2,0a20.18,20.18,0,0,1-7.8-7.5h0a12.47,12.47,0,0,1-1.4-4.1,4.1,4.1,0,0,1-.1-1.1v-8.6c0,4.7,3.1,9.4,9.3,13,12.4,7.2,32.6,7.2,45.2,0,6.3-3.6,9.4-8.4,9.4-13.1V247Z"/><g class="cls-3"><path class="cls-22" d="M343,225.6c-12.5,7.2-12.6,18.9-.1,26.2s32.6,7.2,45.2,0,12.6-18.9.1-26.2S355.5,218.4,343,225.6Z"/><path class="cls-24" d="M392.2,240.1c-.6,3.5-3.2,6.9-7.8,9.6-10.5,6.1-27.5,6.1-37.9,0-4.6-2.6-7.1-6-7.7-9.5-.7-4.5,1.9-9.1,7.8-12.5,10.5-6.1,27.5-6.1,37.9,0C390.4,231.1,392.9,235.7,392.2,240.1Z"/><path class="cls-31" d="M392.2,240.1c-.6,3.5-3.2,6.9-7.8,9.6-10.5,6.1-27.5,6.1-37.9,0-4.6-2.6-7.1-6-7.7-9.5.6-3.5,3.2-6.9,7.8-9.6,10.5-6.1,27.5-6.1,37.9,0C389.1,233.3,391.6,236.6,392.2,240.1Z"/></g><g class="cls-3"><polygon class="cls-24" points="382.5 230.9 382.4 233.1 378.9 235.2 378.9 233 382.5 230.9"/><polygon class="cls-24" points="382.8 236.7 382.8 238.8 377.6 240.6 377.6 238.5 382.8 236.7"/><g class="cls-3"><path id="SVGID-33" data-name="SVGID" class="cls-24" d="M367.1,237v-2.2a.6.6,0,0,1,.1-.4,2.31,2.31,0,0,1,.7-.7,3.79,3.79,0,0,1,2.2-.4,6.58,6.58,0,0,1,2.9,1.1,15.45,15.45,0,0,1,2.8,2,10.42,10.42,0,0,1,1.8,2v2.2a10.42,10.42,0,0,0-1.8-2,15.45,15.45,0,0,0-2.8-2,8.84,8.84,0,0,0-2.9-1.1,3.79,3.79,0,0,0-2.2.4,1.2,1.2,0,0,0-.7.7A.6.6,0,0,0,367.1,237Z"/><g class="cls-61"><g class="cls-3"><path class="cls-24" d="M377.6,238.5v2.2a14.11,14.11,0,0,0-4.6-4,8.84,8.84,0,0,0-2.9-1.1,3.79,3.79,0,0,0-2.2.4,1.2,1.2,0,0,0-.7.7c-.1.1-.1.2-.1.4v-2.2a.6.6,0,0,1,.1-.4,2.31,2.31,0,0,1,.7-.7,3.79,3.79,0,0,1,2.2-.4,6.58,6.58,0,0,1,2.9,1.1,15.45,15.45,0,0,1,2.8,2,8.13,8.13,0,0,1,1.8,2Z"/></g></g></g><g class="cls-3"><path id="SVGID-34" data-name="SVGID" class="cls-24" d="M364.1,241.8V244a1.27,1.27,0,0,0-.1-.6,5.62,5.62,0,0,0-.7-1.3c-.4-.5-.8-1-1.3-1.7a20.28,20.28,0,0,1-1.3-1.8,7.1,7.1,0,0,1-.8-1.8v-2.2a4.76,4.76,0,0,0,.8,1.8,20.28,20.28,0,0,0,1.3,1.8c.5.6.9,1.2,1.3,1.7a3.35,3.35,0,0,1,.7,1.3C364,241.4,364.1,241.6,364.1,241.8Z"/><g class="cls-62"><g class="cls-3"><path class="cls-24" d="M364.1,241.8V244a1.27,1.27,0,0,0-.1-.6,5.62,5.62,0,0,0-.7-1.3c-.4-.5-.8-1-1.3-1.7a20.28,20.28,0,0,1-1.3-1.8,7.1,7.1,0,0,1-.8-1.8v-2.2a4.76,4.76,0,0,0,.8,1.8,20.28,20.28,0,0,0,1.3,1.8c.5.6.9,1.2,1.3,1.7a3.35,3.35,0,0,1,.7,1.3c0,.2.1.4.1.6Z"/></g></g></g><g class="cls-3"><path id="SVGID-35" data-name="SVGID" class="cls-24" d="M351.7,243.7v2.2a17.32,17.32,0,0,1-3.3-2.8,21.23,21.23,0,0,1-1.4-1.9V239a21.23,21.23,0,0,0,1.4,1.9A16.89,16.89,0,0,0,351.7,243.7Z"/><g class="cls-63"><g class="cls-3"><path class="cls-24" d="M351.7,243.7v2.2a17.32,17.32,0,0,1-3.3-2.8,21.23,21.23,0,0,1-1.4-1.9V239a21.23,21.23,0,0,0,1.4,1.9,16.89,16.89,0,0,0,3.3,2.8Z"/></g></g></g><g class="cls-3"><path id="SVGID-36" data-name="SVGID" class="cls-24" d="M371.2,242.5v2.2a3.69,3.69,0,0,1-.5,1.7,5.5,5.5,0,0,1-2.1,1.8,13.32,13.32,0,0,1-2.4,1,13.52,13.52,0,0,1-2.9.5,13.22,13.22,0,0,1-3.4-.2,19.2,19.2,0,0,1-3.7-1.1v-2.2a21.52,21.52,0,0,0,3.7,1.1,13.22,13.22,0,0,0,3.4.2,12.51,12.51,0,0,0,2.9-.5,13.32,13.32,0,0,0,2.4-1,6.51,6.51,0,0,0,2.1-1.8A3.37,3.37,0,0,0,371.2,242.5Z"/><g class="cls-64"><g class="cls-3"><path class="cls-24" d="M371.2,242.5v2.2a3.69,3.69,0,0,1-.5,1.7,5.5,5.5,0,0,1-2.1,1.8,13.32,13.32,0,0,1-2.4,1,13.52,13.52,0,0,1-2.9.5,13.22,13.22,0,0,1-3.4-.2,19.2,19.2,0,0,1-3.7-1.1v-2.2a21.52,21.52,0,0,0,3.7,1.1,13.22,13.22,0,0,0,3.4.2,12.51,12.51,0,0,0,2.9-.5,13.32,13.32,0,0,0,2.4-1,6.51,6.51,0,0,0,2.1-1.8,3.37,3.37,0,0,0,.5-1.7Z"/></g></g></g><polygon class="cls-24" points="356.2 246.2 356.2 248.3 352 250.8 352 248.6 356.2 246.2"/><path class="cls-22" d="M382.5,230.9l-3.6,2.1c1.1.8,1.9,1.5,2.6,2.1a15.79,15.79,0,0,1,1.4,1.6l-5.2,1.8a10.42,10.42,0,0,0-1.8-2,15.45,15.45,0,0,0-2.8-2,8.84,8.84,0,0,0-2.9-1.1,3.79,3.79,0,0,0-2.2.4,1.2,1.2,0,0,0-.7.7,1.1,1.1,0,0,0,0,.8,2.66,2.66,0,0,0,.6,1c.3.4.6.8,1.1,1.4a24.39,24.39,0,0,1,1.6,2.3,7.39,7.39,0,0,1,.8,2.2,2.88,2.88,0,0,1-.5,2,5.5,5.5,0,0,1-2.1,1.8,13.32,13.32,0,0,1-2.4,1,13.52,13.52,0,0,1-2.9.5,13.22,13.22,0,0,1-3.4-.2,19.2,19.2,0,0,1-3.7-1.1l-4.2,2.4-4.4-2.5,4.1-2.4a17.32,17.32,0,0,1-3.3-2.8,21.23,21.23,0,0,1-1.4-1.9l5.4-1.4a11.19,11.19,0,0,0,1.8,2.3,13.14,13.14,0,0,0,3.1,2.3,8,8,0,0,0,3.5,1.3,3.87,3.87,0,0,0,2.4-.5c.4-.3.7-.5.8-.8a1.21,1.21,0,0,0-.1-1,5.62,5.62,0,0,0-.7-1.3c-.4-.5-.8-1-1.3-1.7a20.28,20.28,0,0,1-1.3-1.8,7.1,7.1,0,0,1-.8-1.8,2.41,2.41,0,0,1,.4-1.8,5.14,5.14,0,0,1,2-1.8,18.89,18.89,0,0,1,2.5-1.1,9.29,9.29,0,0,1,2.9-.5,12.7,12.7,0,0,1,3.3.2,17,17,0,0,1,3.5,1l3.7-2.2Z"/><polygon class="cls-24" points="352 248.6 352 250.8 347.6 248.3 347.7 246.1 352 248.6"/></g><path class="cls-22" d="M397.5,245.3c-1,3.9-4.2,7.5-9.1,10.4-12.7,7.3-33.2,7.3-45.8,0-4.8-2.8-7.9-6.3-8.9-10.1v1.9c1.4,3.3,4.4,6.3,8.6,8.8,6.4,3.7,14.8,5.6,23.2,5.6s16.8-1.9,23.3-5.6c4.4-2.5,7.4-5.6,8.8-9h0V247Zm-55.3,8.2c6.4,3.7,14.8,5.6,23.2,5.6s16.8-1.9,23.3-5.6c4.4-2.5,7.4-5.6,8.8-9v-1.9c-1,3.9-4.2,7.5-9.1,10.3-12.7,7.3-33.2,7.3-45.8,0-4.8-2.8-7.9-6.3-8.9-10.1v1.8C335,248,338,251.1,342.2,253.5Zm46.1,4.8c-12.7,7.3-33.2,7.3-45.8,0-4.7-2.7-7.7-6.1-8.8-9.8a10.54,10.54,0,0,0,1.4,4.1h0a21.89,21.89,0,0,0,7.1,6.2c6.4,3.7,14.8,5.6,23.2,5.6s16.8-1.9,23.3-5.6a22.38,22.38,0,0,0,7.5-6.6,10.21,10.21,0,0,0,1.2-4C396.3,252,393.2,255.5,388.3,258.3Z"/><path class="cls-21" d="M408.3,236.1v.2h0a3.75,3.75,0,0,1-.1,1h0a11.55,11.55,0,0,1-1.2,4,20.52,20.52,0,0,1-8.1,7.9c-12.5,7.2-32.7,7.2-45.2,0a20.18,20.18,0,0,1-7.8-7.5h0a12.47,12.47,0,0,1-1.4-4.1,4.1,4.1,0,0,1-.1-1.1v-8.6c0,4.7,3.1,9.4,9.3,13,12.4,7.2,32.6,7.2,45.2,0,6.3-3.6,9.4-8.4,9.4-13.1v8.3Z"/><g class="cls-3"><path class="cls-22" d="M353.9,214.7c-12.5,7.2-12.6,18.9-.1,26.2s32.6,7.2,45.2,0,12.6-18.9.1-26.2S366.4,207.5,353.9,214.7Z"/><path class="cls-24" d="M403.1,229.2c-.6,3.5-3.2,6.9-7.8,9.6-10.5,6.1-27.5,6.1-37.9,0-4.6-2.6-7.1-6-7.7-9.5-.7-4.5,1.9-9.1,7.8-12.5,10.5-6.1,27.5-6.1,37.9,0C401.2,220.2,403.8,224.8,403.1,229.2Z"/><path class="cls-31" d="M403.1,229.2c-.6,3.5-3.2,6.9-7.8,9.6-10.5,6.1-27.5,6.1-37.9,0-4.6-2.6-7.1-6-7.7-9.5.6-3.5,3.2-6.9,7.8-9.6,10.5-6.1,27.5-6.1,37.9,0C399.9,222.4,402.5,225.8,403.1,229.2Z"/></g><g class="cls-3"><polygon class="cls-24" points="393.3 220.1 393.3 222.2 389.7 224.3 389.7 222.1 393.3 220.1"/><polygon class="cls-24" points="393.7 225.8 393.7 228 388.5 229.8 388.5 227.6 393.7 225.8"/><g class="cls-3"><path id="SVGID-37" data-name="SVGID" class="cls-24" d="M377.9,226.1v-2.2a.6.6,0,0,1,.1-.4,2.31,2.31,0,0,1,.7-.7,3.79,3.79,0,0,1,2.2-.4,6.58,6.58,0,0,1,2.9,1.1,15.45,15.45,0,0,1,2.8,2,10.42,10.42,0,0,1,1.8,2v2.2a10.42,10.42,0,0,0-1.8-2,15.45,15.45,0,0,0-2.8-2,8.84,8.84,0,0,0-2.9-1.1,3.79,3.79,0,0,0-2.2.4,1.2,1.2,0,0,0-.7.7A.76.76,0,0,0,377.9,226.1Z"/><g class="cls-65"><g class="cls-3"><path class="cls-24" d="M388.5,227.6v2.2a10.42,10.42,0,0,0-1.8-2,15.45,15.45,0,0,0-2.8-2,8.84,8.84,0,0,0-2.9-1.1,3.79,3.79,0,0,0-2.2.4,1.2,1.2,0,0,0-.7.7c-.1.1-.1.2-.1.4V224a.6.6,0,0,1,.1-.4,2.31,2.31,0,0,1,.7-.7,3.79,3.79,0,0,1,2.2-.4,6.58,6.58,0,0,1,2.9,1.1,15.45,15.45,0,0,1,2.8,2c.7.7,1.3,1.4,1.8,2Z"/></g></g></g><g class="cls-3"><path id="SVGID-38" data-name="SVGID" class="cls-24" d="M374.9,231v2.2a1.27,1.27,0,0,0-.1-.6,5.62,5.62,0,0,0-.7-1.3c-.4-.5-.8-1-1.3-1.7a20.28,20.28,0,0,1-1.3-1.8,7.1,7.1,0,0,1-.8-1.8v-2.2a4.76,4.76,0,0,0,.8,1.8,20.28,20.28,0,0,0,1.3,1.8c.5.6.9,1.2,1.3,1.7a3.35,3.35,0,0,1,.7,1.3A1.27,1.27,0,0,1,374.9,231Z"/><g class="cls-66"><g class="cls-3"><path class="cls-24" d="M374.9,231v2.2a1.27,1.27,0,0,0-.1-.6,5.62,5.62,0,0,0-.7-1.3c-.4-.5-.8-1-1.3-1.7a20.28,20.28,0,0,1-1.3-1.8,7.1,7.1,0,0,1-.8-1.8v-2.2a4.76,4.76,0,0,0,.8,1.8,20.28,20.28,0,0,0,1.3,1.8c.5.6.9,1.2,1.3,1.7a3.35,3.35,0,0,1,.7,1.3,1.27,1.27,0,0,1,.1.6Z"/></g></g></g><g class="cls-3"><path id="SVGID-39" data-name="SVGID" class="cls-24" d="M362.6,232.9v2.2a17.32,17.32,0,0,1-3.3-2.8,21.23,21.23,0,0,1-1.4-1.9v-2.2a14.44,14.44,0,0,0,4.7,4.7Z"/><g class="cls-67"><g class="cls-3"><path class="cls-24" d="M362.6,232.9v2.2a17.32,17.32,0,0,1-3.3-2.8,21.23,21.23,0,0,1-1.4-1.9v-2.2a14.44,14.44,0,0,0,4.7,4.7Z"/></g></g></g><g class="cls-3"><path id="SVGID-40" data-name="SVGID" class="cls-24" d="M382.1,231.7v2.2a3.69,3.69,0,0,1-.5,1.7,5.5,5.5,0,0,1-2.1,1.8,13.32,13.32,0,0,1-2.4,1,13.52,13.52,0,0,1-2.9.5,13.22,13.22,0,0,1-3.4-.2,19.2,19.2,0,0,1-3.7-1.1v-2.2a21.52,21.52,0,0,0,3.7,1.1,13.22,13.22,0,0,0,3.4.2,12.51,12.51,0,0,0,2.9-.5,13.32,13.32,0,0,0,2.4-1,6.51,6.51,0,0,0,2.1-1.8A4.06,4.06,0,0,0,382.1,231.7Z"/><g class="cls-68"><g class="cls-3"><path class="cls-24" d="M382.1,231.7v2.2a3.69,3.69,0,0,1-.5,1.7,5.5,5.5,0,0,1-2.1,1.8,13.32,13.32,0,0,1-2.4,1,13.52,13.52,0,0,1-2.9.5,13.22,13.22,0,0,1-3.4-.2,19.2,19.2,0,0,1-3.7-1.1v-2.2a21.52,21.52,0,0,0,3.7,1.1,13.22,13.22,0,0,0,3.4.2,12.51,12.51,0,0,0,2.9-.5,13.32,13.32,0,0,0,2.4-1,6.51,6.51,0,0,0,2.1-1.8,4.06,4.06,0,0,0,.5-1.7Z"/></g></g></g><polygon class="cls-24" points="367.1 235.3 367.1 237.5 362.9 239.9 362.9 237.8 367.1 235.3"/><path class="cls-22" d="M393.3,220.1l-3.6,2.1c1.1.8,1.9,1.5,2.6,2.1a15.79,15.79,0,0,1,1.4,1.6l-5.2,1.8a10.42,10.42,0,0,0-1.8-2,15.45,15.45,0,0,0-2.8-2,8.84,8.84,0,0,0-2.9-1.1,3.79,3.79,0,0,0-2.2.4,1.2,1.2,0,0,0-.7.7,1.1,1.1,0,0,0,0,.8,2.66,2.66,0,0,0,.6,1c.3.4.6.8,1.1,1.4a24.39,24.39,0,0,1,1.6,2.3,7.39,7.39,0,0,1,.8,2.2,2.88,2.88,0,0,1-.5,2,5.5,5.5,0,0,1-2.1,1.8,13.32,13.32,0,0,1-2.4,1,13.52,13.52,0,0,1-2.9.5,13.22,13.22,0,0,1-3.4-.2,19.2,19.2,0,0,1-3.7-1.1l-4.2,2.4-4.4-2.5,4.1-2.4a17.32,17.32,0,0,1-3.3-2.8,21.23,21.23,0,0,1-1.4-1.9l5.4-1.4a11.19,11.19,0,0,0,1.8,2.3,13.14,13.14,0,0,0,3.1,2.3,8,8,0,0,0,3.5,1.3,3.87,3.87,0,0,0,2.4-.5c.4-.3.7-.5.8-.8a1.21,1.21,0,0,0-.1-1,5.62,5.62,0,0,0-.7-1.3c-.4-.5-.8-1-1.3-1.7a20.28,20.28,0,0,1-1.3-1.8,7.1,7.1,0,0,1-.8-1.8,2.41,2.41,0,0,1,.4-1.8,5.14,5.14,0,0,1,2-1.8,18.89,18.89,0,0,1,2.5-1.1,9.29,9.29,0,0,1,2.9-.5,12.7,12.7,0,0,1,3.3.2,17,17,0,0,1,3.5,1l3.7-2.2Z"/><polygon class="cls-24" points="362.9 237.8 362.9 239.9 358.5 237.4 358.5 235.2 362.9 237.8"/></g><path class="cls-22" d="M408.3,234.4c-1,3.9-4.2,7.5-9.1,10.4-12.7,7.3-33.2,7.3-45.8,0-4.8-2.8-7.9-6.3-8.9-10.1v1.9c1.4,3.3,4.4,6.3,8.6,8.8,6.4,3.7,14.8,5.6,23.2,5.6s16.8-1.9,23.3-5.6c4.4-2.5,7.4-5.6,8.8-9h0v-.2Zm-55.2,8.3c6.4,3.7,14.8,5.6,23.2,5.6s16.8-1.9,23.3-5.6c4.4-2.5,7.4-5.6,8.8-9v-1.9c-1,3.9-4.2,7.5-9.1,10.3-12.7,7.3-33.2,7.3-45.8,0-4.8-2.8-7.9-6.3-8.9-10.1v1.8C345.9,237.2,348.8,240.2,353.1,242.7Zm46.1,4.8c-12.7,7.3-33.2,7.3-45.8,0-4.7-2.7-7.7-6.1-8.8-9.8a10.54,10.54,0,0,0,1.4,4.1h0a21.89,21.89,0,0,0,7.1,6.2c6.4,3.7,14.8,5.6,23.2,5.6s16.8-1.9,23.3-5.6a22.38,22.38,0,0,0,7.5-6.6,10.21,10.21,0,0,0,1.2-4C407.2,241.1,404.1,244.7,399.2,247.5Z"/></svg>