<?xml version="1.0" encoding="utf-8"?>
<!-- Generator: Adobe Illustrator 25.3.0, SVG Export Plug-In . SVG Version: 6.00 Build 0)  -->
<svg version="1.1" id="Layer_1" xmlns="http://www.w3.org/2000/svg" xmlns:xlink="http://www.w3.org/1999/xlink" x="0px" y="0px"
	 viewBox="0 0 1920 1080" style="enable-background:new 0 0 1920 1080;" xml:space="preserve">
<style type="text/css">
	.st0{fill:none;stroke:#F2E18D;stroke-width:5.7813;stroke-linecap:round;stroke-linejoin:round;stroke-miterlimit:10;}
</style>
<path class="st0" d="M746.9,534.2c62.2-30.2,103.5-33.9,129.2-32.1s36,9.1,50.8,16.9c14.8,7.8,34.2,16.2,51.2,20.5l40.9,6.6
	c9.5,1.9,14.1,5.4,16.8,11.3c2.6,5.9,3.4,14.2,1.2,19.3c-2.1,5-7.1,6.8-14.8,8.7l-32.7,4.7l-47.4-1.4c-15.1-1.4-27.3-3.5-47.4-10.8"
	/>
<path class="st0" d="M795.3,638.4c46.6-28.1,66.7-21.9,86.5-13.2l53.5,27.3c14.3,7.5,23.5,11.3,31.8,12.2c8.3,0.9,15.7-1.2,26.1-6.1
	l52.7-31.5l96-66.6c23-17.3,24.7-21.5,24.5-26.4l-5-14.1c-2.8-3.7-6.3-5.5-13.3-4.9c-6.9,0.6-17.2,3.6-109.8,54.5"/>
<path class="st0" d="M971.3,537.6c43.4-33.6,54.1-38.7,63.1-41.5c9-2.8,16.2-3.2,21.6-2.7s9.1,2.2,11.2,6c2,3.9,2.4,10-48.1,46.7"/>
<ellipse class="st0" cx="962.6" cy="393.8" rx="82.6" ry="81.3"/>
<path class="st0" d="M959.1,344.9c-5.2,0.8-9.3,2.8-12.3,6.1s-4.5,7.2-4.5,11.8c0,4.5,1.3,8.2,3.8,11.3c2.6,3,6.9,5.4,13,7.2
	L959.1,344.9L959.1,344.9z"/>
<path class="st0" d="M967,435.8c5.2-0.6,9.5-2.8,12.9-6.7c3.4-3.8,5.1-8.5,5.1-14.1c0-4.8-1.2-8.6-3.6-11.5
	c-2.4-2.9-7.2-5.5-14.4-7.8L967,435.8L967,435.8z"/>
<path class="st0" d="M959.1,446.9V460h7.9v-13.3c9.4-0.4,17-3.7,22.9-9.8c5.9-6.1,8.8-13.7,8.8-22.8l-2.1-11.5l-6-9.2l-10.2-6.6
	l-13.4-3.9V345c4.4,0.9,7.8,2.7,10.3,5.4s4.1,6.7,4.9,11.9l13.8-2c-1.2-8.3-4.7-14.9-10.5-19.7c-4.6-3.8-10.7-6-18.5-6.7v-6.3h-7.9
	v6.3c-8.9,0.9-15.5,3.3-20,7.2c-6.7,5.8-10.1,13.4-10.1,22.7c0,5.3,1.2,10,3.4,14.1c2.3,4.1,5.6,7.4,9.8,9.7l16.9,6.3v41.9
	c-5.2-0.5-9.8-3.1-13.5-7.8c-2.6-3.3-4.5-8.5-5.5-15.6l-13.4,2.5c0.5,6.8,2.3,12.6,5.3,17.3c3,4.7,6.7,8.1,10.8,10.3L959.1,446.9z"
	/>
<path class="st0" d="M1055.9,517.3c39.4-20.8,56.4-20.1,54.3,13.6"/>
</svg>
