<?xml version="1.0" encoding="utf-8"?>
<!-- Generator: Adobe Illustrator 25.3.0, SVG Export Plug-In . SVG Version: 6.00 Build 0)  -->
<svg version="1.1" id="Layer_1" xmlns="http://www.w3.org/2000/svg" xmlns:xlink="http://www.w3.org/1999/xlink" x="0px" y="0px"
	 viewBox="0 0 1366 768" style="enable-background:new 0 0 1366 768;" xml:space="preserve">
<style type="text/css">
	.st0{fill:none;stroke:#F2E18D;stroke-width:5;stroke-linecap:round;stroke-linejoin:round;stroke-miterlimit:10;}
</style>
<path class="st0" d="M503.55,425.1c53.33-26.35,88.77-29.53,110.88-27.94c22.11,1.59,30.89,7.95,43.61,14.77
	c12.72,6.81,29.38,14.08,43.92,17.87l35.13,5.75c8.18,1.67,12.12,4.69,14.39,9.84c2.27,5.15,2.88,12.42,1.06,16.81
	s-6.06,5.91-12.72,7.57l-28.02,4.09l-40.66-1.21c-12.95-1.21-23.4-3.03-40.66-9.39"/>
<path class="st0" d="M545.07,515.97c39.98-24.53,57.24-19.08,74.2-11.51l45.89,23.78c12.27,6.51,20.14,9.84,27.26,10.6
	c7.12,0.76,13.48-1.06,22.41-5.3l45.18-27.45l82.41-58.05c19.71-15.06,21.16-18.73,21.03-22.99l-4.26-12.33
	c-2.39-3.22-5.44-4.82-11.38-4.31c-5.94,0.5-14.78,3.1-94.2,47.48"/>
<path class="st0" d="M696.05,428.11c37.22-29.28,46.46-33.75,54.16-36.18c7.7-2.43,13.86-2.83,18.53-2.33
	c4.67,0.5,7.85,1.89,9.59,5.27c1.74,3.38,2.04,8.74-41.24,40.7"/>
<circle class="st0" cx="688.63" cy="302.74" r="70.88"/>
<path class="st0" d="M685.58,260.07c-4.46,0.68-7.97,2.46-10.54,5.35c-2.57,2.89-3.85,6.31-3.85,10.26c0,3.91,1.09,7.18,3.28,9.81
	s5.89,4.73,11.12,6.31V260.07z"/>
<path class="st0" d="M692.33,339.31c4.46-0.55,8.14-2.48,11.05-5.8c2.91-3.31,4.36-7.41,4.36-12.29c0-4.16-1.03-7.51-3.09-10.03
	c-2.06-2.53-6.17-4.79-12.33-6.78V339.31z"/>
<path class="st0" d="M685.58,348.99v11.47h6.75v-11.59c8.03-0.38,14.57-3.23,19.62-8.54c5.05-5.31,7.58-11.93,7.58-19.87
	l-1.82-10.06l-5.19-8.03l-8.73-5.73l-11.47-3.38v-33.06c3.74,0.76,6.68,2.35,8.82,4.75c2.14,2.4,3.56,5.85,4.24,10.35l11.85-1.78
	c-1.02-7.26-4.03-12.97-9.05-17.13c-3.91-3.27-9.19-5.22-15.86-5.86v-5.48h-6.75v5.48c-7.6,0.76-13.33,2.85-17.2,6.24
	c-5.78,5.05-8.66,11.66-8.66,19.81c0,4.59,0.99,8.68,2.96,12.29c1.97,3.61,4.79,6.43,8.44,8.47l14.46,5.48v36.5
	c-4.5-0.47-8.37-2.74-11.59-6.82c-2.25-2.89-3.82-7.41-4.71-13.57l-11.53,2.17c0.42,5.95,1.94,10.98,4.55,15.1
	c2.61,4.12,5.71,7.1,9.3,8.95L685.58,348.99z"/>
<path class="st0" d="M768.66,410.41c33.77-18.14,48.4-17.49,46.55,11.86"/>
</svg>
