<?xml version="1.0" encoding="utf-8"?>
<!-- Generator: Adobe Illustrator 25.3.0, SVG Export Plug-In . SVG Version: 6.00 Build 0)  -->
<svg version="1.1" id="Layer_1" xmlns="http://www.w3.org/2000/svg" xmlns:xlink="http://www.w3.org/1999/xlink" x="0px" y="0px"
	 viewBox="0 0 455.15 454.79" style="enable-background:new 0 0 455.15 454.79;" xml:space="preserve">
<style type="text/css">
	.st0{fill-rule:evenodd;clip-rule:evenodd;fill:#FFFFFF;stroke:#F2E18D;stroke-width:5;stroke-miterlimit:10;}
</style>
<g>
	<path class="st0" d="M191.3,382.43V236.49c-8.46,9.68-16.38,17.78-23.9,24.44c-7.56,6.55-13.36,12.02-21.13,15.16
		c-8.06,3.13-19.29,6.12-26.06,3.28c-6.77-3.1-11.09-8.86-14.08-21.17c-2.95-12.53-3.53-37.01-3.82-52.63
		c-0.47-15.73-3.49-32.4,1.62-40.14c5.15-7.7,23.11-9.14,28.76-5.44c5.47,3.74,3.31,16.02,4.36,27.68
		c0.94,11.7,1.48,25.34,1.62,41.76c5.94-6.12,12.13-12.13,18.97-18.43c6.84-6.34,12.78-15.16,21.71-18.97
		c8.82-3.82,19.91-5.04,30.92-3.82c10.98,1.22,22.82,10.62,34.16,10.84c11.23-0.04,22.61-7.16,32.58-10.3
		c9.72-3.1,15.66,4.1,26.03-8.14c10.4-12.46,25.85-47.66,35.78-65.63c9.72-18.11,14.58-35.28,22.79-41.8
		c8.17-6.37,22.5-2.74,26.06,3.28c3.35,5.83,4.36,10.94-5.44,32c-9.97,21.2-39.78,72.76-53.17,93.85
		c-13.43,20.81-22.1,31.07-26.57,30.93v149.18C265.46,382.43,228.38,382.43,191.3,382.43L191.3,382.43z"/>
	<path class="st0" d="M250.96,89.4c23.95,0,43.38,19.45,43.38,43.42c0,23.96-19.43,43.42-43.38,43.42
		c-23.95,0-43.38-19.45-43.38-43.42C207.58,108.85,227.01,89.4,250.96,89.4"/>
	<path class="st0" d="M78.98,171.4v7.6h71.06v-7.6C150.04,171.4,78.98,171.4,78.98,171.4z"/>
	<path class="st0" d="M152.96,149.69c-4.9,0-8.89,3.96-8.89,8.86v32.18c0,4.9,4,8.89,8.89,8.89h3.96c4.9,0,8.86-4,8.86-8.89v-32.18
		c0-4.9-3.96-8.86-8.86-8.86L152.96,149.69L152.96,149.69z"/>
	<path class="st0" d="M81.89,149.69c-4.9,0-8.89,3.96-8.89,8.86v32.18c0,4.9,4,8.89,8.89,8.89h3.96c4.9,0,8.86-4,8.86-8.89v-32.18
		c0-4.9-3.96-8.86-8.86-8.86L81.89,149.69L81.89,149.69z"/>
	<path class="st0" d="M335.84,70.49l-3.02,6.98l65.27,28.12l3.02-6.98L335.84,70.49L335.84,70.49L335.84,70.49z"/>
	<path class="st0" d="M412.34,79.81c-4.5-1.91-9.72,0.14-11.66,4.64c-4.21,9.86-8.46,19.69-12.71,29.56
		c-1.94,4.5,0.15,9.72,4.64,11.66c1.19,0.5,2.41,1.04,3.64,1.55c4.5,1.94,9.72-0.14,11.63-4.64c4.25-9.83,8.5-19.69,12.74-29.52
		c1.94-4.5-0.14-9.72-4.64-11.66C414.79,80.86,413.56,80.35,412.34,79.81L412.34,79.81z"/>
	<path class="st0" d="M347.07,51.73c-4.5-1.94-9.72,0.11-11.66,4.61c-4.21,9.86-8.46,19.69-12.71,29.56
		c-1.94,4.5,0.14,9.72,4.64,11.66c1.19,0.5,2.41,1.04,3.64,1.55c4.5,1.94,9.72-0.14,11.63-4.61c4.25-9.86,8.5-19.73,12.74-29.56
		c1.94-4.5-0.15-9.72-4.64-11.66C349.52,52.78,348.29,52.24,347.07,51.73z"/>
</g>
</svg>
