<?xml version="1.0" encoding="utf-8"?>
<!-- Generator: Adobe Illustrator 25.3.0, SVG Export Plug-In . SVG Version: 6.00 Build 0)  -->
<svg version="1.1" id="Layer_1" xmlns="http://www.w3.org/2000/svg" xmlns:xlink="http://www.w3.org/1999/xlink" x="0px" y="0px"
	 viewBox="0 0 1920 1080" style="enable-background:new 0 0 1920 1080;" xml:space="preserve">
<style type="text/css">
	.st0{fill-rule:evenodd;clip-rule:evenodd;fill:none;stroke:#F2E18D;stroke-width:5.4064;stroke-miterlimit:10;}
</style>
<g>
	<path class="st0" d="M902.3,676V520.7c-9.3,10.3-18,18.9-26.3,26c-8.3,7-14.7,12.8-23.2,16.1c-8.9,3.3-21.2,6.5-28.6,3.5
		c-7.4-3.3-12.2-9.4-15.5-22.5c-3.2-13.3-3.9-39.4-4.2-56c-0.5-16.7-3.8-34.5,1.8-42.7c5.7-8.2,25.4-9.7,31.6-5.8
		c6,4,3.6,17,4.8,29.5c1,12.5,1.6,27,1.8,44.4c6.5-6.5,13.3-12.9,20.8-19.6c7.5-6.7,14-16.1,23.9-20.2c9.7-4.1,21.9-5.4,34-4.1
		c12.1,1.3,25.1,11.3,37.5,11.5c12.3,0,24.8-7.6,35.8-11c10.7-3.3,17.2,4.4,28.6-8.7c11.4-13.3,28.4-50.7,39.3-69.8
		c10.7-19.3,16-37.5,25-44.5c9-6.8,24.7-2.9,28.6,3.5c3.7,6.2,4.8,11.6-6,34.1c-11,22.6-43.7,77.4-58.4,99.9
		c-14.8,22.1-24.3,33.1-29.2,32.9V676C983.8,676,943,676,902.3,676L902.3,676z"/>
	<path class="st0" d="M967.8,364.2c26.3,0,47.7,20.7,47.7,46.2c0,25.5-21.3,46.2-47.7,46.2c-26.3,0-47.7-20.7-47.7-46.2
		C920.2,384.9,941.5,364.2,967.8,364.2"/>
	<path class="st0" d="M778.9,451.4v8.1H857v-8.1C857,451.4,778.9,451.4,778.9,451.4z"/>
	<path class="st0" d="M860.2,428.3c-5.4,0-9.8,4.2-9.8,9.4V472c0,5.2,4.4,9.5,9.8,9.5h4.4c5.4,0,9.7-4.3,9.7-9.5v-34.2
		c0-5.2-4.4-9.4-9.7-9.4L860.2,428.3L860.2,428.3z"/>
	<path class="st0" d="M782.1,428.3c-5.4,0-9.8,4.2-9.8,9.4V472c0,5.2,4.4,9.5,9.8,9.5h4.4c5.4,0,9.7-4.3,9.7-9.5v-34.2
		c0-5.2-4.4-9.4-9.7-9.4L782.1,428.3L782.1,428.3z"/>
	<path class="st0" d="M1061.1,344.1l-3.3,7.4l71.7,29.9l3.3-7.4L1061.1,344.1L1061.1,344.1L1061.1,344.1z"/>
	<path class="st0" d="M1145.1,354c-4.9-2-10.7,0.1-12.8,4.9c-4.6,10.5-9.3,21-14,31.5c-2.1,4.8,0.2,10.3,5.1,12.4
		c1.3,0.5,2.6,1.1,4,1.6c4.9,2.1,10.7-0.1,12.8-4.9c4.7-10.5,9.3-21,14-31.4c2.1-4.8-0.2-10.3-5.1-12.4
		C1147.8,355.1,1146.5,354.5,1145.1,354L1145.1,354z"/>
	<path class="st0" d="M1073.4,324.1c-4.9-2.1-10.7,0.1-12.8,4.9c-4.6,10.5-9.3,21-14,31.5c-2.1,4.8,0.2,10.3,5.1,12.4
		c1.3,0.5,2.6,1.1,4,1.6c4.9,2.1,10.7-0.1,12.8-4.9c4.7-10.5,9.3-21,14-31.5c2.1-4.8-0.2-10.3-5.1-12.4
		C1076.1,325.2,1074.8,324.6,1073.4,324.1z"/>
</g>
</svg>
