<?xml version="1.0" encoding="utf-8"?>
<!-- Generator: Adobe Illustrator 25.3.0, SVG Export Plug-In . SVG Version: 6.00 Build 0)  -->
<svg version="1.1" id="Ebene_1" xmlns="http://www.w3.org/2000/svg" xmlns:xlink="http://www.w3.org/1999/xlink" x="0px" y="0px"
	 viewBox="0 0 517.33 313.92" style="enable-background:new 0 0 517.33 313.92;" xml:space="preserve">
<style type="text/css">
	.st0{fill:#DB6767;}
	.st1{fill:#F76D6D;}
	.st2{fill:#A5C3D3;}
	.st3{fill:#C7FFFF;}
	.st4{fill:#E55757;}
	.st5{fill:#EBFCFB;}
	.st6{fill:#49B232;}
	.st7{fill:#0C2328;}
	.st8{fill:#CAF1FF;}
	.st9{fill:#055368;}
	.st10{fill:none;}
	.st11{fill:#4D6FBC;}
	.st12{fill:#FF7676;}
	.st13{fill:#B4FFB0;}
	.st14{fill:#70838E;}
	.st15{fill:#ACBACC;}
	.st16{fill:#BCCBDD;}
	.st17{fill:#9E9571;}
	.st18{fill:#4BC136;}
	.st19{fill:#55C63E;}
	.st20{fill:none;stroke:#28BBCE;stroke-miterlimit:10;}
	.st21{fill:#FF9B48;}
	.st22{fill:#FFE1CA;}
	.st23{fill:#3A3430;}
	.st24{fill:#966847;}
	.st25{fill:#5B7488;}
	.st26{fill:#A87552;}
	.st27{fill:#9EF794;}
	.st28{fill:#A9F9A2;}
	.st29{stroke:#000000;stroke-linecap:round;stroke-linejoin:round;}
	.st30{fill:none;stroke:#000000;stroke-linecap:round;stroke-linejoin:round;}
	.st31{fill:#FFFFFF;}
</style>
<path class="st0" d="M161.58,33.01h196.03c12.15,0,22,9.85,22,22v114.5c0,12.15-9.85,22-22,22H161.58c-12.15,0-22-9.85-22-22V55.01
	C139.58,42.86,149.43,33.01,161.58,33.01z"/>
<path class="st1" d="M93.84,92.26h326.03c12.15,0,22,9.85,22,22v114.5c0,12.15-9.85,22-22,22H93.84c-12.15,0-22-9.85-22-22v-114.5
	C71.84,102.11,81.69,92.26,93.84,92.26z"/>
<path class="st2" d="M47.17,201.99h424.35c6.72,0,12.16,5.44,12.16,12.16v4.45c0,6.72-5.44,12.16-12.16,12.16H47.17
	c-6.72,0-12.16-5.44-12.16-12.16v-4.45C35.01,207.44,40.46,201.99,47.17,201.99z"/>
<rect x="353.34" y="111.26" class="st3" width="67.51" height="82.5"/>
<path class="st4" d="M419.85,112.26v80.5h-65.51v-80.5H419.85 M421.85,110.26h-69.51v84.5h69.51V110.26z"/>
<polygon class="st5" points="419.86,112.26 354.34,192.76 354.34,112.26 "/>
<path class="st6" d="M339.33,187.59h17.69c6.45,0,11.67,5.22,11.67,11.67v0.99c0,6.45-5.22,11.67-11.67,11.67h-17.69
	c-6.45,0-11.67-5.22-11.67-11.67v-0.99C327.65,192.82,332.88,187.59,339.33,187.59z"/>
<path class="st7" d="M352.04,216.74c-8.03,0-14.54-6.51-14.54-14.54c0-8.03,6.51-14.54,14.54-14.54c8.03,0,14.54,6.51,14.54,14.54
	C366.58,210.23,360.07,216.74,352.04,216.74z M352.04,189.86c-6.82-0.02-12.36,5.48-12.38,12.3s5.48,12.36,12.3,12.38
	s12.36-5.48,12.38-12.3c0-0.01,0-0.03,0-0.04C364.33,195.41,358.84,189.9,352.04,189.86z"/>
<path class="st7" d="M397.05,216.78c-8.03,0-14.54-6.51-14.54-14.54c0-8.03,6.51-14.54,14.54-14.54c8.03,0,14.54,6.51,14.54,14.54
	c0,0.01,0,0.01,0,0.02C411.58,210.28,405.08,216.78,397.05,216.78z M397.05,189.91c-6.82,0-12.34,5.52-12.34,12.34
	s5.52,12.34,12.34,12.34c6.81,0,12.33-5.52,12.34-12.33C409.39,195.45,403.87,189.92,397.05,189.91z"/>
<path class="st7" d="M376.97,206.69c-0.3,0-0.56-0.21-0.62-0.51l-1.29-6.62c-0.07-0.34,0.15-0.68,0.49-0.74s0.68,0.15,0.74,0.49
	l1.29,6.62c0.07,0.33-0.14,0.66-0.48,0.74c-0.01,0-0.02,0-0.02,0L376.97,206.69z"/>
<circle class="st8" cx="352.04" cy="202.2" r="12.42"/>
<circle class="st8" cx="397.06" cy="202.2" r="12.42"/>
<path class="st9" d="M382.85,185.74c-0.09,0.02-0.18,0.02-0.27,0c-0.46-0.15-0.71-0.64-0.56-1.09c0,0,0,0,0-0.01l1.46-4.5
	c0.15-0.46,0.64-0.71,1.1-0.56s0.71,0.64,0.56,1.1l0,0l-1.46,4.5C383.55,185.52,383.22,185.75,382.85,185.74z"/>
<path class="st7" d="M390,177c0,0-12.42-0.39-12.29,0.58s4.81,2.92,5.87,3.17c1.63,0.09,3.26-0.22,4.74-0.9
	C388.64,179.46,390.39,178.26,390,177z"/>
<path class="st7" d="M377.32,212.11h2c0.3,0,0.54,0.24,0.54,0.54v0.21c0,0.3-0.24,0.54-0.54,0.54h-2c-0.3,0-0.54-0.24-0.54-0.54
	v-0.21C376.78,212.35,377.03,212.11,377.32,212.11z"/>
<path class="st7" d="M374.61,198.25h2c0.3,0,0.54,0.24,0.54,0.54V199c0,0.3-0.24,0.54-0.54,0.54h-2c-0.3,0-0.54-0.24-0.54-0.54
	v-0.21C374.07,198.49,374.32,198.25,374.61,198.25z"/>
<path class="st10" d="M362,184.26c-0.12,0.55-0.31,1.09-0.57,1.59l14.76,17.77c0.11,0,0.23,0.07,0.35,0.05l5.67-19.41H362z"/>
<path class="st10" d="M383.43,185.99l-5.16,17.77c0.27,0.16,0.51,0.36,0.71,0.6l16.55-3.1l-11.81-16.22L383.43,185.99z"/>
<path class="st11" d="M397.11,200.42l-13-17.88l0,0l-0.07-0.09l0,0l-0.06-0.06l0,0h-0.07l0,0h-0.07l0,0h-0.08l0,0h-0.11l0,0
	c0,0,0,0-0.07,0h-21.02c0.8-2,1.45-4.65,1.76-5.61c0.01-0.13,0.01-0.26,0-0.39h-1.85v0.15c-0.59,1.86-1.28,4-2,6.21
	c-0.02,0.05-0.04,0.1-0.05,0.15l-0.9,2.81c-1.76,5.42-3.39,10.35-3.68,10.92c-1.21,1.39-2.5,2.71-3.88,3.93h-0.22
	c-0.78,0-1.41,0.63-1.41,1.41c0,0.78,0.63,1.41,1.41,1.41c0.78,0,1.41-0.63,1.41-1.41c0,0,0-0.01,0-0.01c0-0.03,0-0.07,0-0.1
	c1.52-1.33,2.92-2.78,4.2-4.34c0.31-0.51,1.81-5,3.35-9.73l14,16.93c-0.22,0.35-0.34,0.75-0.34,1.16c0.06,1.33,1.18,2.36,2.51,2.31
	c1.21,0.04,2.27-0.81,2.49-2l16.68-3.15c0.26,0.22,0.58,0.34,0.92,0.34c0.78-0.05,1.37-0.71,1.32-1.49
	c-0.04-0.69-0.58-1.25-1.26-1.32L397.11,200.42z M376.54,203.63c-0.12-0.01-0.23-0.01-0.35,0l-14.76-17.73
	c0.26-0.52,0.45-1.07,0.57-1.63h20.21L376.54,203.63z M378.98,204.36c-0.2-0.24-0.44-0.44-0.71-0.6l5.16-17.77l0.29-1l11.81,16.27
	L378.98,204.36z"/>
<path class="st7" d="M364.28,175.98l-0.93-2.07l1.4-1.65h4.07c0.55,0,1-0.45,1-1s-0.45-1-1-1h-4.48c-0.25,0-0.49,0.34-0.66,0.53
	l-2,2.41c-0.23,0.25-0.29,0.62-0.14,0.93l1,2.13h1.8C364.34,176.26,364.34,176.09,364.28,175.98z"/>
<path class="st7" d="M378.27,213.34c-0.3,0-0.56-0.21-0.62-0.51l-1.31-6.57c-0.07-0.34,0.16-0.67,0.5-0.74s0.67,0.16,0.74,0.5
	l1.29,6.62c0.06,0.34-0.16,0.66-0.5,0.73L378.27,213.34z"/>
<path class="st12" d="M207.51,73.59h104.17c15.65,0,28.33,12.68,28.33,28.33v111.67c0,15.65-12.68,28.33-28.33,28.33H207.51
	c-15.65,0-28.33-12.68-28.33-28.33V101.92C179.18,86.28,191.87,73.59,207.51,73.59z"/>
<rect x="217.34" y="137.26" class="st3" width="86.92" height="85.67"/>
<path class="st4" d="M303.26,138.26v83.67h-84.92v-83.67H303.26 M305.26,136.26h-88.92v87.67h88.92V136.26z"/>
<path class="st13" d="M21.63,233.84h478.42c7.34,0,13.29,5.95,13.29,13.29v0c0,7.34-5.95,13.29-13.29,13.29H21.63
	c-7.34,0-13.29-5.95-13.29-13.29v0C8.34,239.79,14.3,233.84,21.63,233.84z"/>
<path class="st14" d="M37.77,218.76H480.3c4.16,0,7.54,3.38,7.54,7.54v0c0,4.16-3.38,7.54-7.54,7.54H37.77
	c-4.16,0-7.54-3.38-7.54-7.54v0C30.23,222.14,33.61,218.76,37.77,218.76z"/>
<path class="st15" d="M30.23,265.72c0.16,3.08,2.76,5.45,5.84,5.32H504c3.08,0.13,5.68-2.24,5.84-5.32
	c-0.01-0.94-0.29-1.87-0.82-2.65h-478C30.51,263.86,30.23,264.78,30.23,265.72z"/>
<path class="st16" d="M504,260.26H36.07c-2.11-0.07-4.07,1.11-5,3h478C508.13,261.34,506.14,260.17,504,260.26z"/>
<rect x="94.34" y="109.26" class="st3" width="67.51" height="82.5"/>
<path class="st4" d="M160.85,110.26v80.5H95.34v-80.5H160.85 M162.85,108.26H93.34v84.5h69.51V108.26z"/>
<polygon class="st5" points="160.85,110.26 95.34,190.76 95.34,110.26 "/>
<path class="st17" d="M86.62,136.26L86.62,136.26c2.36,0,4.28,1.92,4.28,4.28v102.31c0,2.36-1.91,4.28-4.28,4.28l0,0
	c-2.36,0-4.28-1.92-4.28-4.28V140.54C82.34,138.18,84.26,136.26,86.62,136.26z"/>
<path class="st18" d="M60.01,77.93h38.67c13.81,0,25,11.19,25,25v21c0,13.81-11.19,25-25,25H60.01c-13.81,0-25-11.19-25-25v-21
	C35.01,89.13,46.21,77.93,60.01,77.93z"/>
<path class="st6" d="M55.2,100.76h28.07c16.73,0,30.3,13.57,30.3,30.3v10.4c0,16.73-13.57,30.3-30.3,30.3H55.2
	c-16.73,0-30.3-13.57-30.3-30.3v-10.4C24.9,114.33,38.47,100.76,55.2,100.76z"/>
<path class="st19" d="M78.34,95.59h38.67c13.81,0,25,11.19,25,25v21c0,13.81-11.19,25-25,25H78.34c-13.81,0-25-11.19-25-25v-21
	C53.34,106.79,64.54,95.59,78.34,95.59z"/>
<line class="st20" x1="260.84" y1="219.59" x2="260.84" y2="138.26"/>
<polygon class="st5" points="260.26,138.26 218.34,218.76 218.34,138.26 "/>
<polygon class="st5" points="303.26,138.26 261.34,218.76 261.34,138.26 "/>
<path class="st21" d="M298.75,95.81l-30,19.59c-4.7,4.67-12.3,4.67-17,0l-28.89-19.59c-4.69-4.68-4.71-12.28-0.03-16.97
	c0.01-0.01,0.02-0.02,0.03-0.03l30.06-17.16c4.68-4.69,12.28-4.71,16.97-0.03c0.01,0.01,0.02,0.02,0.03,0.03l28.87,17.16
	c4.68,4.69,4.68,12.29-0.01,16.97C298.77,95.79,298.76,95.8,298.75,95.81z"/>
<path class="st22" d="M293.24,95.77l-24.49,14c-4.68,4.69-12.28,4.71-16.97,0.03c-0.01-0.01-0.02-0.02-0.03-0.03l-23.34-14
	c-4.69-4.68-4.71-12.28-0.03-16.97c0.01-0.01,0.02-0.02,0.03-0.03l24.51-11.61c4.68-4.69,12.28-4.71,16.97-0.03
	c0.01,0.01,0.02,0.02,0.03,0.03l23.32,11.61c4.75,4.62,4.94,12.13,0.31,16.87C293.49,95.72,293.41,95.79,293.24,95.77z"/>
<path class="st23" d="M236.27,87.32h49.14c0.59,0,1.06,0.47,1.06,1.06v1.12c0,0.59-0.47,1.06-1.06,1.06h-49.14
	c-0.59,0-1.06-0.47-1.06-1.06v-1.12C235.21,87.8,235.69,87.32,236.27,87.32z"/>
<path class="st23" d="M276.39,76.44h1.48c0.78,0,1.42,0.64,1.42,1.42v22.16c0,0.78-0.64,1.42-1.42,1.42h-1.48
	c-0.78,0-1.42-0.64-1.42-1.42V77.86C274.96,77.08,275.6,76.44,276.39,76.44z"/>
<path class="st23" d="M243.76,76.44h1.48c0.78,0,1.42,0.64,1.42,1.42v22.16c0,0.78-0.64,1.42-1.42,1.42h-1.48
	c-0.78,0-1.42-0.64-1.42-1.42V77.86C242.34,77.08,242.98,76.44,243.76,76.44z"/>
<path class="st23" d="M239.44,78.71h1.48c0.78,0,1.42,0.64,1.42,1.42v18c0,0.78-0.64,1.42-1.42,1.42h-1.48
	c-0.78,0-1.42-0.64-1.42-1.42v-18C238.02,79.35,238.66,78.71,239.44,78.71z"/>
<path class="st23" d="M280.7,78.52h1.48c0.78,0,1.42,0.64,1.42,1.42v18c0,0.78-0.64,1.42-1.42,1.42h-1.48
	c-0.78,0-1.42-0.64-1.42-1.42v-18C279.28,79.16,279.92,78.52,280.7,78.52z"/>
<rect x="80.33" y="237.63" class="st24" width="65.37" height="2.06"/>
<path class="st25" d="M86.11,223.52c-0.34-0.03-0.64,0.22-0.68,0.56c0,0.01,0,0.02,0,0.03c0,0.14-0.37,2.71-0.54,7.16
	c-0.46,0.01-0.92,0.09-1.35,0.25l0,0c-1.58,0.75-2.79,2.12-3.32,3.79c-0.49,1.56,0.15,18.55,0.28,21.94l1.18-0.06
	c-0.3-7.65-0.66-20.22-0.35-21.38c0.42-1.27,1.32-2.31,2.51-2.91v-0.23c0.52-0.17,0.8-0.42,0.95-0.42l0,0c-0.06,2,0,16.72,0,18.43
	l1.18,0.08c0-4.85,0-11.39,0-15.2c0.01-0.07,0.01-0.14,0-0.21c-0.01-3.69,0.19-7.38,0.6-11.05
	C86.65,223.96,86.45,223.62,86.11,223.52z"/>
<path class="st25" d="M140.34,223.52c0.34-0.03,0.64,0.22,0.68,0.56c0,0.01,0,0.02,0,0.03c0,0.14,0.37,2.71,0.54,7.16
	c0.46,0.01,0.92,0.09,1.35,0.25l0,0c1.58,0.75,2.79,2.12,3.32,3.79c0.49,1.56-0.15,18.55-0.28,21.94l-1.18-0.06
	c0.3-7.65,0.66-20.22,0.35-21.38c-0.42-1.27-1.32-2.31-2.51-2.91v-0.23c-0.52-0.17-0.8-0.42-0.95-0.42l0,0c0.06,2,0,16.72,0,18.43
	l-1.18,0.08c0-4.85,0-11.39,0-15.2c-0.01-0.07-0.01-0.14,0-0.21c0.01-3.69-0.19-7.38-0.6-11.05
	C139.81,223.96,140.01,223.62,140.34,223.52z"/>
<polygon class="st26" points="84.51,236.26 81.19,237.68 81.19,238.26 145.3,238.26 145.29,237.73 141.71,236.26 "/>
<rect x="83.31" y="237.82" class="st24" width="3.93" height="1.87"/>
<rect x="140.36" y="237.82" class="st24" width="1.74" height="1.87"/>
<rect x="83.82" y="226.25" class="st26" width="58.28" height="3.49"/>
<rect x="83.82" y="221.93" class="st26" width="58.28" height="3.57"/>
<path class="st18" d="M428.51,182.09H435c6.45,0,11.67,5.22,11.67,11.67v13.33c0,6.45-5.22,11.67-11.67,11.67h-6.49
	c-6.45,0-11.67-5.22-11.67-11.67v-13.33C416.84,187.32,422.07,182.09,428.51,182.09z"/>
<path class="st27" d="M158.08,239.19h125.66c1.51,0,2.73,1.22,2.73,2.73v0.01c0,1.51-1.22,2.73-2.73,2.73H158.08
	c-1.51,0-2.73-1.22-2.73-2.73v-0.01C155.35,240.41,156.58,239.19,158.08,239.19z"/>
<path class="st28" d="M262.07,250.76h125.66c1.51,0,2.73,1.22,2.73,2.73v0.01c0,1.51-1.22,2.73-2.73,2.73H262.07
	c-1.51,0-2.73-1.22-2.73-2.73v-0.01C259.34,251.98,260.57,250.76,262.07,250.76z"/>
<path class="st29" d="M216.57,202.31c0.25,3.76,4.15,8.67,6.22,11.62c3.59,4.77,18.29,24.77,22,28.83h1.68l1.84-0.79l0.55-1.93
	c-4.2-9.5-16.35-24.94-21.3-34.2c1.93-9.35,4.7-20.46,6.33-29.85c-1.33-4.59-8.63-3.59-12.2-4c-2.09,0-2.93,0.05-5.39,1.69
	c-2.46,2.33-11.64,7.74-11.71,11.34c-0.13,3.81-6.55,18.95-0.27,18.38c2.56-0.46,3-11.93,3.76-14.17
	c-0.06-4.73,6.87-7.85,9.47-10.51l1.2-0.68h1.41c1.86,2.45-3.3,18.71-3.62,23.62"/>
<path class="st29" d="M231.04,189.95c1.4,0.55,24.32,10.27,24.86,10.06l1.11-0.54l0.62-1.4l-0.43-1.55
	c-2.65-2.61-9.82-4.33-13.18-5.94l-11.85-5.73L231.04,189.95z"/>
<path class="st29" d="M221.14,211.67c-9.71,24.3-11.85,32.13-18.25,33c-7-4.06,7.47-17,7.22-23.67c1.84-6.23,1.43-13.95,6.43-19.28"
	/>
<polyline class="st30" points="216.57,202.31 217.32,205.68 221.14,211.67 "/>
<path class="st29" d="M235.34,166.06c7.29-8.12-7.57-17.57-14.71-9.37C213.34,164.81,228.22,174.26,235.34,166.06z"/>
<path class="st31" d="M215.85,237.26"/>
<path class="st30" d="M215.85,237.26"/>
</svg>
