<?xml version="1.0" encoding="utf-8"?>
<!-- Generator: Adobe Illustrator 25.3.0, SVG Export Plug-In . SVG Version: 6.00 Build 0)  -->
<svg version="1.1" id="Layer_1" xmlns="http://www.w3.org/2000/svg" xmlns:xlink="http://www.w3.org/1999/xlink" x="0px" y="0px"
	 viewBox="0 0 470.55 612.28" style="enable-background:new 0 0 470.55 612.28;" xml:space="preserve">
<style type="text/css">
	.st0{fill:url(#SVGID_1_);}
	.st1{fill:none;stroke:#FFFFFF;stroke-width:7;stroke-miterlimit:10;}
	.st2{opacity:0.9;clip-path:url(#SVGID_3_);}
	.st3{fill:#3A5A99;}
	.st4{fill:#FEEDD7;}
</style>
<g>
	<linearGradient id="SVGID_1_" gradientUnits="userSpaceOnUse" x1="265.4067" y1="337.7319" x2="335.3012" y2="276.7771">
		<stop  offset="9.852180e-03" style="stop-color:#FBC400"/>
		<stop  offset="0.2463" style="stop-color:#ED7353"/>
		<stop  offset="0.4532" style="stop-color:#EC7898"/>
		<stop  offset="0.8571" style="stop-color:#4E338D"/>
	</linearGradient>
	<path class="st0" d="M349.63,344.61c0,5.13-4.47,9.3-9.99,9.3h-75.05c-5.52,0-9.99-4.16-9.99-9.3v-77.8c0-5.13,4.47-9.29,9.99-9.29
		h75.05c5.52,0,9.99,4.16,9.99,9.29V344.61z"/>
	<path class="st1" d="M332.86,330.55c0,4.98-4.03,9.01-9.01,9.01h-44.51c-4.98,0-9.01-4.04-9.01-9.01v-44.45
		c0-4.98,4.03-9.01,9.01-9.01h44.51c4.98,0,9.01,4.03,9.01,9.01V330.55z"/>
	<path class="st1" d="M315.65,308.33c0,7.76-6.29,14.05-14.05,14.05c-7.76,0-14.05-6.29-14.05-14.05c0-7.76,6.29-14.05,14.05-14.05
		C309.36,294.28,315.65,300.57,315.65,308.33z"/>
	<g>
		<path class="st1" d="M322.13,289.78c0,0.33-0.27,0.61-0.61,0.61c-0.34,0-0.61-0.27-0.61-0.61c0-0.33,0.27-0.6,0.61-0.6
			C321.86,289.18,322.13,289.45,322.13,289.78z"/>
	</g>
</g>
<g>
	<g>
		<defs>
			<rect id="SVGID_2_" x="104.41" y="257.42" width="97.34" height="96.59"/>
		</defs>
		<clipPath id="SVGID_3_">
			<use xlink:href="#SVGID_2_"  style="overflow:visible;"/>
		</clipPath>
		<g class="st2">
			<g transform="translate(438.52 660.21)">
				<path class="st3" d="M-236.77-320.88c0,8.11-6.62,14.68-14.79,14.68h-67.76c-8.17,0-14.79-6.57-14.79-14.68v-67.23
					c0-8.11,6.62-14.68,14.79-14.68h67.76c8.17,0,14.79,6.57,14.79,14.68V-320.88z"/>
			</g>
		</g>
	</g>
	<g transform="translate(403.59 700.76)">
		<path class="st4" d="M-224.51-387.54l1.57-12.11h-12.09v-7.73c0-3.51,0.98-5.9,6.05-5.9l6.46,0v-10.83
			c-1.11-0.15-4.95-0.48-9.42-0.48c-9.32,0-15.69,5.65-15.69,16.01v8.93h-10.54v12.11h10.54v31.07h12.6v-31.07H-224.51z"/>
	</g>
</g>
</svg>
