<?xml version="1.0" encoding="utf-8"?>
<!-- Generator: Adobe Illustrator 25.3.0, SVG Export Plug-In . SVG Version: 6.00 Build 0)  -->
<svg version="1.1" id="Layer_1" xmlns="http://www.w3.org/2000/svg" xmlns:xlink="http://www.w3.org/1999/xlink" x="0px" y="0px"
	 viewBox="0 0 1920 1080" style="enable-background:new 0 0 1920 1080;" xml:space="preserve">
<style type="text/css">
	.st0{fill:#CCBCB0;}
	.st1{fill:#C9BDBD;}
	.st2{fill:#441E14;}
	.st3{fill:#EAB52F;}
	.st4{fill:#F9C930;}
	.st5{fill:#7C4B23;}
	.st6{fill:none;stroke:#D39C20;stroke-width:2;stroke-miterlimit:10;}
	.st7{fill:#A37B46;}
	.st8{fill:#F7F1F0;}
	.st9{fill:#DDD5D3;}
	.st10{fill:#5E3A21;}
	.st11{fill:#E2E0E0;}
	.st12{fill:#FFFFFF;}
	.st13{fill:#E5E0DF;}
	.st14{fill:#775238;}
</style>
<g id="bag_1">
	<ellipse class="st0" cx="939.05" cy="850.29" rx="197.48" ry="19.84"/>
	<path class="st1" d="M810.1,453.52c70.22-7.12,118.59-14.92,153.19-23.64c0,0,31.45-7.92,72.24-1.61
		c26.72,4.14,28.83,12.41,28.86,12.62c0.13,0.95,0,1.8,0,1.8c-0.19,1.19-0.72,2.07-1.39,2.89c0,0-0.91,1.38-2.22,2.52
		c-1.91,1.67-42.94,9.09-99.19,18.04L810.1,453.52z"/>
	<path class="st2" d="M862.4,536.48c-0.12,1.06,5.94,3.32,7.21,1.8c0.4-0.48,0.3-1.3,0-1.8C868.38,534.4,862.51,535.47,862.4,536.48
		z"/>
	<g>
		<circle class="st3" cx="866.01" cy="244.31" r="86.57"/>
		<circle class="st4" cx="864.87" cy="245.45" r="70.27"/>
		<g>
			<path class="st5" d="M842.05,214.4l6.12-3.06l1.96,3.92c0.78-0.18,2.68-0.31,5.7-0.38c0.2-0.49,0.31-1.01,0.31-1.55
				c0.02-0.91,0.32-1.51,0.9-1.8l1.8-0.9l0.63-0.36c0.38-0.13,0.78,0.09,1.19,0.67c0.02,0.05,0.27,0.36,0.74,0.94l6.04,7.95
				c0.1,0.13,0.26,0.35,0.5,0.65c1.32,1.62,2.09,2.64,2.3,3.07c0.28,0.55-0.27,1.17-1.64,1.85c-1.34,0.67-2.16,1.03-2.44,1.06
				c-0.28,0.04-0.98-0.37-2.09-1.22c-4.4-3.28-8.2-4.91-11.39-4.87l7.09,14.17c7.91,0.78,13.57,2.19,16.98,4.23
				c3.41,2.04,6.08,5.01,8.02,8.89c1.74,3.48,2.45,6.63,2.12,9.46c-0.32,2.83-1.16,5.24-2.52,7.24c-1.35,2-3.6,3.93-6.74,5.8
				l2.95,5.9l-6.11,3.06l-3.26-6.51c-2.37,0.17-3.99,0.2-4.86,0.09c-0.77-0.1-1.31-0.07-1.62,0.09c-0.53,0.26-0.74,1.01-0.63,2.25
				c0.05,0.76-0.04,1.27-0.26,1.55c-0.22,0.28-1.08,0.79-2.56,1.53c-0.46,0.23-1.07-0.19-1.83-1.24l-8.56-11.63
				c-0.46-0.61-0.71-0.98-0.77-1.1c-0.42-0.84,0.17-1.66,1.78-2.46c1.27-0.64,2.16-0.88,2.66-0.75c0.5,0.14,1.69,0.85,3.56,2.13
				c4.56,3.12,8.09,4.63,10.6,4.55l-8.33-16.65c-12.46-0.57-20.58-4.64-24.36-12.19c-1.3-2.59-1.98-4.95-2.06-7.09
				c-0.08-2.13,0.55-4.45,1.88-6.94c1.33-2.49,3.97-4.79,7.93-6.89L842.05,214.4z M851.9,234.2l-6.23-12.45
				c-1.65,0.83-2.72,2-3.19,3.51c-0.47,1.51-0.42,2.84,0.15,3.99C843.96,231.9,847.05,233.55,851.9,234.2z M868.45,251.83l7,13.99
				c3.32-2.35,4.15-5.19,2.48-8.52C876.45,254.32,873.29,252.5,868.45,251.83z"/>
		</g>
		<circle class="st6" cx="864.87" cy="245.45" r="70.27"/>
	</g>
	<g>
		
			<ellipse transform="matrix(0.9534 -0.3016 0.3016 0.9534 -89.2832 280.1057)" class="st3" cx="862.4" cy="429.17" rx="46.65" ry="55.07"/>
		
			<ellipse transform="matrix(0.9534 -0.3016 0.3016 0.9534 -89.4833 279.9243)" class="st4" cx="861.71" cy="429.73" rx="37.87" ry="44.7"/>
		<g>
			<path class="st5" d="M851.07,407.75l3.51-1.11l0.84,2.66c0.44-0.01,1.48,0.15,3.13,0.49c0.14-0.28,0.23-0.58,0.26-0.91
				c0.07-0.56,0.26-0.89,0.59-0.99l1.03-0.33l0.36-0.14c0.22-0.03,0.42,0.15,0.61,0.56c0.01,0.03,0.13,0.26,0.35,0.67l2.83,5.65
				c0.04,0.09,0.12,0.25,0.24,0.46c0.63,1.16,0.98,1.89,1.08,2.18c0.12,0.37-0.22,0.69-1,0.93c-0.77,0.24-1.24,0.36-1.39,0.35
				c-0.16-0.01-0.51-0.35-1.07-1.02c-2.21-2.58-4.18-4.05-5.93-4.43l3.04,9.61c4.27,1.48,7.27,3.06,9.01,4.74
				c1.74,1.69,3.02,3.85,3.86,6.48c0.75,2.36,0.95,4.39,0.61,6.09c-0.34,1.7-0.94,3.08-1.79,4.14c-0.85,1.06-2.19,1.96-4.02,2.72
				l1.27,4l-3.51,1.11l-1.4-4.42c-1.3-0.19-2.19-0.38-2.65-0.56c-0.41-0.16-0.71-0.2-0.89-0.15c-0.3,0.1-0.46,0.53-0.47,1.3
				c-0.02,0.47-0.1,0.78-0.23,0.92c-0.14,0.14-0.63,0.35-1.49,0.62c-0.26,0.08-0.57-0.25-0.93-0.99l-3.99-8.24
				c-0.21-0.43-0.33-0.69-0.36-0.77c-0.18-0.57,0.19-1,1.11-1.29c0.73-0.23,1.23-0.27,1.49-0.12c0.27,0.15,0.87,0.73,1.82,1.76
				c2.3,2.49,4.14,3.87,5.51,4.13l-3.57-11.29c-6.76-1.92-10.95-5.44-12.57-10.57c-0.56-1.76-0.79-3.3-0.71-4.62
				c0.08-1.32,0.56-2.67,1.43-4.03c0.87-1.37,2.45-2.45,4.73-3.24L851.07,407.75z M855.3,421.18l-2.67-8.44
				c-0.95,0.3-1.6,0.89-1.94,1.76c-0.35,0.87-0.4,1.69-0.15,2.48C851.1,418.76,852.69,420.16,855.3,421.18z M863.3,434.1l3,9.49
				c1.95-1.03,2.56-2.67,1.85-4.93C867.51,436.64,865.89,435.12,863.3,434.1z"/>
		</g>
		
			<ellipse transform="matrix(0.9534 -0.3016 0.3016 0.9534 -89.4833 279.9243)" class="st6" cx="861.71" cy="429.73" rx="37.87" ry="44.7"/>
	</g>
	<g>
		<circle class="st7" cx="957.98" cy="399.41" r="77.55"/>
	</g>
	<g>
		<circle class="st3" cx="962.49" cy="393.1" r="76.65"/>
		<circle class="st4" cx="961.07" cy="393.17" r="62.22"/>
		<g>
			<path class="st5" d="M964.65,359.24l5.83,1.65l-1.05,3.73c0.62,0.35,1.94,1.4,3.96,3.15c0.43-0.2,0.8-0.48,1.12-0.83
				c0.56-0.58,1.11-0.8,1.66-0.64l1.71,0.48l0.63,0.14c0.33,0.14,0.46,0.52,0.38,1.14c-0.01,0.05-0.04,0.4-0.08,1.05l-0.78,8.81
				c-0.02,0.14-0.03,0.38-0.06,0.72c-0.1,1.85-0.21,2.97-0.33,3.38c-0.15,0.53-0.87,0.6-2.18,0.24c-1.28-0.36-2.02-0.61-2.23-0.76
				c-0.21-0.14-0.42-0.83-0.64-2.05c-0.92-4.78-2.44-8.1-4.54-9.98l-3.81,13.5c4.71,5.23,7.58,9.53,8.59,12.9
				c1.01,3.37,0.99,6.9-0.05,10.61c-0.94,3.31-2.35,5.8-4.25,7.46c-1.9,1.66-3.89,2.74-5.96,3.24s-4.7,0.42-7.87-0.23l-1.59,5.62
				l-5.83-1.65l1.75-6.2c-1.65-1.3-2.73-2.25-3.23-2.84c-0.44-0.52-0.82-0.82-1.11-0.91c-0.5-0.14-1.09,0.22-1.75,1.1
				c-0.42,0.52-0.78,0.81-1.09,0.86c-0.31,0.05-1.17-0.13-2.59-0.53c-0.43-0.12-0.59-0.76-0.46-1.91l1.34-12.72
				c0.07-0.67,0.12-1.06,0.15-1.18c0.23-0.8,1.1-0.98,2.63-0.55c1.21,0.34,1.94,0.71,2.19,1.1s0.6,1.56,1.06,3.52
				c1.12,4.76,2.53,7.86,4.22,9.3l4.48-15.87c-7.81-7.81-10.7-15.31-8.67-22.5c0.7-2.47,1.66-4.42,2.88-5.87
				c1.22-1.44,3.01-2.58,5.37-3.42c2.36-0.84,5.46-0.76,9.3,0.22L964.65,359.24z M959.29,378.08l3.35-11.86
				c-1.58-0.45-2.97-0.31-4.18,0.39c-1.21,0.71-1.97,1.61-2.28,2.7C955.47,371.83,956.51,374.75,959.29,378.08z M959.61,399.48
				l-3.77,13.33c3.58,0.44,5.81-0.92,6.71-4.1C963.36,405.88,962.38,402.8,959.61,399.48z"/>
		</g>
		<circle class="st6" cx="961.07" cy="393.17" r="62.22"/>
	</g>
	<path class="st8" d="M804.69,457.12c-2.39,11.98,13.9,21.03,37.87,48.69c10.87,12.54,18.69,23.57,23.45,30.66
		c-5.74,10.44-33.8,61.45-39.68,72.14c-19.44,35.33-19.36,35.17-19.84,36.07c-14.6,27.51-56.62,106.72-30.66,156.9
		c23.82,46.04,95.59,49.77,144.28,52.3c37.71,1.96,131.94,6.86,164.12-48.69c17.23-29.74,10.74-66.57,7.21-86.57
		c-3.52-19.96-9.71-34.81-34.27-81.16c-13.36-25.22-31.49-58.49-54.11-97.39c3.47-8.14,9.21-20.36,18.04-34.27
		c4.58-7.21,8.15-12,21.64-30.66c21.32-29.5,22.74-31.86,21.64-34.27c-4.24-9.26-35.12,4.45-86.57,5.41
		c-59.81,1.12-97.39-7.21-97.39-7.21c-11.93-2.65-31.18-7.66-52.3,0C821.11,441.64,806.74,446.85,804.69,457.12z"/>
	<path class="st9" d="M1125.71,590.58"/>
	<path class="st10" d="M863.13,536.79c0,0,37.51,7.84,74.42,9.8c34.69,1.85,67.14-0.08,67.34-3.92c0.08-1.55,1.74-4.84,0-5.88
		c-17.72,3.92-67.34,1.96-67.34,1.96l-74.42-5.88C862.19,534.26,862.12,535.58,863.13,536.79z"/>
	<path class="st11" d="M1064.39,668.13c-4.54,1.31,26.1,55.18,2.16,94.47c-17.66,28.98-56.63,39.1-53.44,57.15
		c1.28,7.24,8.74,12.32,14.59,13.92c19.74,5.4,46.27-22.01,56.53-48.31c9.51-24.38,4.67-46.85,0-68.53
		C1078.48,690.15,1067.36,667.28,1064.39,668.13z"/>
	<path class="st8" d="M1012.09,431.88"/>
	<path class="st12" d="M829.94,482.37c-1.5,1.31,32.62,44.47,34.27,43.28c0.88-0.63-7.07-14.08-16.23-25.25
		C840.7,491.55,830.69,481.71,829.94,482.37z"/>
	<path class="st12" d="M858.79,563.53c-2.31-1.14-54.75,95.97-52.3,97.39c1.43,0.83,22.68-30.43,39.68-66.73
		C850.57,584.79,859.84,564.05,858.79,563.53z"/>
	<g>
		<circle class="st3" cx="935.44" cy="687.07" r="76.65"/>
		<circle class="st4" cx="934.09" cy="687.52" r="62.22"/>
		<g>
			<path class="st5" d="M928.31,653.9h6.05v3.88c0.69,0.17,2.24,0.82,4.66,1.96c0.36-0.31,0.64-0.68,0.86-1.1
				c0.38-0.71,0.85-1.07,1.42-1.07h1.78l0.64-0.04c0.36,0.05,0.58,0.38,0.68,1c0,0.05,0.07,0.39,0.21,1.03l1.64,8.69
				c0.02,0.14,0.07,0.38,0.14,0.71c0.4,1.8,0.61,2.92,0.61,3.35c0,0.55-0.68,0.82-2.03,0.82c-1.33,0-2.11-0.04-2.35-0.12
				c-0.24-0.08-0.63-0.68-1.17-1.8c-2.18-4.34-4.55-7.13-7.09-8.37v14.03c5.96,3.75,9.88,7.11,11.77,10.08
				c1.89,2.97,2.83,6.37,2.83,10.22c0,3.44-0.69,6.22-2.07,8.33c-1.38,2.11-3,3.69-4.86,4.74s-4.41,1.69-7.64,1.92v5.84h-6.05v-6.45
				c-1.95-0.81-3.24-1.42-3.88-1.85c-0.57-0.38-1.01-0.57-1.32-0.57c-0.52,0-0.99,0.51-1.39,1.53c-0.26,0.62-0.53,0.99-0.82,1.12
				c-0.28,0.13-1.16,0.2-2.63,0.2c-0.45,0-0.77-0.57-0.96-1.71l-2.17-12.61c-0.12-0.67-0.18-1.06-0.18-1.18
				c0-0.83,0.8-1.25,2.39-1.25c1.26,0,2.06,0.15,2.4,0.46c0.34,0.31,1,1.34,1.98,3.1c2.37,4.27,4.57,6.87,6.59,7.8v-16.49
				c-9.64-5.39-14.46-11.82-14.46-19.3c0-2.56,0.39-4.71,1.18-6.43c0.78-1.72,2.2-3.31,4.24-4.75c2.04-1.45,5.04-2.22,9.01-2.32
				V653.9z M928.28,673.48v-12.32c-1.64,0-2.94,0.5-3.92,1.51c-0.97,1.01-1.46,2.08-1.46,3.22
				C922.9,668.51,924.69,671.04,928.28,673.48z M934.4,693.99v13.85c3.56-0.55,5.34-2.47,5.34-5.77
				C939.74,699.13,937.96,696.44,934.4,693.99z"/>
		</g>
		<circle class="st6" cx="934.09" cy="687.52" r="62.22"/>
	</g>
	<path class="st12" d="M785.81,753.05c-1.19,0.18-7.5,22.88-0.25,42.43c3.75,10.1,9.59,15.27,15.36,20.23
		c19.18,16.49,42.58,18.03,43.07,16.7c0.34-0.9-10.2-2.39-24.45-11.68c-10.05-6.55-25.32-16.51-31.41-36.92
		C783.26,767.49,786.77,752.91,785.81,753.05z"/>
	<path class="st13" d="M1145.55,908"/>
	<path class="st14" d="M961.59,541.89c0,0-9.02-12.62,7.21-10.82c16.23,1.8,10.82,7.21,21.64,1.8c10.82-5.41,7.21,21.64,1.8,19.84
		c-5.41-1.8-19.84-3.61-23.45,0C965.2,556.32,956.18,547.3,961.59,541.89z"/>
	<path class="st14" d="M976.91,545.66c0,0-11.01,42.48-8.53,55.37s5.55-1.32,5.55-1.32l6.57-53.73L976.91,545.66z"/>
	<path class="st14" d="M983.39,545.95c0,0,14.41,50.11,13.66,65.52c-0.75,15.41-5.03-1.38-5.03-1.38l-11.76-63.64L983.39,545.95z"/>
	<path class="st12" d="M940.2,239.22c1.41,0.76,5.61,3.27,8.04,8.58c2.64,5.77,1.44,11.03,1.05,12.5c0.54-1.17,2.95-6.07,8.8-8.59
		c5.85-2.52,11.07-0.91,12.28-0.5c-1.17-0.54-6.07-2.95-8.59-8.8c-2.52-5.85-0.91-11.07-0.5-12.28c-0.94,1.49-3.72,5.49-9.13,7.82
		C946.74,240.28,941.93,239.56,940.2,239.22z"/>
	<path class="st12" d="M874.53,151.64c2.37,0.8,9.52,3.54,14.68,11.07c5.62,8.19,5.17,16.61,4.96,18.98
		c0.51-1.94,2.92-10.13,11.25-15.58c8.33-5.45,16.8-4.37,18.79-4.06c-1.94-0.51-10.13-2.92-15.58-11.25
		c-5.45-8.33-4.37-16.8-4.06-18.79c-1.05,2.55-4.26,9.46-11.97,14.49S877.29,151.71,874.53,151.64z"/>
	<path class="st12" d="M1011.59,395.12c2.37,0.8,9.52,3.54,14.68,11.07c5.62,8.19,5.17,16.61,4.96,18.98
		c0.51-1.94,2.92-10.13,11.25-15.58c8.33-5.45,16.8-4.37,18.79-4.06c-1.94-0.51-10.13-2.92-15.58-11.25
		c-5.45-8.33-4.37-16.8-4.06-18.79c-1.05,2.55-4.26,9.46-11.97,14.49C1021.97,395,1014.35,395.18,1011.59,395.12z"/>
	<path class="st12" d="M800.55,401.36c1.17,0.39,4.69,1.75,7.24,5.46c2.77,4.04,2.55,8.19,2.45,9.36c0.25-0.96,1.44-5,5.55-7.69
		c4.11-2.69,8.29-2.15,9.27-2c-0.96-0.25-5-1.44-7.69-5.55c-2.69-4.11-2.15-8.29-2-9.27c-0.52,1.26-2.1,4.66-5.9,7.15
		C805.66,401.3,801.91,401.39,800.55,401.36z"/>
	<path class="st12" d="M928.9,302.15c0.69-0.38,2.86-1.44,5.72-1.02c3.1,0.46,4.96,2.37,5.46,2.93c-0.34-0.54-1.72-2.85-1.19-5.95
		s2.6-4.83,3.1-5.22c-0.54,0.34-2.85,1.72-5.95,1.19c-3.1-0.53-4.83-2.6-5.22-3.1c0.37,0.79,1.27,3.02,0.79,5.88
		C931.1,299.72,929.51,301.53,928.9,302.15z"/>
	<path class="st12" d="M835.53,379.61c0.12-0.43,0.55-1.74,1.86-2.7c1.42-1.04,2.94-0.97,3.37-0.94c-0.35-0.09-1.85-0.51-2.9-2.02
		c-1.05-1.51-0.93-3.06-0.89-3.42c-0.08,0.36-0.44,1.85-1.89,2.86s-2.98,0.83-3.34,0.78c0.47,0.19,1.74,0.76,2.71,2.16
		S835.52,379.1,835.53,379.61z"/>
	<path class="st12" d="M984.59,326.92c0-0.41,0.07-1.67,0.98-2.86c0.99-1.3,2.33-1.66,2.72-1.75c-0.33,0.02-1.74,0.06-3.01-0.96
		c-1.28-1.02-1.54-2.41-1.6-2.73c0.02,0.33,0.06,1.74-0.96,3.01c-1.03,1.28-2.41,1.54-2.73,1.6c0.45,0.03,1.7,0.18,2.88,1.13
		S984.46,326.48,984.59,326.92z"/>
</g>
</svg>
