<svg xmlns="http://www.w3.org/2000/svg" xmlns:xlink="http://www.w3.org/1999/xlink" width="1920" zoomAndPan="magnify" viewBox="0 0 1440 809.999993" height="1080" preserveAspectRatio="xMidYMid meet" version="1.0"><defs><clipPath id="c7b504d91d"><path d="M 702 386.25 L 738 386.25 L 738 423.75 L 702 423.75 Z M 702 386.25 " clip-rule="nonzero"/></clipPath><clipPath id="9f0a1a9636"><path d="M 702 386.25 L 727 386.25 L 727 418 L 702 418 Z M 702 386.25 " clip-rule="nonzero"/></clipPath><clipPath id="279bdbbcbe"><path d="M 705 416 L 711 416 L 711 423.75 L 705 423.75 Z M 705 416 " clip-rule="nonzero"/></clipPath><clipPath id="63903f68c0"><path d="M 704 386.25 L 738 386.25 L 738 423.75 L 704 423.75 Z M 704 386.25 " clip-rule="nonzero"/></clipPath></defs><g clip-path="url(#c7b504d91d)"><path fill="#471eb6" d="M 708.300781 416.441406 L 707.917969 416.15625 L 707.546875 415.859375 L 707.183594 415.550781 L 706.828125 415.230469 L 706.484375 414.902344 L 706.152344 414.5625 L 705.832031 414.210938 L 705.523438 413.847656 L 705.222656 413.476562 L 704.9375 413.097656 L 704.664062 412.707031 L 704.398438 412.308594 L 704.148438 411.898438 L 703.910156 411.484375 L 703.6875 411.058594 L 703.472656 410.625 L 703.273438 410.183594 L 703.089844 409.734375 L 702.917969 409.277344 L 702.761719 408.816406 L 702.617188 408.347656 L 702.488281 407.871094 L 702.371094 407.386719 L 702.273438 406.898438 L 702.1875 406.402344 L 702.117188 405.902344 L 702.066406 405.394531 L 702.027344 404.882812 L 702.003906 404.367188 L 702 403.847656 L 702.011719 403.320312 L 702.039062 402.789062 L 702.117188 401.941406 L 702.238281 401.101562 L 702.398438 400.273438 L 702.601562 399.457031 L 702.839844 398.660156 L 703.113281 397.875 L 703.425781 397.105469 L 703.773438 396.355469 L 704.152344 395.621094 L 704.566406 394.910156 L 705.011719 394.21875 L 705.484375 393.546875 L 705.988281 392.898438 L 706.523438 392.273438 L 707.082031 391.671875 L 707.667969 391.097656 L 708.277344 390.550781 L 708.910156 390.03125 L 709.570312 389.542969 L 710.246094 389.082031 L 710.945312 388.648438 L 711.664062 388.253906 L 712.402344 387.886719 L 713.152344 387.554688 L 713.925781 387.257812 L 714.707031 387 L 715.507812 386.777344 L 716.316406 386.59375 L 717.140625 386.445312 L 717.972656 386.339844 L 718.816406 386.277344 L 719.667969 386.257812 L 720.515625 386.277344 L 721.347656 386.339844 L 722.167969 386.445312 L 722.972656 386.59375 L 723.757812 386.777344 L 726.085938 387.503906 L 726.082031 387.503906 C 733.082031 389.335938 737.902344 395.8125 737.378906 403.519531 C 736.761719 412.648438 728.867188 420.054688 719.75 420.054688 C 719.332031 420.054688 718.914062 420.035156 718.503906 420.003906 C 715.203125 421.929688 711.769531 423.304688 708.097656 423.722656 C 708.035156 423.730469 707.972656 423.726562 707.914062 423.707031 L 705.582031 422.980469 L 705.527344 422.957031 L 705.472656 422.929688 L 705.425781 422.890625 L 705.382812 422.847656 L 705.347656 422.796875 L 705.316406 422.742188 L 705.296875 422.6875 L 705.285156 422.628906 L 705.285156 422.574219 L 705.289062 422.515625 L 705.308594 422.460938 L 705.332031 422.40625 L 705.367188 422.355469 L 705.476562 422.207031 L 705.589844 422.058594 L 705.699219 421.90625 L 705.917969 421.59375 L 706.128906 421.273438 L 706.230469 421.109375 L 706.335938 420.941406 L 706.433594 420.773438 L 706.535156 420.601562 L 706.632812 420.429688 L 706.730469 420.253906 L 706.917969 419.894531 L 707.011719 419.710938 L 707.105469 419.523438 L 707.195312 419.335938 L 707.367188 418.953125 L 707.453125 418.757812 L 707.539062 418.558594 L 707.621094 418.359375 L 707.703125 418.15625 L 707.785156 417.949219 L 707.863281 417.742188 L 707.9375 417.53125 L 708.015625 417.320312 L 708.089844 417.105469 L 708.160156 416.886719 Z M 719.46875 387.175781 Z M 717.839844 387.503906 L 717.832031 387.503906 Z M 717.039062 387.726562 Z M 716.257812 387.988281 L 716.25 387.988281 Z M 714.730469 388.613281 L 714.730469 388.617188 Z M 711.898438 390.269531 Z M 711.242188 390.757812 L 711.242188 390.761719 L 711.238281 390.761719 Z M 704.730469 401 Z M 704.355469 405.609375 L 704.359375 405.613281 Z M 704.449219 406.625 L 704.449219 406.632812 Z M 704.816406 408.59375 L 704.816406 408.597656 Z M 708.160156 414.933594 L 708.164062 414.9375 L 708.164062 414.941406 Z M 708.480469 415.285156 L 708.484375 415.289062 Z M 709.871094 416.585938 L 709.875 416.585938 L 709.878906 416.589844 Z M 710.246094 416.882812 L 710.25 416.882812 L 710.25 416.886719 Z M 710.628906 417.167969 L 710.632812 417.167969 Z M 710.628906 417.179688 L 710.566406 417.382812 C 710.585938 417.316406 710.609375 417.246094 710.628906 417.179688 Z M 710.558594 417.402344 L 710.5 417.589844 C 710.519531 417.527344 710.539062 417.464844 710.558594 417.402344 Z M 710.484375 417.636719 L 710.421875 417.820312 C 710.441406 417.761719 710.464844 417.699219 710.484375 417.636719 Z M 710.414062 417.839844 L 710.351562 418.023438 C 710.375 417.960938 710.394531 417.902344 710.414062 417.839844 Z M 710.335938 418.070312 L 710.269531 418.257812 C 710.292969 418.195312 710.3125 418.132812 710.335938 418.070312 Z M 710.269531 418.261719 L 710.191406 418.46875 L 710.117188 418.671875 C 710.167969 418.535156 710.21875 418.398438 710.269531 418.261719 Z M 710.109375 418.6875 L 710.039062 418.863281 C 710.0625 418.804688 710.085938 418.746094 710.109375 418.6875 Z M 710.023438 418.90625 L 709.960938 419.0625 C 709.980469 419.011719 710.003906 418.957031 710.023438 418.90625 Z M 709.941406 419.109375 L 709.875 419.269531 C 709.898438 419.21875 709.921875 419.164062 709.941406 419.109375 Z M 709.863281 419.300781 L 709.785156 419.484375 L 709.703125 419.675781 C 709.757812 419.550781 709.808594 419.425781 709.863281 419.300781 Z M 709.695312 419.6875 L 709.613281 419.875 L 709.523438 420.0625 C 709.582031 419.9375 709.640625 419.8125 709.695312 419.6875 Z M 709.523438 420.066406 L 709.433594 420.253906 L 709.34375 420.4375 L 709.25 420.621094 C 709.34375 420.441406 709.433594 420.257812 709.523438 420.066406 Z M 709.25 420.621094 L 709.15625 420.800781 C 709.1875 420.742188 709.21875 420.683594 709.25 420.621094 Z M 709.15625 420.800781 L 709.058594 420.980469 L 708.863281 421.332031 L 708.765625 421.5 C 708.898438 421.273438 709.027344 421.042969 709.15625 420.800781 Z M 708.765625 421.5 L 708.664062 421.671875 L 708.5625 421.835938 C 708.628906 421.726562 708.699219 421.613281 708.765625 421.5 Z M 708.5625 421.835938 L 708.351562 422.164062 L 708.25 422.320312 C 708.355469 422.160156 708.460938 422 708.5625 421.835938 Z M 708.246094 422.324219 L 708.144531 422.472656 C 708.175781 422.425781 708.210938 422.375 708.246094 422.324219 Z M 708.136719 422.484375 L 708.03125 422.632812 L 707.917969 422.785156 L 707.808594 422.9375 L 707.695312 423.082031 C 707.847656 422.890625 707.992188 422.691406 708.136719 422.484375 Z M 707.636719 423.1875 Z M 707.621094 423.246094 Z M 707.625 423.414062 L 707.628906 423.414062 Z M 707.710938 423.574219 L 707.714844 423.574219 L 707.714844 423.578125 Z M 707.753906 423.617188 L 707.757812 423.621094 Z M 707.753906 423.617188 " fill-opacity="1" fill-rule="evenodd"/></g><g clip-path="url(#9f0a1a9636)"><path fill="#471eb6" d="M 710.632812 417.167969 L 708.300781 416.441406 L 707.917969 416.15625 L 707.546875 415.859375 L 707.183594 415.550781 L 706.828125 415.230469 L 706.484375 414.902344 L 706.152344 414.5625 L 705.832031 414.210938 L 705.523438 413.847656 L 705.222656 413.476562 L 704.9375 413.097656 L 704.664062 412.707031 L 704.398438 412.308594 L 704.148438 411.898438 L 703.910156 411.484375 L 703.6875 411.058594 L 703.472656 410.625 L 703.273438 410.183594 L 703.089844 409.734375 L 702.917969 409.28125 L 702.761719 408.816406 L 702.617188 408.347656 L 702.488281 407.871094 L 702.371094 407.386719 L 702.273438 406.898438 L 702.1875 406.402344 L 702.117188 405.902344 L 702.066406 405.394531 L 702.027344 404.882812 L 702.003906 404.367188 L 702 403.847656 L 702.011719 403.320312 L 702.039062 402.792969 L 702.117188 401.941406 L 702.238281 401.101562 L 702.398438 400.273438 L 702.601562 399.457031 L 702.839844 398.660156 L 703.113281 397.875 L 703.425781 397.105469 L 703.773438 396.355469 L 704.152344 395.621094 L 704.566406 394.910156 L 705.011719 394.21875 L 705.484375 393.546875 L 705.988281 392.898438 L 706.523438 392.273438 L 707.082031 391.671875 L 707.667969 391.097656 L 708.277344 390.550781 L 708.910156 390.03125 L 709.570312 389.542969 L 710.246094 389.082031 L 710.945312 388.648438 L 711.664062 388.253906 L 712.398438 387.886719 L 713.152344 387.554688 L 713.921875 387.261719 L 714.707031 387 L 715.507812 386.777344 L 716.316406 386.59375 L 717.140625 386.445312 L 717.972656 386.34375 L 718.816406 386.277344 L 719.667969 386.257812 L 720.515625 386.277344 L 721.347656 386.34375 L 722.167969 386.445312 L 722.972656 386.59375 L 723.757812 386.777344 L 726.085938 387.503906 L 725.300781 387.320312 L 724.496094 387.175781 L 723.679688 387.070312 L 722.84375 387.003906 L 721.996094 386.984375 L 721.144531 387.003906 L 720.304688 387.070312 L 719.46875 387.175781 L 718.648438 387.320312 L 717.835938 387.503906 L 717.039062 387.726562 L 716.253906 387.988281 L 715.484375 388.285156 L 714.730469 388.613281 L 713.992188 388.980469 L 713.277344 389.378906 L 712.578125 389.808594 L 711.898438 390.269531 L 711.242188 390.761719 L 710.605469 391.28125 L 709.996094 391.828125 L 709.410156 392.402344 L 708.851562 393 L 708.320312 393.625 L 707.816406 394.273438 L 707.339844 394.945312 L 706.894531 395.636719 L 706.484375 396.351562 L 706.101562 397.082031 L 705.757812 397.832031 L 705.445312 398.601562 L 705.167969 399.386719 L 704.929688 400.1875 L 704.730469 401 L 704.570312 401.828125 L 704.449219 402.667969 L 704.367188 403.519531 L 704.339844 404.046875 L 704.328125 404.574219 L 704.335938 405.09375 L 704.355469 405.609375 L 704.394531 406.121094 L 704.449219 406.628906 L 704.519531 407.128906 L 704.601562 407.625 L 704.703125 408.113281 L 704.816406 408.597656 L 704.945312 409.074219 L 705.089844 409.542969 L 705.246094 410.007812 L 705.417969 410.464844 L 705.605469 410.910156 L 705.804688 411.351562 L 706.015625 411.785156 L 706.242188 412.210938 L 706.480469 412.628906 L 706.730469 413.035156 L 706.992188 413.433594 L 707.269531 413.824219 L 707.554688 414.207031 L 707.851562 414.578125 L 708.164062 414.9375 L 708.484375 415.289062 L 708.816406 415.628906 L 709.160156 415.960938 L 709.511719 416.277344 L 709.875 416.585938 L 710.25 416.882812 Z M 710.632812 417.167969 " fill-opacity="1" fill-rule="evenodd"/></g><g clip-path="url(#279bdbbcbe)"><path fill="#471eb6" d="M 707.914062 423.707031 L 705.582031 422.980469 L 705.527344 422.957031 L 705.472656 422.929688 L 705.425781 422.890625 L 705.382812 422.847656 L 705.347656 422.796875 L 705.316406 422.742188 L 705.296875 422.6875 L 705.285156 422.628906 L 705.285156 422.574219 L 705.289062 422.515625 L 705.308594 422.460938 L 705.332031 422.40625 L 705.367188 422.355469 L 705.476562 422.210938 L 705.589844 422.058594 L 705.699219 421.90625 L 705.917969 421.59375 L 706.128906 421.273438 L 706.230469 421.109375 L 706.335938 420.941406 L 706.433594 420.773438 L 706.535156 420.601562 L 706.632812 420.429688 L 706.730469 420.253906 L 706.917969 419.894531 L 707.011719 419.710938 L 707.101562 419.523438 L 707.195312 419.335938 L 707.367188 418.953125 L 707.453125 418.757812 L 707.539062 418.558594 L 707.621094 418.359375 L 707.703125 418.15625 L 707.78125 417.949219 L 707.863281 417.742188 L 707.9375 417.53125 L 708.015625 417.320312 L 708.089844 417.105469 L 708.160156 416.886719 L 708.300781 416.441406 L 710.632812 417.167969 L 710.492188 417.613281 L 710.417969 417.832031 L 710.269531 418.261719 L 710.191406 418.46875 L 710.113281 418.679688 L 710.03125 418.882812 L 709.953125 419.085938 L 709.867188 419.289062 L 709.785156 419.484375 L 709.613281 419.875 L 709.523438 420.066406 L 709.433594 420.253906 L 709.34375 420.4375 L 709.25 420.621094 L 709.15625 420.800781 L 709.058594 420.980469 L 708.964844 421.15625 L 708.863281 421.332031 L 708.765625 421.5 L 708.664062 421.671875 L 708.5625 421.835938 L 708.351562 422.164062 L 708.246094 422.320312 L 708.140625 422.480469 L 708.03125 422.632812 L 707.917969 422.785156 L 707.808594 422.9375 L 707.695312 423.085938 L 707.660156 423.136719 L 707.636719 423.1875 L 707.621094 423.246094 L 707.613281 423.300781 L 707.617188 423.359375 L 707.628906 423.414062 L 707.648438 423.472656 L 707.675781 423.527344 L 707.714844 423.574219 L 707.757812 423.621094 L 707.804688 423.65625 L 707.855469 423.683594 Z M 707.914062 423.707031 " fill-opacity="1" fill-rule="evenodd"/></g><g clip-path="url(#63903f68c0)"><path fill="#513aa1" d="M 721.996094 386.984375 C 731.113281 386.984375 738 394.386719 737.378906 403.519531 C 736.761719 412.648438 728.867188 420.054688 719.75 420.054688 C 719.332031 420.054688 718.914062 420.035156 718.503906 420.007812 C 715.203125 421.929688 711.769531 423.304688 708.097656 423.722656 C 707.925781 423.742188 707.765625 423.667969 707.675781 423.527344 C 707.585938 423.382812 707.59375 423.214844 707.695312 423.085938 C 708.90625 421.519531 709.894531 419.566406 710.632812 417.167969 C 706.492188 414.191406 703.984375 409.1875 704.367188 403.519531 C 704.988281 394.386719 712.882812 386.984375 721.996094 386.984375 Z M 721.996094 386.984375 " fill-opacity="1" fill-rule="evenodd"/></g><path fill="#471eb6" d="M 720.617188 399.941406 L 719.367188 400.410156 L 719.46875 400.226562 L 719.574219 400.046875 L 719.675781 399.871094 L 719.777344 399.703125 L 719.882812 399.539062 L 719.988281 399.382812 L 720.09375 399.230469 L 720.199219 399.085938 L 720.308594 398.945312 L 720.421875 398.8125 L 720.535156 398.6875 L 720.648438 398.566406 L 720.769531 398.449219 L 720.890625 398.339844 L 721.011719 398.238281 L 721.140625 398.140625 L 721.269531 398.046875 L 721.402344 397.960938 L 721.542969 397.882812 L 721.683594 397.808594 L 722.933594 397.335938 L 722.789062 397.410156 L 722.652344 397.488281 L 722.519531 397.574219 L 722.390625 397.667969 L 722.261719 397.765625 L 722.136719 397.867188 L 722.015625 397.976562 L 721.898438 398.09375 L 721.78125 398.214844 L 721.667969 398.34375 L 721.558594 398.476562 L 721.449219 398.613281 L 721.339844 398.761719 L 721.234375 398.910156 L 721.128906 399.066406 L 721.027344 399.230469 L 720.921875 399.398438 L 720.820312 399.574219 L 720.71875 399.753906 Z M 720.617188 399.941406 " fill-opacity="1" fill-rule="evenodd"/><path fill="#471eb6" d="M 720.777344 413.074219 L 719.527344 413.542969 L 719.109375 413.164062 L 718.6875 412.785156 L 717.859375 412.027344 L 717.445312 411.652344 L 717.039062 411.273438 L 716.636719 410.894531 L 716.238281 410.515625 L 715.847656 410.136719 L 715.464844 409.757812 L 715.089844 409.378906 L 714.726562 409 L 714.371094 408.621094 L 714.023438 408.242188 L 713.6875 407.863281 L 713.367188 407.484375 L 713.058594 407.105469 L 712.761719 406.726562 L 712.480469 406.347656 L 712.214844 405.96875 L 711.964844 405.589844 L 711.734375 405.210938 L 711.519531 404.832031 L 711.324219 404.453125 L 711.148438 404.074219 L 710.992188 403.695312 L 710.855469 403.316406 L 710.742188 402.9375 L 710.652344 402.558594 L 710.585938 402.179688 L 710.542969 401.800781 L 710.527344 401.421875 L 710.53125 401.214844 L 710.542969 401.007812 L 710.570312 400.808594 L 710.605469 400.609375 L 710.652344 400.414062 L 710.710938 400.222656 L 710.777344 400.035156 L 710.855469 399.851562 L 710.941406 399.671875 L 711.039062 399.496094 L 711.144531 399.328125 L 711.253906 399.164062 L 711.378906 399.003906 L 711.507812 398.851562 L 711.644531 398.707031 L 711.789062 398.566406 L 711.941406 398.433594 L 712.101562 398.304688 L 712.265625 398.183594 L 712.4375 398.070312 L 712.617188 397.96875 L 713.867188 397.496094 L 713.6875 397.601562 L 713.515625 397.714844 L 713.347656 397.832031 L 713.191406 397.960938 L 713.039062 398.09375 L 712.894531 398.234375 L 712.753906 398.382812 L 712.625 398.535156 L 712.503906 398.691406 L 712.390625 398.855469 L 712.285156 399.023438 L 712.191406 399.199219 L 712.105469 399.378906 L 712.027344 399.5625 L 711.960938 399.75 L 711.902344 399.941406 L 711.855469 400.136719 L 711.820312 400.335938 L 711.792969 400.539062 L 711.777344 400.742188 L 711.773438 400.949219 L 711.792969 401.328125 L 711.835938 401.707031 L 711.902344 402.085938 L 711.992188 402.464844 L 712.105469 402.84375 L 712.242188 403.222656 L 712.394531 403.601562 L 712.574219 403.980469 L 712.769531 404.359375 L 712.984375 404.738281 L 713.214844 405.117188 L 713.464844 405.496094 L 713.730469 405.875 L 714.011719 406.253906 L 714.304688 406.632812 L 714.617188 407.011719 L 714.9375 407.390625 L 715.273438 407.769531 L 715.617188 408.148438 L 715.972656 408.527344 L 716.339844 408.90625 L 716.714844 409.285156 L 717.097656 409.664062 L 717.488281 410.042969 L 717.886719 410.421875 L 718.289062 410.800781 L 718.695312 411.179688 L 719.105469 411.558594 L 719.519531 411.9375 L 720.355469 412.695312 Z M 720.777344 413.074219 " fill-opacity="1" fill-rule="evenodd"/><path fill="#d4639f" d="M 720.617188 399.941406 C 721.699219 397.921875 722.792969 396.910156 725.007812 396.910156 C 727.453125 396.910156 729.457031 398.71875 729.484375 400.949219 C 729.53125 404.992188 725.15625 409.03125 720.777344 413.074219 C 716.300781 409.03125 711.824219 404.992188 711.773438 400.949219 C 711.75 398.71875 713.710938 396.910156 716.152344 396.910156 C 718.367188 396.910156 719.488281 397.921875 720.617188 399.941406 Z M 720.617188 399.941406 " fill-opacity="1" fill-rule="nonzero"/></svg>